%
M48
M72
T01C0.0120
T02C0.0236
T03C0.0400
T04C0.0472
T05C0.0590
T06C0.0709
T07C0.1260
%
T01
X6030Y6700
X12000Y10030
X10450Y11040
X9216Y10520
X7656Y10520
X8410Y11560
X10410Y12160
X10750Y12560
X12030Y11760
X13374Y12860
X13890Y14010
X13880Y15110
X13860Y16080
X13860Y17110
X16140Y17140
X16680Y16740
X17140Y17140
X18140Y17140
X19140Y17140
X16680Y16140
X21160Y15240
X23240Y15070
X24190Y16060
X24490Y15760
X24790Y15460
X26400Y15070
X25530Y14290
X24490Y14290
X25990Y13520
X26190Y12780
X25690Y12560
X25090Y12860
X26740Y11650
X27480Y12160
X25390Y11340
X24180Y10700
X23880Y10400
X23580Y10140
X23470Y9790
X24490Y8890
X22930Y8030
X26440Y8890
X28250Y9190
X28780Y8960
X28860Y9490
X28554Y9794
X29120Y10100
X29372Y10400
X29670Y10700
X31610Y11040
X31920Y11850
X32480Y10240
X31590Y8960
X30346Y8964
X30957Y7850
X32020Y7350
X31260Y7090
X30040Y6330
X30650Y6030
X23240Y11040
X20580Y11040
X18810Y11040
X17560Y9980
X18910Y9490
X17390Y8100
X14590Y8050
X12630Y8250
X14530Y10060
X15910Y10700
X15760Y11750
X9176Y12860
X8384Y12860
X7636Y12860
X4040Y13470
X7490Y16740
X9316Y16740
X22120Y17870
X23580Y17030
X23880Y16730
X24180Y16430
X25090Y17030
X25830Y16790
X26130Y16490
X27220Y15970
X28230Y16190
X28430Y16490
X28630Y16790
X29010Y17270
X29210Y17570
X29790Y18180
X30100Y17876
X29490Y18480
X30510Y18780
X27960Y17870
X30652Y16970
X31610Y16190
X31920Y15820
X30910Y15820
X32460Y16730
X33449Y14741
X29470Y13560
X27620Y14120
X24480Y18180
X24180Y18480
X24790Y18780
X24050Y19030
T02
X16630Y15600
T03
X16140Y18680
X15140Y18680
X14140Y18680
X13140Y18680
X12140Y18680
X11140Y18680
X10140Y18680
X9140Y18680
X8140Y18680
X7140Y18680
X6140Y18680
X17140Y18680
X18140Y18680
X19140Y18680
X20140Y18680
X21140Y18680
X33490Y13490
X33490Y11710
X28950Y7090
X27950Y7090
X26950Y7090
X25950Y7090
X24950Y7090
X20910Y7090
X19910Y7090
X18910Y7090
X17910Y7090
X16910Y7090
X15910Y7090
T04
X11790Y15600
T05
X32510Y13980
X32510Y11220
T06
X6392Y10651
X4226Y10651
X4226Y8997
X6392Y8997
X6392Y12304
X4226Y12304
X4196Y14741
X6362Y14741
X6362Y16394
X4196Y16394
T07
X3990Y6510
X3990Y18680
X33490Y18680
X33490Y6510
M30
