G75*
G70*
%OFA0B0*%
%FSLAX24Y24*%
%IPPOS*%
%LPD*%
%AMOC8*
5,1,8,0,0,1.08239X$1,22.5*
%
%ADD10C,0.0600*%
%ADD11R,0.1063X0.1063*%
%ADD12OC8,0.0600*%
%ADD13C,0.0885*%
%ADD14C,0.0080*%
%ADD15C,0.0280*%
%ADD16C,0.0160*%
%ADD17C,0.0240*%
%ADD18C,0.0709*%
%ADD19C,0.0400*%
%ADD20C,0.0396*%
D10*
X015910Y006790D02*
X015910Y007390D01*
X016910Y007390D02*
X016910Y006790D01*
X017910Y006790D02*
X017910Y007390D01*
X018910Y007390D02*
X018910Y006790D01*
X019910Y006790D02*
X019910Y007390D01*
X020910Y007390D02*
X020910Y006790D01*
X024950Y006790D02*
X024950Y007390D01*
X025950Y007390D02*
X025950Y006790D01*
X026950Y006790D02*
X026950Y007390D01*
X027950Y007390D02*
X027950Y006790D01*
X028950Y006790D02*
X028950Y007390D01*
X021140Y018380D02*
X021140Y018980D01*
X020140Y018980D02*
X020140Y018380D01*
X019140Y018380D02*
X019140Y018980D01*
X018140Y018980D02*
X018140Y018380D01*
X017140Y018380D02*
X017140Y018980D01*
X016140Y018980D02*
X016140Y018380D01*
X015140Y018380D02*
X015140Y018980D01*
X014140Y018980D02*
X014140Y018380D01*
X013140Y018380D02*
X013140Y018980D01*
X012140Y018980D02*
X012140Y018380D01*
X011140Y018380D02*
X011140Y018980D01*
X010140Y018980D02*
X010140Y018380D01*
X009140Y018380D02*
X009140Y018980D01*
X008140Y018980D02*
X008140Y018380D01*
X007140Y018380D02*
X007140Y018980D01*
X006140Y018980D02*
X006140Y018380D01*
D11*
X006362Y016394D03*
X004196Y016394D03*
X004196Y014741D03*
X006362Y014741D03*
X006392Y012304D03*
X004226Y012304D03*
X004226Y010651D03*
X006392Y010651D03*
X006392Y008997D03*
X004226Y008997D03*
D12*
X033490Y011710D03*
X033490Y013490D03*
D13*
X032510Y013980D03*
X032510Y011220D03*
D14*
X004987Y006097D02*
X004931Y006000D01*
X017717Y006000D01*
X017216Y006502D01*
X017148Y006434D01*
X016994Y006370D01*
X016826Y006370D01*
X016672Y006434D01*
X016554Y006552D01*
X016490Y006706D01*
X016490Y007474D01*
X016554Y007628D01*
X016672Y007746D01*
X016826Y007810D01*
X016994Y007810D01*
X017148Y007746D01*
X017266Y007628D01*
X017330Y007474D01*
X017330Y006953D01*
X017490Y006793D01*
X017490Y007474D01*
X017554Y007628D01*
X017672Y007746D01*
X017826Y007810D01*
X017994Y007810D01*
X018148Y007746D01*
X018266Y007628D01*
X018330Y007474D01*
X018330Y006953D01*
X018490Y006793D01*
X018490Y007474D01*
X018554Y007628D01*
X018672Y007746D01*
X018826Y007810D01*
X018994Y007810D01*
X019148Y007746D01*
X019266Y007628D01*
X019330Y007474D01*
X019330Y006706D01*
X019266Y006552D01*
X019244Y006530D01*
X019555Y006530D01*
X019534Y006559D01*
X019502Y006621D01*
X019481Y006687D01*
X019470Y006755D01*
X019330Y006755D01*
X019330Y006834D02*
X019470Y006834D01*
X019470Y006912D02*
X019330Y006912D01*
X019330Y006991D02*
X019470Y006991D01*
X019470Y007050D02*
X019470Y006755D01*
X019484Y006677D02*
X019318Y006677D01*
X019285Y006598D02*
X019514Y006598D01*
X019470Y007050D02*
X019870Y007050D01*
X019870Y007130D01*
X019870Y007829D01*
X019807Y007819D01*
X019741Y007798D01*
X019679Y007766D01*
X019623Y007726D01*
X019574Y007677D01*
X019534Y007621D01*
X019502Y007559D01*
X019481Y007493D01*
X019470Y007425D01*
X019470Y007130D01*
X019870Y007130D01*
X019950Y007130D01*
X019950Y007829D01*
X020013Y007819D01*
X020079Y007798D01*
X020141Y007766D01*
X020197Y007726D01*
X020246Y007677D01*
X020286Y007621D01*
X020318Y007559D01*
X020339Y007493D01*
X020350Y007425D01*
X020350Y007130D01*
X019950Y007130D01*
X019950Y007050D01*
X020350Y007050D01*
X020350Y006755D01*
X020490Y006755D01*
X020490Y006706D02*
X020554Y006552D01*
X020576Y006530D01*
X020265Y006530D01*
X020286Y006559D01*
X020318Y006621D01*
X020339Y006687D01*
X020350Y006755D01*
X020350Y006834D02*
X020490Y006834D01*
X020490Y006912D02*
X020350Y006912D01*
X020350Y006991D02*
X020490Y006991D01*
X020490Y007069D02*
X019950Y007069D01*
X019950Y007148D02*
X019870Y007148D01*
X019870Y007226D02*
X019950Y007226D01*
X019950Y007305D02*
X019870Y007305D01*
X019870Y007383D02*
X019950Y007383D01*
X019950Y007462D02*
X019870Y007462D01*
X019870Y007540D02*
X019950Y007540D01*
X019950Y007619D02*
X019870Y007619D01*
X019870Y007697D02*
X019950Y007697D01*
X019950Y007776D02*
X019870Y007776D01*
X019697Y007776D02*
X019077Y007776D01*
X019197Y007697D02*
X019595Y007697D01*
X019533Y007619D02*
X019270Y007619D01*
X019302Y007540D02*
X019496Y007540D01*
X019476Y007462D02*
X019330Y007462D01*
X019330Y007383D02*
X019470Y007383D01*
X019470Y007305D02*
X019330Y007305D01*
X019330Y007226D02*
X019470Y007226D01*
X019470Y007148D02*
X019330Y007148D01*
X019330Y007069D02*
X019870Y007069D01*
X020350Y007148D02*
X020490Y007148D01*
X020490Y007226D02*
X020350Y007226D01*
X020350Y007305D02*
X020490Y007305D01*
X020490Y007383D02*
X020350Y007383D01*
X020344Y007462D02*
X020490Y007462D01*
X020490Y007474D02*
X020490Y006706D01*
X020502Y006677D02*
X020336Y006677D01*
X020306Y006598D02*
X020535Y006598D01*
X020490Y007474D02*
X020554Y007628D01*
X020672Y007746D01*
X020826Y007810D01*
X020994Y007810D01*
X021148Y007746D01*
X021266Y007628D01*
X021330Y007474D01*
X021330Y007330D01*
X024530Y007330D01*
X024530Y007474D01*
X024594Y007628D01*
X024712Y007746D01*
X024866Y007810D01*
X025034Y007810D01*
X025188Y007746D01*
X025306Y007628D01*
X025370Y007474D01*
X025370Y006706D01*
X025306Y006552D01*
X025284Y006530D01*
X025595Y006530D01*
X025574Y006559D01*
X025542Y006621D01*
X025521Y006687D01*
X025510Y006755D01*
X025370Y006755D01*
X025370Y006834D02*
X025510Y006834D01*
X025510Y006912D02*
X025370Y006912D01*
X025370Y006991D02*
X025510Y006991D01*
X025510Y007050D02*
X025510Y006755D01*
X025524Y006677D02*
X025358Y006677D01*
X025325Y006598D02*
X025554Y006598D01*
X025510Y007050D02*
X025910Y007050D01*
X025910Y007130D01*
X025910Y007829D01*
X025847Y007819D01*
X025781Y007798D01*
X025719Y007766D01*
X025663Y007726D01*
X025614Y007677D01*
X025574Y007621D01*
X025542Y007559D01*
X025521Y007493D01*
X025510Y007425D01*
X025510Y007130D01*
X025910Y007130D01*
X025990Y007130D01*
X025990Y007829D01*
X026053Y007819D01*
X026119Y007798D01*
X026181Y007766D01*
X026237Y007726D01*
X026286Y007677D01*
X026326Y007621D01*
X026358Y007559D01*
X026379Y007493D01*
X026390Y007425D01*
X026390Y007130D01*
X025990Y007130D01*
X025990Y007050D01*
X026390Y007050D01*
X026390Y006755D01*
X026530Y006755D01*
X026530Y006706D02*
X026594Y006552D01*
X026616Y006530D01*
X026305Y006530D01*
X026326Y006559D01*
X026358Y006621D01*
X026379Y006687D01*
X026390Y006755D01*
X026390Y006834D02*
X026530Y006834D01*
X026530Y006912D02*
X026390Y006912D01*
X026390Y006991D02*
X026530Y006991D01*
X026530Y007069D02*
X025990Y007069D01*
X025990Y007148D02*
X025910Y007148D01*
X025910Y007226D02*
X025990Y007226D01*
X025990Y007305D02*
X025910Y007305D01*
X025910Y007383D02*
X025990Y007383D01*
X025990Y007462D02*
X025910Y007462D01*
X025910Y007540D02*
X025990Y007540D01*
X025990Y007619D02*
X025910Y007619D01*
X025910Y007697D02*
X025990Y007697D01*
X025990Y007776D02*
X025910Y007776D01*
X025737Y007776D02*
X025117Y007776D01*
X025237Y007697D02*
X025635Y007697D01*
X025573Y007619D02*
X025310Y007619D01*
X025342Y007540D02*
X025536Y007540D01*
X025516Y007462D02*
X025370Y007462D01*
X025370Y007383D02*
X025510Y007383D01*
X025510Y007305D02*
X025370Y007305D01*
X025370Y007226D02*
X025510Y007226D01*
X025510Y007148D02*
X025370Y007148D01*
X025370Y007069D02*
X025910Y007069D01*
X026390Y007148D02*
X026530Y007148D01*
X026530Y007226D02*
X026390Y007226D01*
X026390Y007305D02*
X026530Y007305D01*
X026530Y007383D02*
X026390Y007383D01*
X026384Y007462D02*
X026530Y007462D01*
X026530Y007474D02*
X026530Y006706D01*
X026542Y006677D02*
X026376Y006677D01*
X026346Y006598D02*
X026575Y006598D01*
X027284Y006530D02*
X027306Y006552D01*
X027370Y006706D01*
X027370Y007474D01*
X027306Y007628D01*
X027188Y007746D01*
X027034Y007810D01*
X026866Y007810D01*
X026712Y007746D01*
X026594Y007628D01*
X026530Y007474D01*
X026558Y007540D02*
X026364Y007540D01*
X026327Y007619D02*
X026590Y007619D01*
X026663Y007697D02*
X026265Y007697D01*
X026163Y007776D02*
X026783Y007776D01*
X027117Y007776D02*
X027783Y007776D01*
X027712Y007746D02*
X027594Y007628D01*
X027530Y007474D01*
X027530Y006706D01*
X027594Y006552D01*
X027616Y006530D01*
X027284Y006530D01*
X027325Y006598D02*
X027575Y006598D01*
X027542Y006677D02*
X027358Y006677D01*
X027370Y006755D02*
X027530Y006755D01*
X027530Y006834D02*
X027370Y006834D01*
X027370Y006912D02*
X027530Y006912D01*
X027530Y006991D02*
X027370Y006991D01*
X027370Y007069D02*
X027530Y007069D01*
X027530Y007148D02*
X027370Y007148D01*
X027370Y007226D02*
X027530Y007226D01*
X027530Y007305D02*
X027370Y007305D01*
X027370Y007383D02*
X027530Y007383D01*
X027530Y007462D02*
X027370Y007462D01*
X027342Y007540D02*
X027558Y007540D01*
X027590Y007619D02*
X027310Y007619D01*
X027237Y007697D02*
X027663Y007697D01*
X027712Y007746D02*
X027866Y007810D01*
X028034Y007810D01*
X028188Y007746D01*
X028256Y007678D01*
X028510Y007933D01*
X028627Y008050D01*
X030790Y008050D01*
X030810Y008070D01*
X030906Y008110D01*
X031009Y008110D01*
X031105Y008070D01*
X031178Y007997D01*
X031217Y007902D01*
X031217Y007798D01*
X031178Y007703D01*
X031105Y007630D01*
X031009Y007590D01*
X030906Y007590D01*
X030810Y007630D01*
X030790Y007650D01*
X029284Y007650D01*
X029306Y007628D01*
X029370Y007474D01*
X029370Y007290D01*
X031092Y007290D01*
X031113Y007310D01*
X031208Y007350D01*
X031312Y007350D01*
X031407Y007310D01*
X031480Y007237D01*
X031520Y007142D01*
X031520Y007038D01*
X031480Y006943D01*
X031407Y006870D01*
X031312Y006830D01*
X031208Y006830D01*
X031113Y006870D01*
X031092Y006890D01*
X029370Y006890D01*
X029370Y006706D01*
X029306Y006552D01*
X029284Y006530D01*
X029872Y006530D01*
X029893Y006550D01*
X029988Y006590D01*
X030092Y006590D01*
X030187Y006550D01*
X030260Y006477D01*
X030300Y006382D01*
X030300Y006278D01*
X030280Y006230D01*
X030482Y006230D01*
X030503Y006250D01*
X030598Y006290D01*
X030702Y006290D01*
X030797Y006250D01*
X030870Y006177D01*
X030910Y006082D01*
X030910Y006000D01*
X032549Y006000D01*
X032493Y006097D01*
X032420Y006369D01*
X032420Y006651D01*
X032493Y006923D01*
X032634Y007167D01*
X032833Y007366D01*
X033077Y007507D01*
X033349Y007580D01*
X033631Y007580D01*
X033903Y007507D01*
X034022Y007438D01*
X034022Y017752D01*
X033903Y017683D01*
X033631Y017610D01*
X033349Y017610D01*
X033077Y017683D01*
X032833Y017824D01*
X032634Y018023D01*
X032493Y018267D01*
X032420Y018539D01*
X032420Y018821D01*
X032493Y019093D01*
X032549Y019190D01*
X021527Y019190D01*
X021548Y019149D01*
X021569Y019083D01*
X021580Y019015D01*
X021580Y018720D01*
X021180Y018720D01*
X021180Y018640D01*
X021580Y018640D01*
X021580Y018345D01*
X021569Y018277D01*
X021548Y018211D01*
X021516Y018149D01*
X021488Y018110D01*
X022020Y018110D01*
X022068Y018130D01*
X022172Y018130D01*
X022267Y018090D01*
X022341Y018017D01*
X022380Y017922D01*
X022380Y017818D01*
X022360Y017770D01*
X027720Y017770D01*
X027700Y017818D01*
X027700Y017922D01*
X027724Y017980D01*
X024648Y017980D01*
X024627Y017960D01*
X024532Y017920D01*
X024428Y017920D01*
X024333Y017960D01*
X024260Y018033D01*
X024220Y018128D01*
X024220Y018220D01*
X024128Y018220D01*
X024033Y018260D01*
X023960Y018333D01*
X023920Y018428D01*
X023920Y018532D01*
X023960Y018627D01*
X024033Y018700D01*
X024128Y018740D01*
X024232Y018740D01*
X024327Y018700D01*
X024348Y018680D01*
X024550Y018680D01*
X024530Y018728D01*
X024530Y018832D01*
X024570Y018927D01*
X024643Y019000D01*
X024738Y019040D01*
X024842Y019040D01*
X024937Y019000D01*
X024958Y018980D01*
X030342Y018980D01*
X030363Y019000D01*
X030458Y019040D01*
X030562Y019040D01*
X030657Y019000D01*
X030730Y018927D01*
X030770Y018832D01*
X030770Y018728D01*
X030730Y018633D01*
X030657Y018560D01*
X030562Y018520D01*
X030458Y018520D01*
X030363Y018560D01*
X030342Y018580D01*
X029730Y018580D01*
X029750Y018532D01*
X029750Y018440D01*
X029842Y018440D01*
X029937Y018400D01*
X030010Y018327D01*
X030050Y018232D01*
X030050Y018136D01*
X030151Y018136D01*
X030247Y018096D01*
X030320Y018023D01*
X030360Y017928D01*
X030360Y017824D01*
X030320Y017729D01*
X030247Y017656D01*
X030151Y017616D01*
X030048Y017616D01*
X029952Y017656D01*
X029932Y017676D01*
X029448Y017676D01*
X029470Y017622D01*
X029470Y017518D01*
X029430Y017423D01*
X029357Y017350D01*
X029270Y017313D01*
X029270Y017218D01*
X029250Y017170D01*
X030484Y017170D01*
X030504Y017190D01*
X030600Y017230D01*
X030703Y017230D01*
X030799Y017190D01*
X030872Y017117D01*
X034022Y017117D01*
X034022Y017039D02*
X030905Y017039D01*
X030912Y017022D02*
X030872Y017117D01*
X030912Y017022D02*
X030912Y016918D01*
X030872Y016823D01*
X030799Y016750D01*
X030703Y016710D01*
X030600Y016710D01*
X030504Y016750D01*
X030484Y016770D01*
X028890Y016770D01*
X028890Y016738D01*
X028850Y016643D01*
X028777Y016570D01*
X028690Y016533D01*
X028690Y016438D01*
X028670Y016390D01*
X031442Y016390D01*
X031463Y016410D01*
X031558Y016450D01*
X031662Y016450D01*
X031757Y016410D01*
X031830Y016337D01*
X031870Y016242D01*
X031870Y016138D01*
X031841Y016069D01*
X031868Y016080D01*
X031972Y016080D01*
X032067Y016040D01*
X032140Y015967D01*
X032180Y015872D01*
X032180Y015768D01*
X032140Y015673D01*
X032067Y015600D01*
X031972Y015560D01*
X031868Y015560D01*
X031773Y015600D01*
X031752Y015620D01*
X031078Y015620D01*
X031057Y015600D01*
X030962Y015560D01*
X030858Y015560D01*
X030763Y015600D01*
X030690Y015673D01*
X030650Y015768D01*
X030650Y015872D01*
X030690Y015967D01*
X030712Y015990D01*
X028398Y015990D01*
X028377Y015970D01*
X028282Y015930D01*
X028178Y015930D01*
X028083Y015970D01*
X028010Y016043D01*
X027970Y016138D01*
X027970Y016242D01*
X027990Y016290D01*
X026298Y016290D01*
X026277Y016270D01*
X026182Y016230D01*
X026078Y016230D01*
X025983Y016270D01*
X025910Y016343D01*
X025870Y016438D01*
X025870Y016530D01*
X025778Y016530D01*
X025683Y016570D01*
X025610Y016643D01*
X025570Y016738D01*
X025570Y016842D01*
X025590Y016890D01*
X025313Y016890D01*
X025310Y016883D01*
X025237Y016810D01*
X025142Y016770D01*
X025038Y016770D01*
X024943Y016810D01*
X024870Y016883D01*
X024830Y016978D01*
X024830Y017082D01*
X024850Y017130D01*
X023820Y017130D01*
X023840Y017082D01*
X023840Y016990D01*
X023932Y016990D01*
X024027Y016950D01*
X024100Y016877D01*
X024140Y016782D01*
X024140Y016690D01*
X024232Y016690D01*
X024327Y016650D01*
X024400Y016577D01*
X024440Y016482D01*
X024440Y016378D01*
X024400Y016283D01*
X024368Y016250D01*
X024410Y016207D01*
X024450Y016112D01*
X024450Y016020D01*
X024542Y016020D01*
X024637Y015980D01*
X024710Y015907D01*
X024750Y015812D01*
X024750Y015720D01*
X024842Y015720D01*
X024937Y015680D01*
X025010Y015607D01*
X025050Y015512D01*
X025050Y015408D01*
X025010Y015313D01*
X024937Y015240D01*
X024914Y015230D01*
X026192Y015230D01*
X026253Y015290D01*
X026348Y015330D01*
X026452Y015330D01*
X026547Y015290D01*
X026620Y015217D01*
X026660Y015122D01*
X026660Y015018D01*
X026628Y014941D01*
X033282Y014941D01*
X033302Y014961D01*
X033398Y015001D01*
X033501Y015001D01*
X033597Y014961D01*
X033670Y014888D01*
X033709Y014792D01*
X033709Y014689D01*
X033670Y014593D01*
X033597Y014520D01*
X033501Y014481D01*
X033398Y014481D01*
X033302Y014520D01*
X033282Y014541D01*
X032626Y014541D01*
X032829Y014457D01*
X032987Y014299D01*
X033072Y014092D01*
X033072Y013868D01*
X032987Y013661D01*
X032829Y013503D01*
X032622Y013418D01*
X032398Y013418D01*
X032191Y013503D01*
X032033Y013661D01*
X031948Y013868D01*
X031948Y014092D01*
X032033Y014299D01*
X032191Y014457D01*
X032394Y014541D01*
X025604Y014541D01*
X025677Y014510D01*
X025750Y014437D01*
X025790Y014342D01*
X025790Y014238D01*
X025750Y014143D01*
X025677Y014070D01*
X025582Y014030D01*
X025478Y014030D01*
X025383Y014070D01*
X025362Y014090D01*
X024658Y014090D01*
X024637Y014070D01*
X024542Y014030D01*
X024438Y014030D01*
X024343Y014070D01*
X024270Y014143D01*
X024230Y014238D01*
X024230Y014342D01*
X024270Y014437D01*
X024343Y014510D01*
X024416Y014541D01*
X007013Y014541D01*
X007013Y014159D01*
X006943Y014089D01*
X005781Y014089D01*
X005710Y014159D01*
X005710Y015322D01*
X005781Y015392D01*
X006943Y015392D01*
X007013Y015322D01*
X007013Y014941D01*
X023012Y014941D01*
X022999Y014971D01*
X022600Y015370D01*
X019942Y015370D01*
X019854Y015407D01*
X019787Y015474D01*
X019721Y015540D01*
X017942Y015540D01*
X017854Y015577D01*
X017787Y015644D01*
X017531Y015900D01*
X016780Y015900D01*
X016761Y015892D01*
X016811Y015871D01*
X016901Y015781D01*
X016950Y015664D01*
X016950Y015536D01*
X016901Y015419D01*
X016811Y015329D01*
X016694Y015280D01*
X012141Y015280D01*
X012059Y015198D01*
X011884Y015126D01*
X011695Y015126D01*
X011521Y015198D01*
X011388Y015331D01*
X011316Y015506D01*
X011316Y015694D01*
X011388Y015869D01*
X011521Y016002D01*
X011695Y016074D01*
X011884Y016074D01*
X012059Y016002D01*
X012141Y015920D01*
X016532Y015920D01*
X016460Y015993D01*
X016420Y016088D01*
X016420Y016192D01*
X016440Y016240D01*
X007013Y016240D01*
X007013Y015813D01*
X006943Y015743D01*
X005781Y015743D01*
X005710Y015813D01*
X005710Y016975D01*
X005781Y017046D01*
X006943Y017046D01*
X007013Y016975D01*
X007013Y016640D01*
X007250Y016640D01*
X007230Y016688D01*
X007230Y016792D01*
X007270Y016887D01*
X007343Y016960D01*
X007438Y017000D01*
X007542Y017000D01*
X007637Y016960D01*
X007698Y016900D01*
X009108Y016900D01*
X009169Y016960D01*
X009264Y017000D01*
X009368Y017000D01*
X009416Y016980D01*
X015932Y016980D01*
X015920Y016993D01*
X015880Y017088D01*
X015880Y017192D01*
X015900Y017240D01*
X009057Y017240D01*
X008940Y017357D01*
X008940Y018008D01*
X008902Y018024D01*
X008784Y018142D01*
X008720Y018296D01*
X008720Y019064D01*
X008772Y019190D01*
X008508Y019190D01*
X008560Y019064D01*
X008560Y018296D01*
X008496Y018142D01*
X008378Y018024D01*
X008224Y017960D01*
X008056Y017960D01*
X007902Y018024D01*
X007784Y018142D01*
X007720Y018296D01*
X007720Y019064D01*
X007772Y019190D01*
X007508Y019190D01*
X007560Y019064D01*
X007560Y018296D01*
X007496Y018142D01*
X007378Y018024D01*
X007224Y017960D01*
X007056Y017960D01*
X006902Y018024D01*
X006784Y018142D01*
X006720Y018296D01*
X006720Y019064D01*
X006772Y019190D01*
X006527Y019190D01*
X006548Y019149D01*
X006569Y019083D01*
X006580Y019015D01*
X006580Y018720D01*
X006180Y018720D01*
X006180Y018640D01*
X006580Y018640D01*
X006580Y018345D01*
X006569Y018277D01*
X006548Y018211D01*
X006516Y018149D01*
X006476Y018093D01*
X006427Y018044D01*
X006371Y018004D01*
X006309Y017972D01*
X006243Y017951D01*
X006180Y017941D01*
X006180Y018640D01*
X006100Y018640D01*
X006100Y017941D01*
X006037Y017951D01*
X005971Y017972D01*
X005909Y018004D01*
X005853Y018044D01*
X005804Y018093D01*
X005764Y018149D01*
X005732Y018211D01*
X005711Y018277D01*
X005700Y018345D01*
X005700Y018640D01*
X006100Y018640D01*
X006100Y018720D01*
X005700Y018720D01*
X005700Y019015D01*
X005711Y019083D01*
X005732Y019149D01*
X005753Y019190D01*
X004931Y019190D01*
X004987Y019093D01*
X005060Y018821D01*
X005060Y018539D01*
X004987Y018267D01*
X004846Y018023D01*
X004647Y017824D01*
X004403Y017683D01*
X004131Y017610D01*
X003849Y017610D01*
X003577Y017683D01*
X003420Y017774D01*
X003420Y007416D01*
X003577Y007507D01*
X003849Y007580D01*
X004131Y007580D01*
X004403Y007507D01*
X004647Y007366D01*
X004846Y007167D01*
X004987Y006923D01*
X005060Y006651D01*
X005060Y006369D01*
X004987Y006097D01*
X004995Y006127D02*
X017590Y006127D01*
X017512Y006206D02*
X005016Y006206D01*
X005037Y006284D02*
X017433Y006284D01*
X017355Y006363D02*
X005058Y006363D01*
X005060Y006441D02*
X015665Y006441D01*
X015672Y006434D02*
X015826Y006370D01*
X015994Y006370D01*
X016148Y006434D01*
X016266Y006552D01*
X016330Y006706D01*
X016330Y007474D01*
X016266Y007628D01*
X016148Y007746D01*
X015994Y007810D01*
X015826Y007810D01*
X015672Y007746D01*
X015554Y007628D01*
X015490Y007474D01*
X015490Y006706D01*
X015554Y006552D01*
X015672Y006434D01*
X015587Y006520D02*
X005060Y006520D01*
X005060Y006598D02*
X015535Y006598D01*
X015502Y006677D02*
X005053Y006677D01*
X005032Y006755D02*
X015490Y006755D01*
X015490Y006834D02*
X005011Y006834D01*
X004990Y006912D02*
X015490Y006912D01*
X015490Y006991D02*
X004948Y006991D01*
X004903Y007069D02*
X015490Y007069D01*
X015490Y007148D02*
X004857Y007148D01*
X004787Y007226D02*
X015490Y007226D01*
X015490Y007305D02*
X004709Y007305D01*
X004618Y007383D02*
X015490Y007383D01*
X015490Y007462D02*
X004482Y007462D01*
X004280Y007540D02*
X015518Y007540D01*
X015550Y007619D02*
X003420Y007619D01*
X003420Y007697D02*
X015623Y007697D01*
X015743Y007776D02*
X003420Y007776D01*
X003420Y007854D02*
X028431Y007854D01*
X028353Y007776D02*
X028117Y007776D01*
X028237Y007697D02*
X028274Y007697D01*
X028510Y007933D02*
X003420Y007933D01*
X003420Y008011D02*
X028588Y008011D01*
X029310Y007619D02*
X030837Y007619D01*
X031078Y007619D02*
X034022Y007619D01*
X034022Y007697D02*
X031172Y007697D01*
X031208Y007776D02*
X034022Y007776D01*
X034022Y007854D02*
X031217Y007854D01*
X031205Y007933D02*
X034022Y007933D01*
X034022Y008011D02*
X031164Y008011D01*
X031059Y008090D02*
X034022Y008090D01*
X034022Y008168D02*
X003420Y008168D01*
X003420Y008090D02*
X030856Y008090D01*
X030493Y008744D02*
X030513Y008764D01*
X031418Y008764D01*
X031443Y008740D01*
X031538Y008700D01*
X031642Y008700D01*
X031737Y008740D01*
X031810Y008813D01*
X031834Y008869D01*
X031846Y008881D01*
X031846Y008889D01*
X031851Y008896D01*
X031850Y008915D01*
X031850Y009012D01*
X031846Y009021D01*
X031846Y009047D01*
X031840Y009053D01*
X031840Y009061D01*
X031824Y009074D01*
X031810Y009107D01*
X031737Y009180D01*
X031642Y009220D01*
X031538Y009220D01*
X031443Y009180D01*
X031426Y009164D01*
X030513Y009164D01*
X030493Y009184D01*
X030397Y009224D01*
X030294Y009224D01*
X030198Y009184D01*
X030125Y009111D01*
X030086Y009016D01*
X030086Y008912D01*
X030125Y008817D01*
X030198Y008744D01*
X030294Y008704D01*
X030397Y008704D01*
X030493Y008744D01*
X030430Y008718D02*
X031496Y008718D01*
X031684Y008718D02*
X034022Y008718D01*
X034022Y008796D02*
X031794Y008796D01*
X031839Y008875D02*
X034022Y008875D01*
X034022Y008953D02*
X031850Y008953D01*
X031846Y009032D02*
X034022Y009032D01*
X034022Y009110D02*
X031808Y009110D01*
X031718Y009189D02*
X034022Y009189D01*
X034022Y009267D02*
X029001Y009267D01*
X029007Y009270D02*
X029080Y009343D01*
X029120Y009438D01*
X029120Y009542D01*
X029080Y009637D01*
X029007Y009710D01*
X028912Y009750D01*
X028814Y009750D01*
X028814Y009846D01*
X028792Y009900D01*
X028952Y009900D01*
X028973Y009880D01*
X029068Y009840D01*
X029172Y009840D01*
X029267Y009880D01*
X029340Y009953D01*
X029380Y010048D01*
X029380Y010140D01*
X029424Y010140D01*
X029519Y010180D01*
X029592Y010253D01*
X029632Y010348D01*
X029632Y010440D01*
X029722Y010440D01*
X029817Y010480D01*
X029890Y010553D01*
X029930Y010648D01*
X029930Y010752D01*
X029893Y010840D01*
X031442Y010840D01*
X031463Y010820D01*
X031558Y010780D01*
X031662Y010780D01*
X031757Y010820D01*
X031830Y010893D01*
X031870Y010988D01*
X031870Y011092D01*
X031830Y011187D01*
X031757Y011260D01*
X031662Y011300D01*
X031558Y011300D01*
X031463Y011260D01*
X031442Y011240D01*
X025630Y011240D01*
X025650Y011288D01*
X025650Y011392D01*
X025610Y011487D01*
X025537Y011560D01*
X025442Y011600D01*
X025338Y011600D01*
X025243Y011560D01*
X025222Y011540D01*
X008713Y011540D01*
X008670Y011583D01*
X008670Y011612D01*
X008630Y011707D01*
X008557Y011780D01*
X008462Y011820D01*
X008358Y011820D01*
X008263Y011780D01*
X008190Y011707D01*
X008150Y011612D01*
X008150Y011508D01*
X008190Y011413D01*
X008263Y011340D01*
X008358Y011300D01*
X008387Y011300D01*
X008430Y011257D01*
X008547Y011140D01*
X010210Y011140D01*
X010190Y011092D01*
X010190Y010988D01*
X010230Y010893D01*
X010303Y010820D01*
X010398Y010780D01*
X010502Y010780D01*
X010550Y010800D01*
X015670Y010800D01*
X015650Y010752D01*
X015650Y010648D01*
X015690Y010553D01*
X015763Y010480D01*
X015858Y010440D01*
X015962Y010440D01*
X016057Y010480D01*
X016078Y010500D01*
X023413Y010500D01*
X023753Y010840D01*
X023957Y010840D01*
X023920Y010752D01*
X023920Y010660D01*
X023828Y010660D01*
X023733Y010620D01*
X023660Y010547D01*
X023620Y010452D01*
X023620Y010400D01*
X023528Y010400D01*
X023433Y010360D01*
X023360Y010287D01*
X023320Y010192D01*
X023320Y010088D01*
X023348Y010021D01*
X023323Y010010D01*
X023250Y009937D01*
X023210Y009842D01*
X023210Y009738D01*
X018991Y009738D01*
X018962Y009750D02*
X018858Y009750D01*
X018763Y009710D01*
X018690Y009637D01*
X018650Y009542D01*
X018650Y009438D01*
X018670Y009390D01*
X007423Y009390D01*
X007390Y009423D01*
X007390Y009603D01*
X007090Y009903D01*
X006983Y010009D01*
X007043Y010069D01*
X007043Y011232D01*
X006973Y011302D01*
X005811Y011302D01*
X005740Y011232D01*
X005740Y010069D01*
X005790Y010020D01*
X005140Y010020D01*
X004878Y010282D01*
X004878Y011232D01*
X004808Y011302D01*
X003645Y011302D01*
X003575Y011232D01*
X003575Y010069D01*
X003645Y009999D01*
X004595Y009999D01*
X004974Y009620D01*
X005782Y009620D01*
X005740Y009578D01*
X005740Y008416D01*
X005811Y008346D01*
X006973Y008346D01*
X007043Y008416D01*
X007043Y009204D01*
X007107Y009140D01*
X007257Y008990D01*
X024250Y008990D01*
X024230Y008942D01*
X024230Y008838D01*
X024270Y008743D01*
X024343Y008670D01*
X024438Y008630D01*
X024542Y008630D01*
X024637Y008670D01*
X024658Y008690D01*
X026272Y008690D01*
X026293Y008670D01*
X026388Y008630D01*
X026492Y008630D01*
X026587Y008670D01*
X026660Y008743D01*
X026700Y008838D01*
X026700Y008942D01*
X026680Y008990D01*
X028082Y008990D01*
X028103Y008970D01*
X028198Y008930D01*
X028302Y008930D01*
X028397Y008970D01*
X028470Y009043D01*
X028510Y009138D01*
X028510Y009242D01*
X028490Y009290D01*
X028692Y009290D01*
X028713Y009270D01*
X028808Y009230D01*
X028912Y009230D01*
X029007Y009270D01*
X029082Y009346D02*
X034022Y009346D01*
X034022Y009424D02*
X029114Y009424D01*
X029120Y009503D02*
X034022Y009503D01*
X034022Y009581D02*
X029104Y009581D01*
X029058Y009660D02*
X034022Y009660D01*
X034022Y009738D02*
X028941Y009738D01*
X028814Y009817D02*
X034022Y009817D01*
X034022Y009895D02*
X029283Y009895D01*
X029349Y009974D02*
X034022Y009974D01*
X034022Y010052D02*
X029380Y010052D01*
X029380Y010131D02*
X034022Y010131D01*
X034022Y010209D02*
X029549Y010209D01*
X029607Y010288D02*
X034022Y010288D01*
X034022Y010366D02*
X029632Y010366D01*
X029733Y010445D02*
X034022Y010445D01*
X034022Y010523D02*
X029861Y010523D01*
X029911Y010602D02*
X034022Y010602D01*
X034022Y010680D02*
X032676Y010680D01*
X032622Y010658D02*
X032398Y010658D01*
X032191Y010743D01*
X032033Y010901D01*
X031948Y011108D01*
X031948Y011332D01*
X032033Y011539D01*
X032145Y011650D01*
X032088Y011650D01*
X032067Y011630D01*
X031972Y011590D01*
X031868Y011590D01*
X031773Y011630D01*
X031700Y011703D01*
X031660Y011798D01*
X031660Y011902D01*
X031700Y011997D01*
X031773Y012070D01*
X031868Y012110D01*
X031972Y012110D01*
X032067Y012070D01*
X032088Y012050D01*
X033236Y012050D01*
X033316Y012130D01*
X033664Y012130D01*
X033910Y011884D01*
X033910Y011536D01*
X033664Y011290D01*
X033316Y011290D01*
X033070Y011536D01*
X033070Y011650D01*
X032875Y011650D01*
X032987Y011539D01*
X033072Y011332D01*
X033072Y011108D01*
X032987Y010901D01*
X032829Y010743D01*
X032622Y010658D01*
X032844Y010759D02*
X034022Y010759D01*
X034022Y010837D02*
X032923Y010837D01*
X032993Y010916D02*
X034022Y010916D01*
X034022Y010994D02*
X033025Y010994D01*
X033058Y011073D02*
X034022Y011073D01*
X034022Y011151D02*
X033072Y011151D01*
X033072Y011230D02*
X034022Y011230D01*
X034022Y011308D02*
X033682Y011308D01*
X033761Y011387D02*
X034022Y011387D01*
X034022Y011465D02*
X033839Y011465D01*
X033910Y011544D02*
X034022Y011544D01*
X034022Y011622D02*
X033910Y011622D01*
X033910Y011701D02*
X034022Y011701D01*
X034022Y011779D02*
X033910Y011779D01*
X033910Y011858D02*
X034022Y011858D01*
X034022Y011936D02*
X033858Y011936D01*
X033779Y012015D02*
X034022Y012015D01*
X034022Y012093D02*
X033701Y012093D01*
X034022Y012172D02*
X027740Y012172D01*
X027740Y012212D02*
X027700Y012307D01*
X027627Y012380D01*
X027532Y012420D01*
X027428Y012420D01*
X027333Y012380D01*
X027312Y012360D01*
X025858Y012360D01*
X025910Y012413D01*
X025950Y012508D01*
X025950Y012612D01*
X025910Y012707D01*
X025837Y012780D01*
X025742Y012820D01*
X025638Y012820D01*
X025543Y012780D01*
X025522Y012760D01*
X025330Y012760D01*
X025350Y012808D01*
X025350Y012912D01*
X025330Y012960D01*
X025727Y012960D01*
X025930Y012757D01*
X025930Y012728D01*
X025970Y012633D01*
X026043Y012560D01*
X026138Y012520D01*
X026242Y012520D01*
X026337Y012560D01*
X026410Y012633D01*
X026450Y012728D01*
X026450Y012832D01*
X026410Y012927D01*
X026337Y013000D01*
X026242Y013040D01*
X026213Y013040D01*
X025893Y013360D01*
X008601Y013360D01*
X008484Y013243D01*
X008361Y013120D01*
X008332Y013120D01*
X008237Y013080D01*
X008216Y013060D01*
X008153Y013060D01*
X007970Y013243D01*
X007853Y013360D01*
X004999Y013360D01*
X004595Y012956D01*
X003645Y012956D01*
X003575Y012885D01*
X003575Y011723D01*
X003645Y011653D01*
X004808Y011653D01*
X004878Y011723D01*
X004878Y012673D01*
X005165Y012960D01*
X007396Y012960D01*
X007376Y012912D01*
X007376Y012808D01*
X007416Y012713D01*
X007489Y012640D01*
X007584Y012600D01*
X007613Y012600D01*
X007746Y012467D01*
X007863Y012350D01*
X008949Y012350D01*
X009066Y012467D01*
X009199Y012600D01*
X009228Y012600D01*
X009323Y012640D01*
X009396Y012713D01*
X009436Y012808D01*
X009436Y012912D01*
X009416Y012960D01*
X013134Y012960D01*
X013114Y012912D01*
X013114Y012808D01*
X013134Y012760D01*
X010918Y012760D01*
X010897Y012780D01*
X010802Y012820D01*
X010698Y012820D01*
X010603Y012780D01*
X010530Y012707D01*
X010490Y012612D01*
X010490Y012508D01*
X010530Y012413D01*
X010582Y012360D01*
X010578Y012360D01*
X010557Y012380D01*
X010462Y012420D01*
X010358Y012420D01*
X010263Y012380D01*
X010190Y012307D01*
X010150Y012212D01*
X010150Y012108D01*
X010190Y012013D01*
X010263Y011940D01*
X010358Y011900D01*
X010462Y011900D01*
X010557Y011940D01*
X010578Y011960D01*
X027312Y011960D01*
X027333Y011940D01*
X027428Y011900D01*
X027532Y011900D01*
X027627Y011940D01*
X027700Y012013D01*
X027740Y012108D01*
X027740Y012212D01*
X027724Y012250D02*
X034022Y012250D01*
X034022Y012329D02*
X027679Y012329D01*
X027563Y012407D02*
X034022Y012407D01*
X034022Y012486D02*
X025941Y012486D01*
X025950Y012564D02*
X026038Y012564D01*
X025966Y012643D02*
X025937Y012643D01*
X025933Y012721D02*
X025897Y012721D01*
X025888Y012800D02*
X025791Y012800D01*
X025809Y012878D02*
X025350Y012878D01*
X025346Y012800D02*
X025589Y012800D01*
X025731Y012957D02*
X025331Y012957D01*
X025904Y013349D02*
X033050Y013349D01*
X033050Y013308D02*
X033308Y013050D01*
X033450Y013050D01*
X033450Y013450D01*
X033050Y013450D01*
X033050Y013308D01*
X033087Y013271D02*
X025982Y013271D01*
X026061Y013192D02*
X033166Y013192D01*
X033244Y013114D02*
X026139Y013114D01*
X026254Y013035D02*
X034022Y013035D01*
X034022Y012957D02*
X026381Y012957D01*
X026431Y012878D02*
X034022Y012878D01*
X034022Y012800D02*
X026450Y012800D01*
X026447Y012721D02*
X034022Y012721D01*
X034022Y012643D02*
X026414Y012643D01*
X026342Y012564D02*
X034022Y012564D01*
X034022Y013114D02*
X033736Y013114D01*
X033672Y013050D02*
X033930Y013308D01*
X033930Y013450D01*
X033530Y013450D01*
X033530Y013530D01*
X033450Y013530D01*
X033450Y013930D01*
X033308Y013930D01*
X033050Y013672D01*
X033050Y013530D01*
X033450Y013530D01*
X033450Y013450D01*
X033530Y013450D01*
X033530Y013050D01*
X033672Y013050D01*
X033530Y013114D02*
X033450Y013114D01*
X033450Y013192D02*
X033530Y013192D01*
X033530Y013271D02*
X033450Y013271D01*
X033450Y013349D02*
X033530Y013349D01*
X033530Y013428D02*
X033450Y013428D01*
X033450Y013506D02*
X032832Y013506D01*
X032910Y013585D02*
X033050Y013585D01*
X033050Y013663D02*
X032988Y013663D01*
X033020Y013742D02*
X033119Y013742D01*
X033053Y013820D02*
X033198Y013820D01*
X033276Y013899D02*
X033072Y013899D01*
X033072Y013977D02*
X034022Y013977D01*
X034022Y013899D02*
X033704Y013899D01*
X033672Y013930D02*
X033530Y013930D01*
X033530Y013530D01*
X033930Y013530D01*
X033930Y013672D01*
X033672Y013930D01*
X033530Y013899D02*
X033450Y013899D01*
X033450Y013820D02*
X033530Y013820D01*
X033530Y013742D02*
X033450Y013742D01*
X033450Y013663D02*
X033530Y013663D01*
X033530Y013585D02*
X033450Y013585D01*
X033530Y013506D02*
X034022Y013506D01*
X034022Y013428D02*
X033930Y013428D01*
X033930Y013349D02*
X034022Y013349D01*
X034022Y013271D02*
X033893Y013271D01*
X033814Y013192D02*
X034022Y013192D01*
X034022Y013585D02*
X033930Y013585D01*
X033930Y013663D02*
X034022Y013663D01*
X034022Y013742D02*
X033861Y013742D01*
X033782Y013820D02*
X034022Y013820D01*
X034022Y014056D02*
X033072Y014056D01*
X033055Y014134D02*
X034022Y014134D01*
X034022Y014213D02*
X033023Y014213D01*
X032990Y014291D02*
X034022Y014291D01*
X034022Y014370D02*
X032916Y014370D01*
X032837Y014448D02*
X034022Y014448D01*
X034022Y014527D02*
X033603Y014527D01*
X033675Y014605D02*
X034022Y014605D01*
X034022Y014684D02*
X033707Y014684D01*
X033709Y014762D02*
X034022Y014762D01*
X034022Y014841D02*
X033689Y014841D01*
X033639Y014919D02*
X034022Y014919D01*
X034022Y014998D02*
X033509Y014998D01*
X033390Y014998D02*
X026651Y014998D01*
X026660Y015076D02*
X034022Y015076D01*
X034022Y015155D02*
X026646Y015155D01*
X026605Y015233D02*
X034022Y015233D01*
X034022Y015312D02*
X026496Y015312D01*
X026304Y015312D02*
X025009Y015312D01*
X025042Y015390D02*
X034022Y015390D01*
X034022Y015469D02*
X025050Y015469D01*
X025035Y015547D02*
X034022Y015547D01*
X034022Y015626D02*
X032093Y015626D01*
X032153Y015704D02*
X034022Y015704D01*
X034022Y015783D02*
X032180Y015783D01*
X032180Y015861D02*
X034022Y015861D01*
X034022Y015940D02*
X032152Y015940D01*
X032090Y016018D02*
X034022Y016018D01*
X034022Y016097D02*
X031853Y016097D01*
X031870Y016175D02*
X034022Y016175D01*
X034022Y016254D02*
X031865Y016254D01*
X031833Y016332D02*
X034022Y016332D01*
X034022Y016411D02*
X031757Y016411D01*
X031463Y016411D02*
X028679Y016411D01*
X028690Y016489D02*
X034022Y016489D01*
X034022Y016568D02*
X028772Y016568D01*
X028852Y016646D02*
X034022Y016646D01*
X034022Y016725D02*
X030738Y016725D01*
X030852Y016803D02*
X034022Y016803D01*
X034022Y016882D02*
X030896Y016882D01*
X030912Y016960D02*
X034022Y016960D01*
X034022Y017196D02*
X030786Y017196D01*
X030517Y017196D02*
X029261Y017196D01*
X029270Y017274D02*
X034022Y017274D01*
X034022Y017353D02*
X029360Y017353D01*
X029434Y017431D02*
X034022Y017431D01*
X034022Y017510D02*
X029466Y017510D01*
X029470Y017588D02*
X034022Y017588D01*
X034022Y017667D02*
X033842Y017667D01*
X034010Y017745D02*
X034022Y017745D01*
X033138Y017667D02*
X030258Y017667D01*
X030327Y017745D02*
X032970Y017745D01*
X032834Y017824D02*
X030359Y017824D01*
X030360Y017902D02*
X032755Y017902D01*
X032676Y017981D02*
X030338Y017981D01*
X030284Y018059D02*
X032613Y018059D01*
X032568Y018138D02*
X030050Y018138D01*
X030050Y018216D02*
X032522Y018216D01*
X032486Y018295D02*
X030024Y018295D01*
X029965Y018373D02*
X032465Y018373D01*
X032444Y018452D02*
X029750Y018452D01*
X029750Y018530D02*
X030434Y018530D01*
X030586Y018530D02*
X032423Y018530D01*
X032420Y018609D02*
X030706Y018609D01*
X030753Y018687D02*
X032420Y018687D01*
X032420Y018766D02*
X030770Y018766D01*
X030765Y018844D02*
X032426Y018844D01*
X032447Y018923D02*
X030732Y018923D01*
X030656Y019001D02*
X032468Y019001D01*
X032489Y019080D02*
X021570Y019080D01*
X021580Y019001D02*
X024644Y019001D01*
X024568Y018923D02*
X021580Y018923D01*
X021580Y018844D02*
X024535Y018844D01*
X024530Y018766D02*
X021580Y018766D01*
X021580Y018609D02*
X023952Y018609D01*
X023920Y018530D02*
X021580Y018530D01*
X021580Y018452D02*
X023920Y018452D01*
X023943Y018373D02*
X021580Y018373D01*
X021572Y018295D02*
X023998Y018295D01*
X024220Y018216D02*
X021549Y018216D01*
X021508Y018138D02*
X024220Y018138D01*
X024249Y018059D02*
X022299Y018059D01*
X022356Y017981D02*
X024312Y017981D01*
X024341Y018687D02*
X024547Y018687D01*
X024936Y019001D02*
X030364Y019001D01*
X029942Y017667D02*
X029451Y017667D01*
X027700Y017824D02*
X022380Y017824D01*
X022380Y017902D02*
X027700Y017902D01*
X028884Y016725D02*
X030565Y016725D01*
X030678Y015940D02*
X028305Y015940D01*
X028155Y015940D02*
X024678Y015940D01*
X024730Y015861D02*
X030650Y015861D01*
X030650Y015783D02*
X024750Y015783D01*
X024880Y015704D02*
X030677Y015704D01*
X030737Y015626D02*
X024992Y015626D01*
X024921Y015233D02*
X026195Y015233D01*
X026400Y015070D02*
X023240Y015070D01*
X022973Y014998D02*
X007013Y014998D01*
X007013Y015076D02*
X022894Y015076D01*
X022816Y015155D02*
X011954Y015155D01*
X012094Y015233D02*
X022737Y015233D01*
X022659Y015312D02*
X016770Y015312D01*
X016873Y015390D02*
X019894Y015390D01*
X019792Y015469D02*
X016922Y015469D01*
X016950Y015547D02*
X017925Y015547D01*
X017805Y015626D02*
X016950Y015626D01*
X016933Y015704D02*
X017727Y015704D01*
X017648Y015783D02*
X016900Y015783D01*
X016822Y015861D02*
X017570Y015861D01*
X016513Y015940D02*
X012121Y015940D01*
X012020Y016018D02*
X016449Y016018D01*
X016420Y016097D02*
X007013Y016097D01*
X007013Y016175D02*
X016420Y016175D01*
X015901Y017039D02*
X006950Y017039D01*
X007013Y016960D02*
X007342Y016960D01*
X007267Y016882D02*
X007013Y016882D01*
X007013Y016803D02*
X007235Y016803D01*
X007230Y016725D02*
X007013Y016725D01*
X007013Y016646D02*
X007247Y016646D01*
X007490Y016740D02*
X009316Y016740D01*
X009168Y016960D02*
X007638Y016960D01*
X007273Y017981D02*
X008007Y017981D01*
X007867Y018059D02*
X007413Y018059D01*
X007492Y018138D02*
X007788Y018138D01*
X007753Y018216D02*
X007527Y018216D01*
X007559Y018295D02*
X007721Y018295D01*
X007720Y018373D02*
X007560Y018373D01*
X007560Y018452D02*
X007720Y018452D01*
X007720Y018530D02*
X007560Y018530D01*
X007560Y018609D02*
X007720Y018609D01*
X007720Y018687D02*
X007560Y018687D01*
X007560Y018766D02*
X007720Y018766D01*
X007720Y018844D02*
X007560Y018844D01*
X007560Y018923D02*
X007720Y018923D01*
X007720Y019001D02*
X007560Y019001D01*
X007553Y019080D02*
X007727Y019080D01*
X007759Y019158D02*
X007521Y019158D01*
X006759Y019158D02*
X006543Y019158D01*
X006570Y019080D02*
X006727Y019080D01*
X006720Y019001D02*
X006580Y019001D01*
X006580Y018923D02*
X006720Y018923D01*
X006720Y018844D02*
X006580Y018844D01*
X006580Y018766D02*
X006720Y018766D01*
X006720Y018687D02*
X006180Y018687D01*
X006180Y018609D02*
X006100Y018609D01*
X006100Y018687D02*
X005060Y018687D01*
X005060Y018609D02*
X005700Y018609D01*
X005700Y018530D02*
X005057Y018530D01*
X005036Y018452D02*
X005700Y018452D01*
X005700Y018373D02*
X005015Y018373D01*
X004994Y018295D02*
X005708Y018295D01*
X005731Y018216D02*
X004958Y018216D01*
X004912Y018138D02*
X005772Y018138D01*
X005839Y018059D02*
X004867Y018059D01*
X004804Y017981D02*
X005955Y017981D01*
X006100Y017981D02*
X006180Y017981D01*
X006180Y018059D02*
X006100Y018059D01*
X006100Y018138D02*
X006180Y018138D01*
X006180Y018216D02*
X006100Y018216D01*
X006100Y018295D02*
X006180Y018295D01*
X006180Y018373D02*
X006100Y018373D01*
X006100Y018452D02*
X006180Y018452D01*
X006180Y018530D02*
X006100Y018530D01*
X005700Y018766D02*
X005060Y018766D01*
X005054Y018844D02*
X005700Y018844D01*
X005700Y018923D02*
X005033Y018923D01*
X005012Y019001D02*
X005700Y019001D01*
X005710Y019080D02*
X004991Y019080D01*
X004949Y019158D02*
X005737Y019158D01*
X006580Y018609D02*
X006720Y018609D01*
X006720Y018530D02*
X006580Y018530D01*
X006580Y018452D02*
X006720Y018452D01*
X006720Y018373D02*
X006580Y018373D01*
X006572Y018295D02*
X006721Y018295D01*
X006753Y018216D02*
X006549Y018216D01*
X006508Y018138D02*
X006788Y018138D01*
X006867Y018059D02*
X006441Y018059D01*
X006325Y017981D02*
X007007Y017981D01*
X008273Y017981D02*
X008940Y017981D01*
X008940Y017902D02*
X004725Y017902D01*
X004646Y017824D02*
X008940Y017824D01*
X008940Y017745D02*
X004510Y017745D01*
X004342Y017667D02*
X008940Y017667D01*
X008940Y017588D02*
X003420Y017588D01*
X003420Y017510D02*
X008940Y017510D01*
X008940Y017431D02*
X003420Y017431D01*
X003420Y017353D02*
X008945Y017353D01*
X009023Y017274D02*
X003420Y017274D01*
X003420Y017196D02*
X015882Y017196D01*
X015880Y017117D02*
X003420Y017117D01*
X003420Y017039D02*
X003580Y017039D01*
X003579Y017038D02*
X003553Y017012D01*
X003535Y016980D01*
X003525Y016944D01*
X003525Y016434D01*
X004156Y016434D01*
X004156Y016354D01*
X003525Y016354D01*
X003525Y015844D01*
X003535Y015809D01*
X003553Y015777D01*
X003579Y015751D01*
X003611Y015732D01*
X003647Y015723D01*
X004156Y015723D01*
X004156Y016354D01*
X004236Y016354D01*
X004236Y015723D01*
X004746Y015723D01*
X004782Y015732D01*
X004814Y015751D01*
X004840Y015777D01*
X004858Y015809D01*
X004868Y015844D01*
X004868Y016354D01*
X004236Y016354D01*
X004236Y016434D01*
X004156Y016434D01*
X004156Y017066D01*
X003647Y017066D01*
X003611Y017056D01*
X003579Y017038D01*
X003529Y016960D02*
X003420Y016960D01*
X003420Y016882D02*
X003525Y016882D01*
X003525Y016803D02*
X003420Y016803D01*
X003420Y016725D02*
X003525Y016725D01*
X003525Y016646D02*
X003420Y016646D01*
X003420Y016568D02*
X003525Y016568D01*
X003525Y016489D02*
X003420Y016489D01*
X003420Y016411D02*
X004156Y016411D01*
X004156Y016489D02*
X004236Y016489D01*
X004236Y016434D02*
X004236Y017066D01*
X004746Y017066D01*
X004782Y017056D01*
X004814Y017038D01*
X004840Y017012D01*
X004858Y016980D01*
X004868Y016944D01*
X004868Y016434D01*
X004236Y016434D01*
X004236Y016411D02*
X005710Y016411D01*
X005710Y016489D02*
X004868Y016489D01*
X004868Y016568D02*
X005710Y016568D01*
X005710Y016646D02*
X004868Y016646D01*
X004868Y016725D02*
X005710Y016725D01*
X005710Y016803D02*
X004868Y016803D01*
X004868Y016882D02*
X005710Y016882D01*
X005710Y016960D02*
X004864Y016960D01*
X004812Y017039D02*
X005773Y017039D01*
X005710Y016332D02*
X004868Y016332D01*
X004868Y016254D02*
X005710Y016254D01*
X005710Y016175D02*
X004868Y016175D01*
X004868Y016097D02*
X005710Y016097D01*
X005710Y016018D02*
X004868Y016018D01*
X004868Y015940D02*
X005710Y015940D01*
X005710Y015861D02*
X004868Y015861D01*
X004843Y015783D02*
X005741Y015783D01*
X005779Y015390D02*
X004780Y015390D01*
X004778Y015392D02*
X004848Y015322D01*
X004848Y014159D01*
X004778Y014089D01*
X003615Y014089D01*
X003545Y014159D01*
X003545Y015322D01*
X003615Y015392D01*
X004778Y015392D01*
X004848Y015312D02*
X005710Y015312D01*
X005710Y015233D02*
X004848Y015233D01*
X004848Y015155D02*
X005710Y015155D01*
X005710Y015076D02*
X004848Y015076D01*
X004848Y014998D02*
X005710Y014998D01*
X005710Y014919D02*
X004848Y014919D01*
X004848Y014841D02*
X005710Y014841D01*
X005710Y014762D02*
X004848Y014762D01*
X004848Y014684D02*
X005710Y014684D01*
X005710Y014605D02*
X004848Y014605D01*
X004848Y014527D02*
X005710Y014527D01*
X005710Y014448D02*
X004848Y014448D01*
X004848Y014370D02*
X005710Y014370D01*
X005710Y014291D02*
X004848Y014291D01*
X004848Y014213D02*
X005710Y014213D01*
X005736Y014134D02*
X004823Y014134D01*
X004988Y013349D02*
X003420Y013349D01*
X003420Y013271D02*
X004910Y013271D01*
X004831Y013192D02*
X003420Y013192D01*
X003420Y013114D02*
X004753Y013114D01*
X004674Y013035D02*
X003420Y013035D01*
X003420Y012957D02*
X004596Y012957D01*
X004926Y012721D02*
X005740Y012721D01*
X005740Y012643D02*
X004878Y012643D01*
X004878Y012564D02*
X005740Y012564D01*
X005740Y012486D02*
X004878Y012486D01*
X004878Y012407D02*
X005740Y012407D01*
X005740Y012329D02*
X004878Y012329D01*
X004878Y012250D02*
X005740Y012250D01*
X005740Y012172D02*
X004878Y012172D01*
X004878Y012093D02*
X005740Y012093D01*
X005740Y012015D02*
X004878Y012015D01*
X004878Y011936D02*
X005740Y011936D01*
X005740Y011858D02*
X004878Y011858D01*
X004878Y011779D02*
X005740Y011779D01*
X005740Y011723D02*
X005811Y011653D01*
X006973Y011653D01*
X007043Y011723D01*
X007043Y012885D01*
X006973Y012956D01*
X005811Y012956D01*
X005740Y012885D01*
X005740Y011723D01*
X005763Y011701D02*
X004856Y011701D01*
X004878Y011230D02*
X005740Y011230D01*
X005740Y011151D02*
X004878Y011151D01*
X004878Y011073D02*
X005740Y011073D01*
X005740Y010994D02*
X004878Y010994D01*
X004878Y010916D02*
X005740Y010916D01*
X005740Y010837D02*
X004878Y010837D01*
X004878Y010759D02*
X005740Y010759D01*
X005740Y010680D02*
X004878Y010680D01*
X004878Y010602D02*
X005740Y010602D01*
X005740Y010523D02*
X004878Y010523D01*
X004878Y010445D02*
X005740Y010445D01*
X005740Y010366D02*
X004878Y010366D01*
X004878Y010288D02*
X005740Y010288D01*
X005740Y010209D02*
X004951Y010209D01*
X005029Y010131D02*
X005740Y010131D01*
X005758Y010052D02*
X005108Y010052D01*
X004856Y009738D02*
X003420Y009738D01*
X003420Y009660D02*
X004935Y009660D01*
X004875Y009581D02*
X005743Y009581D01*
X005740Y009503D02*
X004878Y009503D01*
X004878Y009578D02*
X004808Y009649D01*
X003645Y009649D01*
X003575Y009578D01*
X003575Y008416D01*
X003645Y008346D01*
X004808Y008346D01*
X004878Y008416D01*
X004878Y009578D01*
X004878Y009424D02*
X005740Y009424D01*
X005740Y009346D02*
X004878Y009346D01*
X004878Y009267D02*
X005740Y009267D01*
X005740Y009189D02*
X004878Y009189D01*
X004878Y009110D02*
X005740Y009110D01*
X005740Y009032D02*
X004878Y009032D01*
X004878Y008953D02*
X005740Y008953D01*
X005740Y008875D02*
X004878Y008875D01*
X004878Y008796D02*
X005740Y008796D01*
X005740Y008718D02*
X004878Y008718D01*
X004878Y008639D02*
X005740Y008639D01*
X005740Y008561D02*
X004878Y008561D01*
X004878Y008482D02*
X005740Y008482D01*
X005753Y008404D02*
X004866Y008404D01*
X003587Y008404D02*
X003420Y008404D01*
X003420Y008482D02*
X003575Y008482D01*
X003575Y008561D02*
X003420Y008561D01*
X003420Y008639D02*
X003575Y008639D01*
X003575Y008718D02*
X003420Y008718D01*
X003420Y008796D02*
X003575Y008796D01*
X003575Y008875D02*
X003420Y008875D01*
X003420Y008953D02*
X003575Y008953D01*
X003575Y009032D02*
X003420Y009032D01*
X003420Y009110D02*
X003575Y009110D01*
X003575Y009189D02*
X003420Y009189D01*
X003420Y009267D02*
X003575Y009267D01*
X003575Y009346D02*
X003420Y009346D01*
X003420Y009424D02*
X003575Y009424D01*
X003575Y009503D02*
X003420Y009503D01*
X003420Y009581D02*
X003578Y009581D01*
X003420Y009817D02*
X004778Y009817D01*
X004699Y009895D02*
X003420Y009895D01*
X003420Y009974D02*
X004621Y009974D01*
X003592Y010052D02*
X003420Y010052D01*
X003420Y010131D02*
X003575Y010131D01*
X003575Y010209D02*
X003420Y010209D01*
X003420Y010288D02*
X003575Y010288D01*
X003575Y010366D02*
X003420Y010366D01*
X003420Y010445D02*
X003575Y010445D01*
X003575Y010523D02*
X003420Y010523D01*
X003420Y010602D02*
X003575Y010602D01*
X003575Y010680D02*
X003420Y010680D01*
X003420Y010759D02*
X003575Y010759D01*
X003575Y010837D02*
X003420Y010837D01*
X003420Y010916D02*
X003575Y010916D01*
X003575Y010994D02*
X003420Y010994D01*
X003420Y011073D02*
X003575Y011073D01*
X003575Y011151D02*
X003420Y011151D01*
X003420Y011230D02*
X003575Y011230D01*
X003420Y011308D02*
X008339Y011308D01*
X008458Y011230D02*
X007043Y011230D01*
X007043Y011151D02*
X008536Y011151D01*
X008216Y011387D02*
X003420Y011387D01*
X003420Y011465D02*
X008168Y011465D01*
X008150Y011544D02*
X003420Y011544D01*
X003420Y011622D02*
X008154Y011622D01*
X008187Y011701D02*
X007021Y011701D01*
X007043Y011779D02*
X008261Y011779D01*
X008559Y011779D02*
X031668Y011779D01*
X031660Y011858D02*
X007043Y011858D01*
X007043Y011936D02*
X010271Y011936D01*
X010189Y012015D02*
X007043Y012015D01*
X007043Y012093D02*
X010156Y012093D01*
X010150Y012172D02*
X007043Y012172D01*
X007043Y012250D02*
X010166Y012250D01*
X010211Y012329D02*
X007043Y012329D01*
X007043Y012407D02*
X007806Y012407D01*
X007728Y012486D02*
X007043Y012486D01*
X007043Y012564D02*
X007649Y012564D01*
X007486Y012643D02*
X007043Y012643D01*
X007043Y012721D02*
X007412Y012721D01*
X007380Y012800D02*
X007043Y012800D01*
X007043Y012878D02*
X007376Y012878D01*
X007395Y012957D02*
X005162Y012957D01*
X005083Y012878D02*
X005740Y012878D01*
X005740Y012800D02*
X005005Y012800D01*
X003575Y012800D02*
X003420Y012800D01*
X003420Y012878D02*
X003575Y012878D01*
X003575Y012721D02*
X003420Y012721D01*
X003420Y012643D02*
X003575Y012643D01*
X003575Y012564D02*
X003420Y012564D01*
X003420Y012486D02*
X003575Y012486D01*
X003575Y012407D02*
X003420Y012407D01*
X003420Y012329D02*
X003575Y012329D01*
X003575Y012250D02*
X003420Y012250D01*
X003420Y012172D02*
X003575Y012172D01*
X003575Y012093D02*
X003420Y012093D01*
X003420Y012015D02*
X003575Y012015D01*
X003575Y011936D02*
X003420Y011936D01*
X003420Y011858D02*
X003575Y011858D01*
X003575Y011779D02*
X003420Y011779D01*
X003420Y011701D02*
X003597Y011701D01*
X003420Y013428D02*
X032374Y013428D01*
X032188Y013506D02*
X003420Y013506D01*
X003420Y013585D02*
X032110Y013585D01*
X032032Y013663D02*
X003420Y013663D01*
X003420Y013742D02*
X032000Y013742D01*
X031967Y013820D02*
X003420Y013820D01*
X003420Y013899D02*
X031948Y013899D01*
X031948Y013977D02*
X003420Y013977D01*
X003420Y014056D02*
X024377Y014056D01*
X024278Y014134D02*
X006988Y014134D01*
X007013Y014213D02*
X024241Y014213D01*
X024230Y014291D02*
X007013Y014291D01*
X007013Y014370D02*
X024242Y014370D01*
X024280Y014448D02*
X007013Y014448D01*
X007013Y014527D02*
X024382Y014527D01*
X024603Y014056D02*
X025417Y014056D01*
X025643Y014056D02*
X031948Y014056D01*
X031965Y014134D02*
X025742Y014134D01*
X025779Y014213D02*
X031997Y014213D01*
X032030Y014291D02*
X025790Y014291D01*
X025778Y014370D02*
X032104Y014370D01*
X032183Y014448D02*
X025740Y014448D01*
X025638Y014527D02*
X032360Y014527D01*
X032660Y014527D02*
X033296Y014527D01*
X033050Y013428D02*
X032646Y013428D01*
X032013Y012093D02*
X033279Y012093D01*
X033070Y011622D02*
X032903Y011622D01*
X032982Y011544D02*
X033070Y011544D01*
X033017Y011465D02*
X033141Y011465D01*
X033219Y011387D02*
X033050Y011387D01*
X033072Y011308D02*
X033298Y011308D01*
X032344Y010680D02*
X029930Y010680D01*
X029927Y010759D02*
X032176Y010759D01*
X032097Y010837D02*
X031775Y010837D01*
X031840Y010916D02*
X032027Y010916D01*
X031995Y010994D02*
X031870Y010994D01*
X031870Y011073D02*
X031962Y011073D01*
X031948Y011151D02*
X031845Y011151D01*
X031788Y011230D02*
X031948Y011230D01*
X031948Y011308D02*
X025650Y011308D01*
X025650Y011387D02*
X031970Y011387D01*
X032003Y011465D02*
X025620Y011465D01*
X025554Y011544D02*
X032038Y011544D01*
X032049Y011622D02*
X032117Y011622D01*
X031791Y011622D02*
X008666Y011622D01*
X008633Y011701D02*
X031702Y011701D01*
X031674Y011936D02*
X027619Y011936D01*
X027701Y012015D02*
X031717Y012015D01*
X031827Y012093D02*
X027734Y012093D01*
X027341Y011936D02*
X010549Y011936D01*
X010535Y012407D02*
X010493Y012407D01*
X010499Y012486D02*
X009084Y012486D01*
X009163Y012564D02*
X010490Y012564D01*
X010503Y012643D02*
X009326Y012643D01*
X009400Y012721D02*
X010543Y012721D01*
X010649Y012800D02*
X009432Y012800D01*
X009436Y012878D02*
X013114Y012878D01*
X013118Y012800D02*
X010851Y012800D01*
X010327Y012407D02*
X009006Y012407D01*
X009417Y012957D02*
X013133Y012957D01*
X010190Y011073D02*
X007043Y011073D01*
X007043Y010994D02*
X010190Y010994D01*
X010220Y010916D02*
X007043Y010916D01*
X007043Y010837D02*
X010285Y010837D01*
X009476Y010572D02*
X009436Y010667D01*
X009363Y010740D01*
X009268Y010780D01*
X009164Y010780D01*
X009069Y010740D01*
X009048Y010720D01*
X007824Y010720D01*
X007803Y010740D01*
X007708Y010780D01*
X007604Y010780D01*
X007509Y010740D01*
X007436Y010667D01*
X007396Y010572D01*
X007396Y010468D01*
X007436Y010373D01*
X007509Y010300D01*
X007604Y010260D01*
X007708Y010260D01*
X007803Y010300D01*
X007824Y010320D01*
X009048Y010320D01*
X009069Y010300D01*
X009164Y010260D01*
X009268Y010260D01*
X009363Y010300D01*
X009436Y010373D01*
X009476Y010468D01*
X009476Y010572D01*
X009464Y010602D02*
X015669Y010602D01*
X015650Y010680D02*
X009424Y010680D01*
X009320Y010759D02*
X015653Y010759D01*
X015719Y010523D02*
X009476Y010523D01*
X009466Y010445D02*
X015847Y010445D01*
X015973Y010445D02*
X023620Y010445D01*
X023650Y010523D02*
X023436Y010523D01*
X023514Y010602D02*
X023714Y010602D01*
X023593Y010680D02*
X023920Y010680D01*
X023923Y010759D02*
X023671Y010759D01*
X023750Y010837D02*
X023955Y010837D01*
X023446Y010366D02*
X009430Y010366D01*
X009334Y010288D02*
X023360Y010288D01*
X023327Y010209D02*
X007043Y010209D01*
X007043Y010131D02*
X023320Y010131D01*
X023335Y010052D02*
X007026Y010052D01*
X007019Y009974D02*
X023286Y009974D01*
X023232Y009895D02*
X007098Y009895D01*
X007176Y009817D02*
X023210Y009817D01*
X023210Y009738D02*
X023230Y009690D01*
X019078Y009690D01*
X019057Y009710D01*
X018962Y009750D01*
X018829Y009738D02*
X007255Y009738D01*
X007333Y009660D02*
X018712Y009660D01*
X018666Y009581D02*
X007390Y009581D01*
X007390Y009503D02*
X018650Y009503D01*
X018656Y009424D02*
X007390Y009424D01*
X007137Y009110D02*
X007043Y009110D01*
X007043Y009032D02*
X007216Y009032D01*
X007043Y008953D02*
X024235Y008953D01*
X024230Y008875D02*
X007043Y008875D01*
X007043Y008796D02*
X024248Y008796D01*
X024295Y008718D02*
X007043Y008718D01*
X007043Y008639D02*
X024416Y008639D01*
X024564Y008639D02*
X026366Y008639D01*
X026514Y008639D02*
X034022Y008639D01*
X034022Y008561D02*
X007043Y008561D01*
X007043Y008482D02*
X034022Y008482D01*
X034022Y008404D02*
X007031Y008404D01*
X007043Y009189D02*
X007059Y009189D01*
X007043Y010288D02*
X007538Y010288D01*
X007442Y010366D02*
X007043Y010366D01*
X007043Y010445D02*
X007406Y010445D01*
X007396Y010523D02*
X007043Y010523D01*
X007043Y010602D02*
X007408Y010602D01*
X007448Y010680D02*
X007043Y010680D01*
X007043Y010759D02*
X007552Y010759D01*
X007760Y010759D02*
X009112Y010759D01*
X009098Y010288D02*
X007774Y010288D01*
X008709Y011544D02*
X025226Y011544D01*
X025905Y012407D02*
X027397Y012407D01*
X029895Y010837D02*
X031445Y010837D01*
X028957Y009895D02*
X028794Y009895D01*
X028719Y009267D02*
X028500Y009267D01*
X028510Y009189D02*
X030208Y009189D01*
X030125Y009110D02*
X028498Y009110D01*
X028459Y009032D02*
X030092Y009032D01*
X030086Y008953D02*
X028357Y008953D01*
X028143Y008953D02*
X026695Y008953D01*
X026700Y008875D02*
X030101Y008875D01*
X030146Y008796D02*
X026682Y008796D01*
X026635Y008718D02*
X030261Y008718D01*
X030483Y009189D02*
X031462Y009189D01*
X033200Y007540D02*
X029342Y007540D01*
X029370Y007462D02*
X032998Y007462D01*
X032862Y007383D02*
X029370Y007383D01*
X029370Y007305D02*
X031107Y007305D01*
X031413Y007305D02*
X032771Y007305D01*
X032693Y007226D02*
X031485Y007226D01*
X031518Y007148D02*
X032623Y007148D01*
X032577Y007069D02*
X031520Y007069D01*
X031500Y006991D02*
X032532Y006991D01*
X032490Y006912D02*
X031450Y006912D01*
X031320Y006834D02*
X032469Y006834D01*
X032448Y006755D02*
X029370Y006755D01*
X029370Y006834D02*
X031200Y006834D01*
X030716Y006284D02*
X032443Y006284D01*
X032464Y006206D02*
X030842Y006206D01*
X030891Y006127D02*
X032485Y006127D01*
X032521Y006049D02*
X030910Y006049D01*
X030584Y006284D02*
X030300Y006284D01*
X030300Y006363D02*
X032422Y006363D01*
X032420Y006441D02*
X030275Y006441D01*
X030218Y006520D02*
X032420Y006520D01*
X032420Y006598D02*
X029325Y006598D01*
X029358Y006677D02*
X032427Y006677D01*
X033982Y007462D02*
X034022Y007462D01*
X034022Y007540D02*
X033780Y007540D01*
X034022Y008247D02*
X003420Y008247D01*
X003420Y008325D02*
X034022Y008325D01*
X024783Y007776D02*
X021077Y007776D01*
X021197Y007697D02*
X024663Y007697D01*
X024590Y007619D02*
X021270Y007619D01*
X021302Y007540D02*
X024558Y007540D01*
X024530Y007462D02*
X021330Y007462D01*
X021330Y007383D02*
X024530Y007383D01*
X020743Y007776D02*
X020123Y007776D01*
X020225Y007697D02*
X020623Y007697D01*
X020550Y007619D02*
X020287Y007619D01*
X020324Y007540D02*
X020518Y007540D01*
X018743Y007776D02*
X018077Y007776D01*
X018197Y007697D02*
X018623Y007697D01*
X018550Y007619D02*
X018270Y007619D01*
X018302Y007540D02*
X018518Y007540D01*
X018490Y007462D02*
X018330Y007462D01*
X018330Y007383D02*
X018490Y007383D01*
X018490Y007305D02*
X018330Y007305D01*
X018330Y007226D02*
X018490Y007226D01*
X018490Y007148D02*
X018330Y007148D01*
X018330Y007069D02*
X018490Y007069D01*
X018490Y006991D02*
X018330Y006991D01*
X018371Y006912D02*
X018490Y006912D01*
X018490Y006834D02*
X018449Y006834D01*
X017490Y006834D02*
X017449Y006834D01*
X017490Y006912D02*
X017371Y006912D01*
X017330Y006991D02*
X017490Y006991D01*
X017490Y007069D02*
X017330Y007069D01*
X017330Y007148D02*
X017490Y007148D01*
X017490Y007226D02*
X017330Y007226D01*
X017330Y007305D02*
X017490Y007305D01*
X017490Y007383D02*
X017330Y007383D01*
X017330Y007462D02*
X017490Y007462D01*
X017518Y007540D02*
X017302Y007540D01*
X017270Y007619D02*
X017550Y007619D01*
X017623Y007697D02*
X017197Y007697D01*
X017077Y007776D02*
X017743Y007776D01*
X016743Y007776D02*
X016077Y007776D01*
X016197Y007697D02*
X016623Y007697D01*
X016550Y007619D02*
X016270Y007619D01*
X016302Y007540D02*
X016518Y007540D01*
X016490Y007462D02*
X016330Y007462D01*
X016330Y007383D02*
X016490Y007383D01*
X016490Y007305D02*
X016330Y007305D01*
X016330Y007226D02*
X016490Y007226D01*
X016490Y007148D02*
X016330Y007148D01*
X016330Y007069D02*
X016490Y007069D01*
X016490Y006991D02*
X016330Y006991D01*
X016330Y006912D02*
X016490Y006912D01*
X016490Y006834D02*
X016330Y006834D01*
X016330Y006755D02*
X016490Y006755D01*
X016502Y006677D02*
X016318Y006677D01*
X016285Y006598D02*
X016535Y006598D01*
X016587Y006520D02*
X016233Y006520D01*
X016155Y006441D02*
X016665Y006441D01*
X017155Y006441D02*
X017276Y006441D01*
X017669Y006049D02*
X004959Y006049D01*
X003498Y007462D02*
X003420Y007462D01*
X003420Y007540D02*
X003700Y007540D01*
X008099Y013114D02*
X008317Y013114D01*
X008433Y013192D02*
X008021Y013192D01*
X007942Y013271D02*
X008512Y013271D01*
X008590Y013349D02*
X007864Y013349D01*
X007013Y015155D02*
X011626Y015155D01*
X011486Y015233D02*
X007013Y015233D01*
X007013Y015312D02*
X011407Y015312D01*
X011363Y015390D02*
X006945Y015390D01*
X006983Y015783D02*
X011352Y015783D01*
X011385Y015861D02*
X007013Y015861D01*
X007013Y015940D02*
X011459Y015940D01*
X011560Y016018D02*
X007013Y016018D01*
X004236Y016018D02*
X004156Y016018D01*
X004156Y015940D02*
X004236Y015940D01*
X004236Y015861D02*
X004156Y015861D01*
X004156Y015783D02*
X004236Y015783D01*
X004236Y016097D02*
X004156Y016097D01*
X004156Y016175D02*
X004236Y016175D01*
X004236Y016254D02*
X004156Y016254D01*
X004156Y016332D02*
X004236Y016332D01*
X004236Y016568D02*
X004156Y016568D01*
X004156Y016646D02*
X004236Y016646D01*
X004236Y016725D02*
X004156Y016725D01*
X004156Y016803D02*
X004236Y016803D01*
X004236Y016882D02*
X004156Y016882D01*
X004156Y016960D02*
X004236Y016960D01*
X004236Y017039D02*
X004156Y017039D01*
X003638Y017667D02*
X003420Y017667D01*
X003420Y017745D02*
X003470Y017745D01*
X003420Y016332D02*
X003525Y016332D01*
X003525Y016254D02*
X003420Y016254D01*
X003420Y016175D02*
X003525Y016175D01*
X003525Y016097D02*
X003420Y016097D01*
X003420Y016018D02*
X003525Y016018D01*
X003525Y015940D02*
X003420Y015940D01*
X003420Y015861D02*
X003525Y015861D01*
X003550Y015783D02*
X003420Y015783D01*
X003420Y015704D02*
X011320Y015704D01*
X011316Y015626D02*
X003420Y015626D01*
X003420Y015547D02*
X011316Y015547D01*
X011331Y015469D02*
X003420Y015469D01*
X003420Y015390D02*
X003613Y015390D01*
X003545Y015312D02*
X003420Y015312D01*
X003420Y015233D02*
X003545Y015233D01*
X003545Y015155D02*
X003420Y015155D01*
X003420Y015076D02*
X003545Y015076D01*
X003545Y014998D02*
X003420Y014998D01*
X003420Y014919D02*
X003545Y014919D01*
X003545Y014841D02*
X003420Y014841D01*
X003420Y014762D02*
X003545Y014762D01*
X003545Y014684D02*
X003420Y014684D01*
X003420Y014605D02*
X003545Y014605D01*
X003545Y014527D02*
X003420Y014527D01*
X003420Y014448D02*
X003545Y014448D01*
X003545Y014370D02*
X003420Y014370D01*
X003420Y014291D02*
X003545Y014291D01*
X003545Y014213D02*
X003420Y014213D01*
X003420Y014134D02*
X003570Y014134D01*
X008413Y018059D02*
X008867Y018059D01*
X008788Y018138D02*
X008492Y018138D01*
X008527Y018216D02*
X008753Y018216D01*
X008721Y018295D02*
X008559Y018295D01*
X008560Y018373D02*
X008720Y018373D01*
X008720Y018452D02*
X008560Y018452D01*
X008560Y018530D02*
X008720Y018530D01*
X008720Y018609D02*
X008560Y018609D01*
X008560Y018687D02*
X008720Y018687D01*
X008720Y018766D02*
X008560Y018766D01*
X008560Y018844D02*
X008720Y018844D01*
X008720Y018923D02*
X008560Y018923D01*
X008560Y019001D02*
X008720Y019001D01*
X008727Y019080D02*
X008553Y019080D01*
X008521Y019158D02*
X008759Y019158D01*
X020508Y019190D02*
X020753Y019190D01*
X020732Y019149D01*
X020711Y019083D01*
X020700Y019015D01*
X020700Y018720D01*
X021100Y018720D01*
X021100Y018640D01*
X020700Y018640D01*
X020700Y018419D01*
X020560Y018559D01*
X020560Y019064D01*
X020508Y019190D01*
X020521Y019158D02*
X020737Y019158D01*
X020710Y019080D02*
X020553Y019080D01*
X020560Y019001D02*
X020700Y019001D01*
X020700Y018923D02*
X020560Y018923D01*
X020560Y018844D02*
X020700Y018844D01*
X020700Y018766D02*
X020560Y018766D01*
X020560Y018687D02*
X021100Y018687D01*
X021180Y018687D02*
X024019Y018687D01*
X021543Y019158D02*
X032531Y019158D01*
X027975Y016254D02*
X026239Y016254D01*
X026021Y016254D02*
X024371Y016254D01*
X024421Y016332D02*
X025920Y016332D01*
X025881Y016411D02*
X024440Y016411D01*
X024437Y016489D02*
X025870Y016489D01*
X025688Y016568D02*
X024404Y016568D01*
X024332Y016646D02*
X025608Y016646D01*
X025576Y016725D02*
X024140Y016725D01*
X024131Y016803D02*
X024958Y016803D01*
X024871Y016882D02*
X024096Y016882D01*
X024004Y016960D02*
X024838Y016960D01*
X024830Y017039D02*
X023840Y017039D01*
X023825Y017117D02*
X024845Y017117D01*
X025222Y016803D02*
X025570Y016803D01*
X025586Y016882D02*
X025309Y016882D01*
X024424Y016175D02*
X027970Y016175D01*
X027987Y016097D02*
X024450Y016097D01*
X024546Y016018D02*
X028034Y016018D01*
X020700Y018452D02*
X020668Y018452D01*
X020700Y018530D02*
X020589Y018530D01*
X020560Y018609D02*
X020700Y018609D01*
D15*
X022120Y017870D03*
X023580Y017030D03*
X023880Y016730D03*
X024180Y016430D03*
X024190Y016060D03*
X024490Y015760D03*
X024790Y015460D03*
X026400Y015070D03*
X025530Y014290D03*
X024490Y014290D03*
X023240Y015070D03*
X021160Y015240D03*
X019140Y017140D03*
X018140Y017140D03*
X017140Y017140D03*
X016680Y016740D03*
X016140Y017140D03*
X016680Y016140D03*
X013860Y016080D03*
X013880Y015110D03*
X013890Y014010D03*
X013374Y012860D03*
X012030Y011760D03*
X010750Y012560D03*
X010410Y012160D03*
X009176Y012860D03*
X008384Y012860D03*
X007636Y012860D03*
X008410Y011560D03*
X007656Y010520D03*
X009216Y010520D03*
X010450Y011040D03*
X012000Y010030D03*
X014530Y010060D03*
X015910Y010700D03*
X015760Y011750D03*
X018810Y011040D03*
X017560Y009980D03*
X018910Y009490D03*
X017390Y008100D03*
X014590Y008050D03*
X012630Y008250D03*
X006030Y006700D03*
X004040Y013470D03*
X007490Y016740D03*
X009316Y016740D03*
X013860Y017110D03*
X024050Y019030D03*
X024790Y018780D03*
X024180Y018480D03*
X024480Y018180D03*
X025090Y017030D03*
X025830Y016790D03*
X026130Y016490D03*
X027220Y015970D03*
X028230Y016190D03*
X028430Y016490D03*
X028630Y016790D03*
X029010Y017270D03*
X029210Y017570D03*
X029790Y018180D03*
X030100Y017876D03*
X029490Y018480D03*
X030510Y018780D03*
X027960Y017870D03*
X030652Y016970D03*
X031610Y016190D03*
X031920Y015820D03*
X030910Y015820D03*
X032460Y016730D03*
X033449Y014741D03*
X029470Y013560D03*
X027620Y014120D03*
X025990Y013520D03*
X026190Y012780D03*
X025690Y012560D03*
X025090Y012860D03*
X026740Y011650D03*
X027480Y012160D03*
X025390Y011340D03*
X024180Y010700D03*
X023880Y010400D03*
X023580Y010140D03*
X023470Y009790D03*
X024490Y008890D03*
X022930Y008030D03*
X026440Y008890D03*
X028250Y009190D03*
X028780Y008960D03*
X028860Y009490D03*
X028554Y009794D03*
X029120Y010100D03*
X029372Y010400D03*
X029670Y010700D03*
X031610Y011040D03*
X031920Y011850D03*
X032480Y010240D03*
X031590Y008960D03*
X030346Y008964D03*
X030957Y007850D03*
X032020Y007350D03*
X031260Y007090D03*
X030040Y006330D03*
X030650Y006030D03*
X023240Y011040D03*
X020580Y011040D03*
D16*
X018910Y009490D02*
X028860Y009490D01*
X028554Y009794D02*
X023474Y009794D01*
X023470Y009790D01*
X023580Y010140D02*
X023720Y010140D01*
X023820Y010040D01*
X028380Y010040D01*
X028440Y010100D01*
X029120Y010100D01*
X029372Y010400D02*
X023880Y010400D01*
X024180Y010700D02*
X029670Y010700D01*
X031610Y011040D02*
X023670Y011040D01*
X023330Y010700D01*
X015910Y010700D01*
X013374Y012860D02*
X025090Y012860D01*
X025690Y012560D02*
X010750Y012560D01*
X010410Y012160D02*
X027480Y012160D01*
X026190Y012780D02*
X025810Y013160D01*
X008684Y013160D01*
X008384Y012860D01*
X008070Y012860D01*
X007770Y013160D01*
X005082Y013160D01*
X004226Y012304D01*
X004226Y010651D02*
X005057Y009820D01*
X006890Y009820D01*
X007190Y009520D01*
X007190Y009340D01*
X007340Y009190D01*
X028250Y009190D01*
X026440Y008890D02*
X024490Y008890D01*
X027950Y007090D02*
X028710Y007850D01*
X030957Y007850D01*
X031260Y007090D02*
X028950Y007090D01*
X030040Y006330D02*
X018670Y006330D01*
X017910Y007090D01*
X016910Y007090D02*
X017970Y006030D01*
X030650Y006030D01*
X030346Y008964D02*
X031646Y008964D01*
X031590Y008960D01*
X031920Y011850D02*
X033350Y011850D01*
X033490Y011710D01*
X033450Y014740D02*
X033449Y014741D01*
X006362Y014741D01*
X006362Y016394D02*
X006408Y016440D01*
X017730Y016440D01*
X018110Y016060D01*
X019940Y016060D01*
X020110Y015890D01*
X022930Y015890D01*
X023360Y015460D01*
X024790Y015460D01*
X024490Y015760D02*
X023400Y015760D01*
X023030Y016130D01*
X020210Y016130D01*
X020040Y016300D01*
X018210Y016300D01*
X017670Y016840D01*
X017010Y016840D01*
X016710Y017140D01*
X016140Y017140D01*
X017140Y017140D02*
X017710Y017140D01*
X018310Y016540D01*
X020140Y016540D01*
X020310Y016370D01*
X023130Y016370D01*
X023310Y016190D01*
X024000Y016190D01*
X024130Y016060D01*
X024190Y016060D01*
X024180Y016430D02*
X023410Y016430D01*
X023230Y016610D01*
X020410Y016610D01*
X020180Y016840D01*
X019010Y016840D01*
X018710Y017140D01*
X018140Y017140D01*
X019140Y017140D02*
X020220Y017140D01*
X020510Y016850D01*
X023330Y016850D01*
X023450Y016730D01*
X023880Y016730D01*
X023580Y017030D02*
X023520Y017090D01*
X020610Y017090D01*
X020260Y017440D01*
X009140Y017440D01*
X009140Y018680D01*
X010140Y018680D02*
X010140Y017680D01*
X020360Y017680D01*
X020710Y017330D01*
X028950Y017330D01*
X029010Y017270D01*
X028760Y017090D02*
X025150Y017090D01*
X025090Y017030D01*
X025830Y016790D02*
X028630Y016790D01*
X028880Y016970D02*
X028760Y017090D01*
X028880Y016970D02*
X030652Y016970D01*
X030100Y017876D02*
X027966Y017876D01*
X027960Y017870D01*
X029210Y017570D02*
X020810Y017570D01*
X020460Y017920D01*
X011140Y017920D01*
X011140Y018680D01*
X009176Y012860D02*
X008866Y012550D01*
X007946Y012550D01*
X007636Y012860D01*
X008410Y011560D02*
X008630Y011340D01*
X025390Y011340D01*
X025530Y014290D02*
X024490Y014290D01*
X026130Y016490D02*
X028430Y016490D01*
X028230Y016190D02*
X031610Y016190D01*
X031920Y015820D02*
X030910Y015820D01*
X029790Y018180D02*
X024480Y018180D01*
X024180Y018480D02*
X029490Y018480D01*
X030510Y018780D02*
X024790Y018780D01*
X009216Y010520D02*
X007656Y010520D01*
D17*
X010450Y011040D02*
X018810Y011040D01*
X020580Y011040D01*
X023240Y011040D01*
X024950Y007090D02*
X020910Y007090D01*
X023240Y015070D02*
X022700Y015610D01*
X019990Y015610D01*
X019820Y015780D01*
X017990Y015780D01*
X017630Y016140D01*
X016680Y016140D01*
X016680Y016740D02*
X009316Y016740D01*
X020140Y018640D02*
X020910Y017870D01*
X022120Y017870D01*
X020140Y018640D02*
X020140Y018680D01*
D18*
X011790Y015600D03*
D19*
X016630Y015600D01*
D20*
X016630Y015600D03*
M02*
