G75*
G70*
%OFA0B0*%
%FSLAX24Y24*%
%IPPOS*%
%LPD*%
%AMOC8*
5,1,8,0,0,1.08239X$1,22.5*
%
%ADD10C,0.0600*%
%ADD11R,0.0150X0.0551*%
%ADD12R,0.0630X0.0710*%
%ADD13R,0.0512X0.0591*%
%ADD14R,0.0591X0.0512*%
%ADD15R,0.0551X0.0551*%
%ADD16R,0.0945X0.0945*%
%ADD17R,0.2441X0.2126*%
%ADD18R,0.0630X0.0394*%
%ADD19R,0.1063X0.1063*%
%ADD20OC8,0.0600*%
%ADD21C,0.0885*%
%ADD22R,0.1063X0.0630*%
%ADD23R,0.0630X0.0709*%
%ADD24C,0.0100*%
%ADD25C,0.0280*%
%ADD26C,0.0760*%
%ADD27C,0.0160*%
%ADD28C,0.0700*%
%ADD29C,0.0560*%
%ADD30C,0.0120*%
%ADD31C,0.0240*%
%ADD32C,0.0080*%
%ADD33C,0.0400*%
%ADD34C,0.0500*%
%ADD35C,0.0709*%
%ADD36C,0.0396*%
D10*
X015910Y006790D02*
X015910Y007390D01*
X016910Y007390D02*
X016910Y006790D01*
X017910Y006790D02*
X017910Y007390D01*
X018910Y007390D02*
X018910Y006790D01*
X019910Y006790D02*
X019910Y007390D01*
X020910Y007390D02*
X020910Y006790D01*
X024950Y006790D02*
X024950Y007390D01*
X025950Y007390D02*
X025950Y006790D01*
X026950Y006790D02*
X026950Y007390D01*
X027950Y007390D02*
X027950Y006790D01*
X028950Y006790D02*
X028950Y007390D01*
X021140Y018380D02*
X021140Y018980D01*
X020140Y018980D02*
X020140Y018380D01*
X019140Y018380D02*
X019140Y018980D01*
X018140Y018980D02*
X018140Y018380D01*
X017140Y018380D02*
X017140Y018980D01*
X016140Y018980D02*
X016140Y018380D01*
X015140Y018380D02*
X015140Y018980D01*
X014140Y018980D02*
X014140Y018380D01*
X013140Y018380D02*
X013140Y018980D01*
X012140Y018980D02*
X012140Y018380D01*
X011140Y018380D02*
X011140Y018980D01*
X010140Y018980D02*
X010140Y018380D01*
X009140Y018380D02*
X009140Y018980D01*
X008140Y018980D02*
X008140Y018380D01*
X007140Y018380D02*
X007140Y018980D01*
X006140Y018980D02*
X006140Y018380D01*
D11*
X027787Y014918D03*
X028043Y014918D03*
X028298Y014918D03*
X028554Y014918D03*
X028810Y014918D03*
X029066Y014918D03*
X029322Y014918D03*
X029578Y014918D03*
X029834Y014918D03*
X030090Y014918D03*
X030346Y014918D03*
X030602Y014918D03*
X030857Y014918D03*
X031113Y014918D03*
X031113Y012162D03*
X030857Y012162D03*
X030602Y012162D03*
X030346Y012162D03*
X030090Y012162D03*
X029834Y012162D03*
X029578Y012162D03*
X029322Y012162D03*
X029066Y012162D03*
X028810Y012162D03*
X028554Y012162D03*
X028298Y012162D03*
X028043Y012162D03*
X027787Y012162D03*
D12*
X023240Y018700D03*
X022120Y018700D03*
X011790Y013730D03*
X010670Y013730D03*
D13*
X009924Y012340D03*
X009176Y012340D03*
X008384Y012340D03*
X007636Y012340D03*
X007656Y011040D03*
X008404Y011040D03*
X009216Y011040D03*
X009964Y011040D03*
X009984Y009690D03*
X009236Y009690D03*
X008404Y009690D03*
X007656Y009690D03*
X012626Y006880D03*
X013374Y006880D03*
X017146Y011890D03*
X017894Y011890D03*
X011694Y017290D03*
X010946Y017290D03*
X010064Y017290D03*
X009316Y017290D03*
X008234Y017260D03*
X007486Y017260D03*
D14*
X018810Y015484D03*
X018810Y014736D03*
X026620Y017876D03*
X027440Y017876D03*
X027440Y018624D03*
X026620Y018624D03*
X031030Y018674D03*
X031820Y018674D03*
X031820Y017926D03*
X031030Y017926D03*
X026960Y015074D03*
X026960Y014326D03*
X026960Y013534D03*
X026960Y012786D03*
X022870Y009794D03*
X021980Y009794D03*
X021980Y009046D03*
X022870Y009046D03*
X021080Y009046D03*
X021080Y009794D03*
X032110Y008964D03*
X032970Y008964D03*
X032970Y008216D03*
X032110Y008216D03*
D15*
X022578Y014570D03*
X021082Y014570D03*
D16*
X009616Y015600D03*
X007884Y015600D03*
X007814Y013730D03*
X009546Y013730D03*
D17*
X008806Y007780D03*
X021684Y012790D03*
D18*
X018810Y011892D03*
X018810Y013688D03*
X011680Y008678D03*
X011680Y006882D03*
D19*
X006392Y008997D03*
X004226Y008997D03*
X004226Y010651D03*
X006392Y010651D03*
X006392Y012304D03*
X004226Y012304D03*
X004196Y014741D03*
X006362Y014741D03*
X006362Y016394D03*
X004196Y016394D03*
D20*
X033490Y013490D03*
X033490Y011710D03*
D21*
X032510Y011220D03*
X032510Y013980D03*
D22*
X017700Y014739D03*
X017700Y015841D03*
D23*
X017901Y012900D03*
X016799Y012900D03*
D24*
X004996Y006093D02*
X004948Y006010D01*
X030360Y006010D01*
X030360Y006088D01*
X030404Y006194D01*
X030420Y006210D01*
X030420Y008681D01*
X030403Y008674D01*
X030288Y008674D01*
X030270Y008681D01*
X030270Y006510D01*
X030286Y006494D01*
X030330Y006388D01*
X030330Y006272D01*
X030286Y006166D01*
X030204Y006084D01*
X030098Y006040D01*
X029982Y006040D01*
X029876Y006084D01*
X029794Y006166D01*
X029750Y006272D01*
X029750Y006388D01*
X029794Y006494D01*
X029810Y006510D01*
X029810Y009175D01*
X029860Y009225D01*
X029860Y010480D01*
X029834Y010454D01*
X029728Y010410D01*
X029662Y010410D01*
X029662Y010342D01*
X029618Y010236D01*
X029536Y010154D01*
X029430Y010110D01*
X029410Y010110D01*
X029410Y010042D01*
X029366Y009936D01*
X029284Y009854D01*
X029178Y009810D01*
X029090Y009810D01*
X029090Y009670D01*
X029106Y009654D01*
X029150Y009548D01*
X029150Y009432D01*
X029106Y009326D01*
X029024Y009244D01*
X028918Y009200D01*
X028802Y009200D01*
X028696Y009244D01*
X028614Y009326D01*
X028570Y009432D01*
X028570Y009504D01*
X028497Y009504D01*
X028480Y009511D01*
X028480Y009370D01*
X028496Y009354D01*
X028540Y009248D01*
X028540Y009132D01*
X028496Y009026D01*
X028414Y008944D01*
X028308Y008900D01*
X028192Y008900D01*
X028086Y008944D01*
X028004Y009026D01*
X027960Y009132D01*
X027960Y009248D01*
X028004Y009354D01*
X028020Y009370D01*
X028020Y010005D01*
X028068Y010054D01*
X028068Y011736D01*
X027650Y011736D01*
X027562Y011824D01*
X027562Y011880D01*
X027538Y011870D01*
X027422Y011870D01*
X027316Y011914D01*
X027234Y011996D01*
X027190Y012102D01*
X027190Y012218D01*
X027234Y012324D01*
X027290Y012380D01*
X026603Y012380D01*
X026515Y012468D01*
X026515Y012550D01*
X026370Y012550D01*
X026354Y012534D01*
X026248Y012490D01*
X026132Y012490D01*
X026026Y012534D01*
X025980Y012580D01*
X025980Y012502D01*
X025936Y012396D01*
X025854Y012314D01*
X025748Y012270D01*
X025632Y012270D01*
X025620Y012275D01*
X025620Y011520D01*
X025636Y011504D01*
X028068Y011504D01*
X028068Y011406D02*
X025677Y011406D01*
X025680Y011398D02*
X025636Y011504D01*
X025620Y011603D02*
X028068Y011603D01*
X028068Y011701D02*
X025620Y011701D01*
X025620Y011800D02*
X027587Y011800D01*
X027355Y011898D02*
X025620Y011898D01*
X025620Y011997D02*
X027234Y011997D01*
X027193Y012095D02*
X025620Y012095D01*
X025620Y012194D02*
X027190Y012194D01*
X027221Y012292D02*
X025801Y012292D01*
X025931Y012391D02*
X026592Y012391D01*
X026515Y012489D02*
X025974Y012489D01*
X025920Y012886D02*
X025920Y013555D01*
X026185Y013820D01*
X026320Y013955D01*
X026320Y014789D01*
X026342Y014780D01*
X026458Y014780D01*
X026515Y014804D01*
X026515Y014756D01*
X026571Y014700D01*
X026545Y014674D01*
X026525Y014640D01*
X026515Y014602D01*
X026515Y014376D01*
X026910Y014376D01*
X026910Y014276D01*
X026515Y014276D01*
X026515Y014050D01*
X026525Y014012D01*
X026545Y013978D01*
X026573Y013950D01*
X026598Y013935D01*
X026515Y013852D01*
X026515Y013216D01*
X026571Y013160D01*
X026515Y013104D01*
X026515Y013010D01*
X026370Y013010D01*
X026354Y013026D01*
X026248Y013070D01*
X026132Y013070D01*
X026026Y013026D01*
X025944Y012944D01*
X025920Y012886D01*
X025920Y012982D02*
X025981Y012982D01*
X025920Y013080D02*
X026515Y013080D01*
X026552Y013179D02*
X025920Y013179D01*
X025920Y013277D02*
X026515Y013277D01*
X026515Y013376D02*
X025920Y013376D01*
X025920Y013474D02*
X026515Y013474D01*
X026515Y013573D02*
X025938Y013573D01*
X026036Y013671D02*
X026515Y013671D01*
X026515Y013770D02*
X026135Y013770D01*
X026233Y013868D02*
X026531Y013868D01*
X026556Y013967D02*
X026320Y013967D01*
X026320Y014065D02*
X026515Y014065D01*
X026515Y014164D02*
X026320Y014164D01*
X026320Y014262D02*
X026515Y014262D01*
X026515Y014459D02*
X026320Y014459D01*
X026320Y014361D02*
X026910Y014361D01*
X027010Y014361D02*
X027813Y014361D01*
X027813Y014459D02*
X027405Y014459D01*
X027405Y014376D02*
X027405Y014602D01*
X027395Y014640D01*
X027375Y014674D01*
X027349Y014700D01*
X027405Y014756D01*
X027405Y014840D01*
X027539Y014840D01*
X027562Y014817D01*
X027562Y014580D01*
X027650Y014492D01*
X027813Y014492D01*
X027813Y013764D01*
X027405Y013764D01*
X027405Y013852D01*
X027322Y013935D01*
X027347Y013950D01*
X027375Y013978D01*
X027395Y014012D01*
X027405Y014050D01*
X027405Y014276D01*
X027010Y014276D01*
X027010Y014376D01*
X027405Y014376D01*
X027405Y014262D02*
X027813Y014262D01*
X027813Y014164D02*
X027405Y014164D01*
X027405Y014065D02*
X027813Y014065D01*
X027813Y013967D02*
X027364Y013967D01*
X027389Y013868D02*
X027813Y013868D01*
X027813Y013770D02*
X027405Y013770D01*
X027405Y013304D02*
X028138Y013304D01*
X028273Y013439D01*
X028273Y014492D01*
X030883Y014492D01*
X030883Y014471D01*
X031018Y014337D01*
X031120Y014235D01*
X031120Y012588D01*
X031113Y012588D01*
X031019Y012588D01*
X031000Y012582D01*
X030994Y012588D01*
X028273Y012588D01*
X028273Y012881D01*
X028138Y013016D01*
X027405Y013016D01*
X027405Y013104D01*
X027349Y013160D01*
X027405Y013216D01*
X027405Y013304D01*
X027405Y013277D02*
X031120Y013277D01*
X031120Y013179D02*
X027368Y013179D01*
X027405Y013080D02*
X031120Y013080D01*
X031120Y012982D02*
X028172Y012982D01*
X028271Y012883D02*
X031120Y012883D01*
X031120Y012785D02*
X028273Y012785D01*
X028273Y012686D02*
X031120Y012686D01*
X031113Y012588D02*
X031113Y012162D01*
X031113Y012162D01*
X031113Y012588D01*
X031113Y012588D01*
X031018Y012588D02*
X030995Y012588D01*
X031113Y012489D02*
X031113Y012489D01*
X031113Y012391D02*
X031113Y012391D01*
X031113Y012292D02*
X031113Y012292D01*
X031113Y012194D02*
X031113Y012194D01*
X031840Y011569D02*
X031862Y011560D01*
X031978Y011560D01*
X032036Y011584D01*
X032008Y011556D01*
X031918Y011338D01*
X031918Y011102D01*
X032008Y010884D01*
X032174Y010718D01*
X032392Y010628D01*
X032628Y010628D01*
X032846Y010718D01*
X033012Y010884D01*
X033102Y011102D01*
X033102Y011161D01*
X033220Y011043D01*
X033220Y009370D01*
X033020Y009370D01*
X033020Y009014D01*
X032920Y009014D01*
X032920Y009370D01*
X032655Y009370D01*
X032617Y009360D01*
X032583Y009340D01*
X032555Y009312D01*
X032544Y009293D01*
X032467Y009370D01*
X031753Y009370D01*
X031665Y009282D01*
X031665Y009243D01*
X031648Y009250D01*
X031532Y009250D01*
X031490Y009232D01*
X031490Y010776D01*
X031552Y010750D01*
X031668Y010750D01*
X031774Y010794D01*
X031856Y010876D01*
X031900Y010982D01*
X031900Y011098D01*
X031856Y011204D01*
X031840Y011220D01*
X031840Y011569D01*
X031840Y011504D02*
X031986Y011504D01*
X031946Y011406D02*
X031840Y011406D01*
X031840Y011307D02*
X031918Y011307D01*
X031918Y011209D02*
X031852Y011209D01*
X031895Y011110D02*
X031918Y011110D01*
X031900Y011012D02*
X031955Y011012D01*
X031996Y010913D02*
X031871Y010913D01*
X031795Y010815D02*
X032078Y010815D01*
X032178Y010716D02*
X031490Y010716D01*
X031490Y010618D02*
X033220Y010618D01*
X033220Y010716D02*
X032842Y010716D01*
X032942Y010815D02*
X033220Y010815D01*
X033220Y010913D02*
X033024Y010913D01*
X033065Y011012D02*
X033220Y011012D01*
X033153Y011110D02*
X033102Y011110D01*
X033597Y011260D02*
X033676Y011260D01*
X033940Y011524D01*
X033940Y011896D01*
X033676Y012160D01*
X033304Y012160D01*
X033240Y012096D01*
X033240Y013104D01*
X033304Y013040D01*
X033440Y013040D01*
X033440Y013440D01*
X033540Y013440D01*
X033540Y013540D01*
X033940Y013540D01*
X033940Y013676D01*
X033676Y013940D01*
X033587Y013940D01*
X033660Y014013D01*
X033660Y014541D01*
X033695Y014576D01*
X033739Y014683D01*
X033739Y014798D01*
X033695Y014905D01*
X033614Y014986D01*
X033507Y015031D01*
X033392Y015031D01*
X033285Y014986D01*
X033204Y014905D01*
X033159Y014798D01*
X033159Y014683D01*
X033204Y014576D01*
X033240Y014540D01*
X033240Y014187D01*
X033102Y014049D01*
X033102Y014098D01*
X033012Y014316D01*
X032846Y014482D01*
X032628Y014572D01*
X032392Y014572D01*
X032174Y014482D01*
X032100Y014408D01*
X032100Y015590D01*
X032166Y015656D01*
X032210Y015762D01*
X032210Y015878D01*
X032166Y015984D01*
X032084Y016066D01*
X031978Y016110D01*
X031891Y016110D01*
X031900Y016132D01*
X031900Y016248D01*
X031856Y016354D01*
X031774Y016436D01*
X031668Y016480D01*
X031552Y016480D01*
X031446Y016436D01*
X031364Y016354D01*
X031320Y016248D01*
X031320Y016132D01*
X031364Y016026D01*
X031380Y016010D01*
X031380Y014625D01*
X031343Y014662D01*
X031343Y015013D01*
X031338Y015018D01*
X031338Y015256D01*
X031250Y015344D01*
X031087Y015344D01*
X031087Y015587D01*
X031156Y015656D01*
X031200Y015762D01*
X031200Y015878D01*
X031156Y015984D01*
X031074Y016066D01*
X030968Y016110D01*
X030852Y016110D01*
X030832Y016101D01*
X030832Y016740D01*
X030897Y016806D01*
X030942Y016912D01*
X030942Y017028D01*
X030897Y017134D01*
X030816Y017216D01*
X030709Y017260D01*
X030689Y017260D01*
X030949Y017520D01*
X031387Y017520D01*
X031425Y017558D01*
X031433Y017550D01*
X031467Y017530D01*
X031505Y017520D01*
X031770Y017520D01*
X031770Y017876D01*
X031870Y017876D01*
X031870Y017976D01*
X032265Y017976D01*
X032265Y018202D01*
X032519Y018202D01*
X032484Y018263D02*
X032626Y018017D01*
X032827Y017816D01*
X033073Y017674D01*
X033348Y017600D01*
X033632Y017600D01*
X033907Y017674D01*
X034012Y017734D01*
X034012Y007456D01*
X033907Y007516D01*
X033632Y007590D01*
X033348Y007590D01*
X033073Y007516D01*
X032827Y007374D01*
X032626Y007173D01*
X032484Y006927D01*
X032410Y006652D01*
X032410Y006368D01*
X032484Y006093D01*
X032532Y006010D01*
X030940Y006010D01*
X030940Y006088D01*
X030896Y006194D01*
X030880Y006210D01*
X030880Y007568D01*
X030900Y007560D01*
X031015Y007560D01*
X031030Y007566D01*
X031030Y007270D01*
X031014Y007254D01*
X030970Y007148D01*
X030970Y007032D01*
X031014Y006926D01*
X031096Y006844D01*
X031202Y006800D01*
X031318Y006800D01*
X031424Y006844D01*
X031506Y006926D01*
X031550Y007032D01*
X031550Y007148D01*
X031506Y007254D01*
X031490Y007270D01*
X031490Y008688D01*
X031532Y008670D01*
X031648Y008670D01*
X031665Y008677D01*
X031665Y008646D01*
X031721Y008590D01*
X031665Y008534D01*
X031665Y007898D01*
X031753Y007810D01*
X032467Y007810D01*
X032540Y007883D01*
X032613Y007810D01*
X033327Y007810D01*
X033415Y007898D01*
X033415Y008006D01*
X033517Y008006D01*
X033640Y008129D01*
X033640Y011217D01*
X033597Y011260D01*
X033640Y011209D02*
X034012Y011209D01*
X034012Y011307D02*
X033723Y011307D01*
X033822Y011406D02*
X034012Y011406D01*
X034012Y011504D02*
X033920Y011504D01*
X033940Y011603D02*
X034012Y011603D01*
X034012Y011701D02*
X033940Y011701D01*
X033940Y011800D02*
X034012Y011800D01*
X034012Y011898D02*
X033938Y011898D01*
X034012Y011997D02*
X033840Y011997D01*
X033741Y012095D02*
X034012Y012095D01*
X034012Y012194D02*
X033240Y012194D01*
X033240Y012292D02*
X034012Y012292D01*
X034012Y012391D02*
X033240Y012391D01*
X033240Y012489D02*
X034012Y012489D01*
X034012Y012588D02*
X033240Y012588D01*
X033240Y012686D02*
X034012Y012686D01*
X034012Y012785D02*
X033240Y012785D01*
X033240Y012883D02*
X034012Y012883D01*
X034012Y012982D02*
X033240Y012982D01*
X033240Y013080D02*
X033264Y013080D01*
X033440Y013080D02*
X033540Y013080D01*
X033540Y013040D02*
X033676Y013040D01*
X033940Y013304D01*
X033940Y013440D01*
X033540Y013440D01*
X033540Y013040D01*
X033540Y013179D02*
X033440Y013179D01*
X033440Y013277D02*
X033540Y013277D01*
X033540Y013376D02*
X033440Y013376D01*
X033540Y013474D02*
X034012Y013474D01*
X034012Y013376D02*
X033940Y013376D01*
X033913Y013277D02*
X034012Y013277D01*
X034012Y013179D02*
X033815Y013179D01*
X033716Y013080D02*
X034012Y013080D01*
X034012Y013573D02*
X033940Y013573D01*
X033940Y013671D02*
X034012Y013671D01*
X034012Y013770D02*
X033847Y013770D01*
X033748Y013868D02*
X034012Y013868D01*
X034012Y013967D02*
X033614Y013967D01*
X033660Y014065D02*
X034012Y014065D01*
X034012Y014164D02*
X033660Y014164D01*
X033660Y014262D02*
X034012Y014262D01*
X034012Y014361D02*
X033660Y014361D01*
X033660Y014459D02*
X034012Y014459D01*
X034012Y014558D02*
X033676Y014558D01*
X033728Y014656D02*
X034012Y014656D01*
X034012Y014755D02*
X033739Y014755D01*
X033717Y014853D02*
X034012Y014853D01*
X034012Y014952D02*
X033649Y014952D01*
X034012Y015050D02*
X032100Y015050D01*
X032100Y014952D02*
X033250Y014952D01*
X033182Y014853D02*
X032100Y014853D01*
X032100Y014755D02*
X033159Y014755D01*
X033171Y014656D02*
X032100Y014656D01*
X032100Y014558D02*
X032356Y014558D01*
X032151Y014459D02*
X032100Y014459D01*
X032664Y014558D02*
X033222Y014558D01*
X033240Y014459D02*
X032869Y014459D01*
X032967Y014361D02*
X033240Y014361D01*
X033240Y014262D02*
X033034Y014262D01*
X033075Y014164D02*
X033217Y014164D01*
X033118Y014065D02*
X033102Y014065D01*
X031380Y014656D02*
X031349Y014656D01*
X031343Y014755D02*
X031380Y014755D01*
X031380Y014853D02*
X031343Y014853D01*
X031343Y014952D02*
X031380Y014952D01*
X031380Y015050D02*
X031338Y015050D01*
X031338Y015149D02*
X031380Y015149D01*
X031380Y015247D02*
X031338Y015247D01*
X031380Y015346D02*
X031087Y015346D01*
X031087Y015444D02*
X031380Y015444D01*
X031380Y015543D02*
X031087Y015543D01*
X031141Y015641D02*
X031380Y015641D01*
X031380Y015740D02*
X031191Y015740D01*
X031200Y015838D02*
X031380Y015838D01*
X031380Y015937D02*
X031176Y015937D01*
X031105Y016035D02*
X031360Y016035D01*
X031320Y016134D02*
X030832Y016134D01*
X030832Y016232D02*
X031320Y016232D01*
X031354Y016331D02*
X030832Y016331D01*
X030832Y016429D02*
X031439Y016429D01*
X031781Y016429D02*
X034012Y016429D01*
X034012Y016331D02*
X031866Y016331D01*
X031900Y016232D02*
X034012Y016232D01*
X034012Y016134D02*
X031900Y016134D01*
X032115Y016035D02*
X034012Y016035D01*
X034012Y015937D02*
X032186Y015937D01*
X032210Y015838D02*
X034012Y015838D01*
X034012Y015740D02*
X032201Y015740D01*
X032151Y015641D02*
X034012Y015641D01*
X034012Y015543D02*
X032100Y015543D01*
X032100Y015444D02*
X034012Y015444D01*
X034012Y015346D02*
X032100Y015346D01*
X032100Y015247D02*
X034012Y015247D01*
X034012Y015149D02*
X032100Y015149D01*
X031093Y014262D02*
X028273Y014262D01*
X028273Y014164D02*
X031120Y014164D01*
X031120Y014065D02*
X028273Y014065D01*
X028273Y013967D02*
X031120Y013967D01*
X031120Y013868D02*
X028273Y013868D01*
X028273Y013770D02*
X031120Y013770D01*
X031120Y013671D02*
X028273Y013671D01*
X028273Y013573D02*
X031120Y013573D01*
X031120Y013474D02*
X028273Y013474D01*
X028209Y013376D02*
X031120Y013376D01*
X030994Y014361D02*
X028273Y014361D01*
X028273Y014459D02*
X030896Y014459D01*
X028068Y015344D02*
X028068Y015943D01*
X028066Y015944D01*
X027984Y016026D01*
X027940Y016132D01*
X027940Y016248D01*
X027984Y016354D01*
X028066Y016436D01*
X028140Y016467D01*
X028140Y016548D01*
X028184Y016654D01*
X028266Y016736D01*
X028340Y016767D01*
X028340Y016848D01*
X028384Y016954D01*
X028466Y017036D01*
X028572Y017080D01*
X028688Y017080D01*
X028794Y017036D01*
X028836Y016994D01*
X028836Y017034D01*
X028764Y017106D01*
X028720Y017212D01*
X028720Y017328D01*
X028764Y017434D01*
X028846Y017516D01*
X028920Y017547D01*
X028920Y017628D01*
X028964Y017734D01*
X029046Y017816D01*
X029152Y017860D01*
X029260Y017860D01*
X029260Y018300D01*
X029244Y018316D01*
X029200Y018422D01*
X029200Y018538D01*
X029244Y018644D01*
X029326Y018726D01*
X029432Y018770D01*
X029548Y018770D01*
X029654Y018726D01*
X029736Y018644D01*
X029780Y018538D01*
X029780Y018470D01*
X029848Y018470D01*
X029954Y018426D01*
X030036Y018344D01*
X030080Y018238D01*
X030080Y018166D01*
X030157Y018166D01*
X030264Y018122D01*
X030346Y018040D01*
X030390Y017934D01*
X030390Y017818D01*
X030346Y017712D01*
X030320Y017686D01*
X030320Y017541D01*
X030585Y017806D01*
X030585Y018244D01*
X030641Y018300D01*
X030585Y018356D01*
X030585Y018497D01*
X030568Y018490D01*
X030452Y018490D01*
X030346Y018534D01*
X030264Y018616D01*
X030220Y018722D01*
X030220Y018838D01*
X030264Y018944D01*
X030346Y019026D01*
X030452Y019070D01*
X030568Y019070D01*
X030635Y019042D01*
X030673Y019080D01*
X031387Y019080D01*
X031425Y019042D01*
X031463Y019080D01*
X032177Y019080D01*
X032265Y018992D01*
X032265Y018356D01*
X032209Y018300D01*
X032235Y018274D01*
X032255Y018240D01*
X032265Y018202D01*
X032265Y018104D02*
X032576Y018104D01*
X032638Y018005D02*
X032265Y018005D01*
X032265Y017876D02*
X031870Y017876D01*
X031870Y017520D01*
X032135Y017520D01*
X032173Y017530D01*
X032207Y017550D01*
X032235Y017578D01*
X032255Y017612D01*
X032265Y017650D01*
X032265Y017876D01*
X032265Y017808D02*
X032840Y017808D01*
X032736Y017907D02*
X031870Y017907D01*
X031870Y017808D02*
X031770Y017808D01*
X031770Y017710D02*
X031870Y017710D01*
X031870Y017611D02*
X031770Y017611D01*
X032254Y017611D02*
X033307Y017611D01*
X033011Y017710D02*
X032265Y017710D01*
X032210Y018301D02*
X032474Y018301D01*
X032484Y018263D02*
X032410Y018538D01*
X032410Y018822D01*
X032484Y019097D01*
X032532Y019180D01*
X023642Y019180D01*
X023705Y019117D01*
X023705Y018283D01*
X023617Y018195D01*
X023510Y018195D01*
X023510Y017315D01*
X023522Y017320D01*
X023638Y017320D01*
X023744Y017276D01*
X023826Y017194D01*
X023870Y017088D01*
X023870Y017020D01*
X023938Y017020D01*
X023950Y017015D01*
X023950Y018300D01*
X023934Y018316D01*
X023890Y018422D01*
X023890Y018538D01*
X023934Y018644D01*
X024016Y018726D01*
X024122Y018770D01*
X024238Y018770D01*
X024344Y018726D01*
X024426Y018644D01*
X024470Y018538D01*
X024470Y018470D01*
X024538Y018470D01*
X024560Y018461D01*
X024560Y018600D01*
X024544Y018616D01*
X024500Y018722D01*
X024500Y018838D01*
X024544Y018944D01*
X024626Y019026D01*
X024732Y019070D01*
X024848Y019070D01*
X024954Y019026D01*
X025036Y018944D01*
X025080Y018838D01*
X025080Y018722D01*
X025036Y018616D01*
X025020Y018600D01*
X025020Y017315D01*
X025032Y017320D01*
X025148Y017320D01*
X025254Y017276D01*
X025300Y017230D01*
X025300Y017965D01*
X025435Y018100D01*
X026175Y018100D01*
X026175Y018194D01*
X026231Y018250D01*
X026205Y018276D01*
X026185Y018310D01*
X026175Y018348D01*
X026175Y018574D01*
X026570Y018574D01*
X026570Y018674D01*
X026175Y018674D01*
X026175Y018900D01*
X026185Y018938D01*
X026205Y018972D01*
X026233Y019000D01*
X026267Y019020D01*
X026305Y019030D01*
X026570Y019030D01*
X026570Y018674D01*
X026670Y018674D01*
X027390Y018674D01*
X027390Y018574D01*
X027065Y018574D01*
X026670Y018574D01*
X026670Y018674D01*
X026670Y019030D01*
X026935Y019030D01*
X026973Y019020D01*
X027007Y019000D01*
X027030Y018977D01*
X027053Y019000D01*
X027087Y019020D01*
X027125Y019030D01*
X027390Y019030D01*
X027390Y018674D01*
X027490Y018674D01*
X027885Y018674D01*
X027885Y018900D01*
X027875Y018938D01*
X027855Y018972D01*
X027827Y019000D01*
X027793Y019020D01*
X027755Y019030D01*
X027490Y019030D01*
X027490Y018674D01*
X027490Y018574D01*
X027885Y018574D01*
X027885Y018348D01*
X027875Y018310D01*
X027855Y018276D01*
X027829Y018250D01*
X027885Y018194D01*
X027885Y018153D01*
X027902Y018160D01*
X028018Y018160D01*
X028124Y018116D01*
X028206Y018034D01*
X028250Y017928D01*
X028250Y017812D01*
X028206Y017706D01*
X028124Y017624D01*
X028018Y017580D01*
X027902Y017580D01*
X027885Y017587D01*
X027885Y017558D01*
X027797Y017470D01*
X027083Y017470D01*
X027030Y017523D01*
X026977Y017470D01*
X026263Y017470D01*
X026175Y017558D01*
X026175Y017640D01*
X025760Y017640D01*
X025760Y017075D01*
X025772Y017080D01*
X025888Y017080D01*
X025994Y017036D01*
X026076Y016954D01*
X026120Y016848D01*
X026120Y016780D01*
X026188Y016780D01*
X026294Y016736D01*
X026376Y016654D01*
X026420Y016548D01*
X026420Y016432D01*
X026376Y016326D01*
X026320Y016270D01*
X026320Y015351D01*
X026342Y015360D01*
X026458Y015360D01*
X026515Y015336D01*
X026515Y015392D01*
X026603Y015480D01*
X027317Y015480D01*
X027405Y015392D01*
X027405Y015300D01*
X027606Y015300D01*
X027650Y015344D01*
X028068Y015344D01*
X028068Y015346D02*
X027405Y015346D01*
X027353Y015444D02*
X028068Y015444D01*
X028068Y015543D02*
X026320Y015543D01*
X026320Y015641D02*
X028068Y015641D01*
X028068Y015740D02*
X026320Y015740D01*
X026320Y015838D02*
X028068Y015838D01*
X028068Y015937D02*
X026320Y015937D01*
X026320Y016035D02*
X027980Y016035D01*
X027940Y016134D02*
X026320Y016134D01*
X026320Y016232D02*
X027940Y016232D01*
X027974Y016331D02*
X026378Y016331D01*
X026419Y016429D02*
X028059Y016429D01*
X028140Y016528D02*
X026420Y016528D01*
X026388Y016626D02*
X028172Y016626D01*
X028254Y016725D02*
X026306Y016725D01*
X026120Y016823D02*
X028340Y016823D01*
X028371Y016922D02*
X026089Y016922D01*
X026010Y017020D02*
X028450Y017020D01*
X028759Y017119D02*
X025760Y017119D01*
X025760Y017217D02*
X028720Y017217D01*
X028720Y017316D02*
X025760Y017316D01*
X025760Y017414D02*
X028756Y017414D01*
X028842Y017513D02*
X027840Y017513D01*
X028093Y017611D02*
X028920Y017611D01*
X028954Y017710D02*
X028207Y017710D01*
X028248Y017808D02*
X029038Y017808D01*
X029260Y017907D02*
X028250Y017907D01*
X028218Y018005D02*
X029260Y018005D01*
X029260Y018104D02*
X028137Y018104D01*
X027877Y018202D02*
X029260Y018202D01*
X029259Y018301D02*
X027869Y018301D01*
X027885Y018399D02*
X029210Y018399D01*
X029200Y018498D02*
X027885Y018498D01*
X027885Y018695D02*
X029294Y018695D01*
X029224Y018596D02*
X027490Y018596D01*
X027490Y018695D02*
X027390Y018695D01*
X027390Y018793D02*
X027490Y018793D01*
X027490Y018892D02*
X027390Y018892D01*
X027390Y018990D02*
X027490Y018990D01*
X027837Y018990D02*
X030310Y018990D01*
X030242Y018892D02*
X027885Y018892D01*
X027885Y018793D02*
X030220Y018793D01*
X030232Y018695D02*
X029686Y018695D01*
X029756Y018596D02*
X030284Y018596D01*
X030434Y018498D02*
X029780Y018498D01*
X029981Y018399D02*
X030585Y018399D01*
X030640Y018301D02*
X030054Y018301D01*
X030080Y018202D02*
X030585Y018202D01*
X030585Y018104D02*
X030282Y018104D01*
X030360Y018005D02*
X030585Y018005D01*
X030585Y017907D02*
X030390Y017907D01*
X030386Y017808D02*
X030585Y017808D01*
X030488Y017710D02*
X030343Y017710D01*
X030320Y017611D02*
X030390Y017611D01*
X030843Y017414D02*
X034012Y017414D01*
X034012Y017316D02*
X030745Y017316D01*
X030813Y017217D02*
X034012Y017217D01*
X034012Y017119D02*
X030904Y017119D01*
X030942Y017020D02*
X034012Y017020D01*
X034012Y016922D02*
X030942Y016922D01*
X030905Y016823D02*
X034012Y016823D01*
X034012Y016725D02*
X030832Y016725D01*
X030832Y016626D02*
X034012Y016626D01*
X034012Y016528D02*
X030832Y016528D01*
X030942Y017513D02*
X034012Y017513D01*
X034012Y017611D02*
X033673Y017611D01*
X033969Y017710D02*
X034012Y017710D01*
X032447Y018399D02*
X032265Y018399D01*
X032265Y018498D02*
X032421Y018498D01*
X032410Y018596D02*
X032265Y018596D01*
X032265Y018695D02*
X032410Y018695D01*
X032410Y018793D02*
X032265Y018793D01*
X032265Y018892D02*
X032429Y018892D01*
X032455Y018990D02*
X032265Y018990D01*
X032481Y019089D02*
X023705Y019089D01*
X023705Y018990D02*
X024590Y018990D01*
X024522Y018892D02*
X023705Y018892D01*
X023705Y018793D02*
X024500Y018793D01*
X024512Y018695D02*
X024376Y018695D01*
X024446Y018596D02*
X024560Y018596D01*
X024560Y018498D02*
X024470Y018498D01*
X025020Y018498D02*
X026175Y018498D01*
X026175Y018399D02*
X025020Y018399D01*
X025020Y018301D02*
X026191Y018301D01*
X026183Y018202D02*
X025020Y018202D01*
X025020Y018104D02*
X026175Y018104D01*
X026175Y017611D02*
X025760Y017611D01*
X025760Y017513D02*
X026220Y017513D01*
X025300Y017513D02*
X025020Y017513D01*
X025020Y017611D02*
X025300Y017611D01*
X025300Y017710D02*
X025020Y017710D01*
X025020Y017808D02*
X025300Y017808D01*
X025300Y017907D02*
X025020Y017907D01*
X025020Y018005D02*
X025340Y018005D01*
X025020Y018596D02*
X026570Y018596D01*
X026570Y018695D02*
X026670Y018695D01*
X026670Y018793D02*
X026570Y018793D01*
X026570Y018892D02*
X026670Y018892D01*
X026670Y018990D02*
X026570Y018990D01*
X026223Y018990D02*
X024990Y018990D01*
X025058Y018892D02*
X026175Y018892D01*
X026175Y018793D02*
X025080Y018793D01*
X025068Y018695D02*
X026175Y018695D01*
X026670Y018596D02*
X027390Y018596D01*
X027043Y018990D02*
X027017Y018990D01*
X027020Y017513D02*
X027040Y017513D01*
X025300Y017414D02*
X025020Y017414D01*
X025020Y017316D02*
X025022Y017316D01*
X025158Y017316D02*
X025300Y017316D01*
X023950Y017316D02*
X023648Y017316D01*
X023512Y017316D02*
X023510Y017316D01*
X023510Y017414D02*
X023950Y017414D01*
X023950Y017513D02*
X023510Y017513D01*
X023510Y017611D02*
X023950Y017611D01*
X023950Y017710D02*
X023510Y017710D01*
X023510Y017808D02*
X023950Y017808D01*
X023950Y017907D02*
X023510Y017907D01*
X023510Y018005D02*
X023950Y018005D01*
X023950Y018104D02*
X023510Y018104D01*
X023624Y018202D02*
X023950Y018202D01*
X023949Y018301D02*
X023705Y018301D01*
X023705Y018399D02*
X023900Y018399D01*
X023890Y018498D02*
X023705Y018498D01*
X023705Y018596D02*
X023914Y018596D01*
X023984Y018695D02*
X023705Y018695D01*
X022970Y018195D02*
X022970Y015176D01*
X022950Y015128D01*
X022950Y015012D01*
X022970Y014964D01*
X022970Y014941D01*
X022916Y014996D01*
X022240Y014996D01*
X022152Y014908D01*
X022152Y014232D01*
X022240Y014144D01*
X022916Y014144D01*
X022970Y014198D01*
X022970Y013989D01*
X022963Y013993D01*
X022924Y014003D01*
X021734Y014003D01*
X021734Y012840D01*
X021634Y012840D01*
X021634Y012740D01*
X020314Y012740D01*
X020314Y011707D01*
X020324Y011669D01*
X020344Y011635D01*
X020372Y011607D01*
X020406Y011587D01*
X020444Y011577D01*
X021634Y011577D01*
X021634Y012740D01*
X021734Y012740D01*
X021734Y011577D01*
X022924Y011577D01*
X022963Y011587D01*
X022970Y011591D01*
X022970Y011146D01*
X022950Y011098D01*
X022950Y010982D01*
X022994Y010876D01*
X023076Y010794D01*
X023182Y010750D01*
X023298Y010750D01*
X023350Y010772D01*
X023350Y010320D01*
X023334Y010304D01*
X023290Y010198D01*
X023290Y010137D01*
X023227Y010200D01*
X022513Y010200D01*
X022425Y010112D01*
X022337Y010200D01*
X021623Y010200D01*
X021535Y010112D01*
X021535Y010024D01*
X021525Y010024D01*
X021525Y010112D01*
X021437Y010200D01*
X020850Y010200D01*
X020850Y010934D01*
X020870Y010982D01*
X020870Y011098D01*
X020826Y011204D01*
X020744Y011286D01*
X020638Y011330D01*
X020522Y011330D01*
X020416Y011286D01*
X020334Y011204D01*
X020290Y011098D01*
X020290Y010982D01*
X020310Y010934D01*
X020310Y009366D01*
X020351Y009267D01*
X020427Y009191D01*
X020635Y008983D01*
X020635Y008728D01*
X020723Y008640D01*
X020810Y008640D01*
X020810Y007836D01*
X020655Y007771D01*
X020529Y007645D01*
X020460Y007480D01*
X020460Y006700D01*
X020529Y006535D01*
X020655Y006409D01*
X020820Y006340D01*
X021000Y006340D01*
X021165Y006409D01*
X021291Y006535D01*
X021360Y006700D01*
X021360Y007480D01*
X021350Y007504D01*
X021350Y008640D01*
X021437Y008640D01*
X021525Y008728D01*
X021525Y009364D01*
X021469Y009420D01*
X021525Y009476D01*
X021525Y009564D01*
X021535Y009564D01*
X021535Y009476D01*
X021591Y009420D01*
X021565Y009394D01*
X021545Y009360D01*
X021535Y009322D01*
X021535Y009096D01*
X021930Y009096D01*
X021930Y008996D01*
X021535Y008996D01*
X021535Y008770D01*
X021545Y008732D01*
X021565Y008698D01*
X021593Y008670D01*
X021627Y008650D01*
X021665Y008640D01*
X021930Y008640D01*
X021930Y008996D01*
X022030Y008996D01*
X022030Y009096D01*
X022820Y009096D01*
X022820Y008996D01*
X022425Y008996D01*
X022030Y008996D01*
X022030Y008640D01*
X022295Y008640D01*
X022333Y008650D01*
X022367Y008670D01*
X022395Y008698D01*
X022415Y008732D01*
X022425Y008769D01*
X022435Y008732D01*
X022455Y008698D01*
X022483Y008670D01*
X022517Y008650D01*
X022555Y008640D01*
X022820Y008640D01*
X022820Y008996D01*
X022920Y008996D01*
X022920Y009096D01*
X023315Y009096D01*
X023315Y009322D01*
X023305Y009360D01*
X023285Y009394D01*
X023259Y009420D01*
X023315Y009476D01*
X023315Y009540D01*
X023412Y009500D01*
X023528Y009500D01*
X023634Y009544D01*
X023716Y009626D01*
X023760Y009732D01*
X023760Y009848D01*
X023741Y009893D01*
X023744Y009894D01*
X023826Y009976D01*
X023870Y010082D01*
X023870Y010110D01*
X023938Y010110D01*
X024044Y010154D01*
X024126Y010236D01*
X024170Y010342D01*
X024170Y010410D01*
X024238Y010410D01*
X024260Y010419D01*
X024260Y009070D01*
X024244Y009054D01*
X024200Y008948D01*
X024200Y008832D01*
X024244Y008726D01*
X024326Y008644D01*
X024432Y008600D01*
X024548Y008600D01*
X024654Y008644D01*
X024736Y008726D01*
X024780Y008832D01*
X024780Y008948D01*
X024736Y009054D01*
X024720Y009070D01*
X024720Y014110D01*
X024736Y014126D01*
X024780Y014232D01*
X024780Y014348D01*
X024736Y014454D01*
X024654Y014536D01*
X024548Y014580D01*
X024432Y014580D01*
X024420Y014575D01*
X024420Y015475D01*
X024432Y015470D01*
X024500Y015470D01*
X024500Y015402D01*
X024544Y015296D01*
X024626Y015214D01*
X024732Y015170D01*
X024848Y015170D01*
X024860Y015175D01*
X024860Y013040D01*
X024844Y013024D01*
X024800Y012918D01*
X024800Y012802D01*
X024844Y012696D01*
X024926Y012614D01*
X025032Y012570D01*
X025148Y012570D01*
X025160Y012575D01*
X025160Y011520D01*
X025144Y011504D01*
X024720Y011504D01*
X024720Y011406D02*
X025103Y011406D01*
X025100Y011398D02*
X025100Y011282D01*
X025144Y011176D01*
X025226Y011094D01*
X025332Y011050D01*
X025448Y011050D01*
X025554Y011094D01*
X025636Y011176D01*
X025680Y011282D01*
X025680Y011398D01*
X025680Y011307D02*
X028068Y011307D01*
X028068Y011209D02*
X025649Y011209D01*
X025570Y011110D02*
X028068Y011110D01*
X028068Y011012D02*
X024720Y011012D01*
X024720Y011110D02*
X025210Y011110D01*
X025131Y011209D02*
X024720Y011209D01*
X024720Y011307D02*
X025100Y011307D01*
X025100Y011398D02*
X025144Y011504D01*
X025160Y011603D02*
X024720Y011603D01*
X024720Y011701D02*
X025160Y011701D01*
X025160Y011800D02*
X024720Y011800D01*
X024720Y011898D02*
X025160Y011898D01*
X025160Y011997D02*
X024720Y011997D01*
X024720Y012095D02*
X025160Y012095D01*
X025160Y012194D02*
X024720Y012194D01*
X024720Y012292D02*
X025160Y012292D01*
X025160Y012391D02*
X024720Y012391D01*
X024720Y012489D02*
X025160Y012489D01*
X024990Y012588D02*
X024720Y012588D01*
X024720Y012686D02*
X024854Y012686D01*
X024807Y012785D02*
X024720Y012785D01*
X024720Y012883D02*
X024800Y012883D01*
X024826Y012982D02*
X024720Y012982D01*
X024720Y013080D02*
X024860Y013080D01*
X024860Y013179D02*
X024720Y013179D01*
X024720Y013277D02*
X024860Y013277D01*
X024860Y013376D02*
X024720Y013376D01*
X024720Y013474D02*
X024860Y013474D01*
X024860Y013573D02*
X024720Y013573D01*
X024720Y013671D02*
X024860Y013671D01*
X024860Y013770D02*
X024720Y013770D01*
X024720Y013868D02*
X024860Y013868D01*
X024860Y013967D02*
X024720Y013967D01*
X024720Y014065D02*
X024860Y014065D01*
X024860Y014164D02*
X024752Y014164D01*
X024780Y014262D02*
X024860Y014262D01*
X024860Y014361D02*
X024775Y014361D01*
X024731Y014459D02*
X024860Y014459D01*
X024860Y014558D02*
X024602Y014558D01*
X024420Y014656D02*
X024860Y014656D01*
X024860Y014755D02*
X024420Y014755D01*
X024420Y014853D02*
X024860Y014853D01*
X024860Y014952D02*
X024420Y014952D01*
X024420Y015050D02*
X024860Y015050D01*
X024860Y015149D02*
X024420Y015149D01*
X024420Y015247D02*
X024593Y015247D01*
X024524Y015346D02*
X024420Y015346D01*
X024420Y015444D02*
X024500Y015444D01*
X022970Y015444D02*
X018860Y015444D01*
X018860Y015434D02*
X018860Y015534D01*
X019255Y015534D01*
X019255Y015760D01*
X019245Y015798D01*
X019225Y015832D01*
X019197Y015860D01*
X019163Y015880D01*
X019125Y015890D01*
X018860Y015890D01*
X018860Y015534D01*
X018760Y015534D01*
X018760Y015434D01*
X018365Y015434D01*
X018365Y015208D01*
X018375Y015170D01*
X018395Y015136D01*
X018421Y015110D01*
X018400Y015089D01*
X018381Y015089D01*
X018381Y015116D01*
X018294Y015204D01*
X017106Y015204D01*
X017104Y015201D01*
X016980Y015325D01*
X016980Y015670D01*
X016927Y015798D01*
X016835Y015890D01*
X016844Y015894D01*
X016926Y015976D01*
X016970Y016082D01*
X016970Y016198D01*
X016950Y016246D01*
X016950Y016634D01*
X016970Y016682D01*
X016970Y016798D01*
X016926Y016904D01*
X016844Y016986D01*
X016738Y017030D01*
X016622Y017030D01*
X016516Y016986D01*
X016434Y016904D01*
X016390Y016798D01*
X016390Y016682D01*
X016410Y016634D01*
X016410Y016246D01*
X016390Y016198D01*
X016390Y016082D01*
X016434Y015976D01*
X016489Y015921D01*
X016432Y015897D01*
X016333Y015798D01*
X016280Y015670D01*
X016280Y015110D01*
X016333Y014982D01*
X016773Y014542D01*
X016872Y014443D01*
X017000Y014390D01*
X017019Y014390D01*
X017019Y014362D01*
X017106Y014274D01*
X018294Y014274D01*
X018381Y014362D01*
X018381Y014389D01*
X018394Y014389D01*
X018453Y014330D01*
X018460Y014330D01*
X018460Y014071D01*
X018460Y014070D01*
X018460Y014034D01*
X018433Y014034D01*
X018345Y013947D01*
X018345Y013429D01*
X018433Y013341D01*
X018733Y013341D01*
X018741Y013338D01*
X018880Y013338D01*
X018887Y013341D01*
X019187Y013341D01*
X019275Y013429D01*
X019275Y013790D01*
X020314Y013790D01*
X020314Y012840D01*
X021634Y012840D01*
X021634Y014003D01*
X021010Y014003D01*
X021151Y014144D01*
X021420Y014144D01*
X021508Y014232D01*
X021508Y014908D01*
X021420Y014996D01*
X020744Y014996D01*
X020656Y014908D01*
X020656Y014639D01*
X020507Y014490D01*
X019255Y014490D01*
X019255Y015054D01*
X019199Y015110D01*
X019225Y015136D01*
X019245Y015170D01*
X019255Y015208D01*
X019255Y015434D01*
X018860Y015434D01*
X018760Y015444D02*
X018357Y015444D01*
X018352Y015434D02*
X018371Y015468D01*
X018381Y015506D01*
X018381Y015534D01*
X018760Y015534D01*
X018760Y015890D01*
X018495Y015890D01*
X018457Y015880D01*
X018423Y015860D01*
X018395Y015832D01*
X018375Y015798D01*
X018373Y015791D01*
X017750Y015791D01*
X017750Y015376D01*
X018251Y015376D01*
X018289Y015386D01*
X018324Y015406D01*
X018352Y015434D01*
X018365Y015346D02*
X016980Y015346D01*
X016980Y015444D02*
X017043Y015444D01*
X017048Y015434D02*
X017076Y015406D01*
X017111Y015386D01*
X017149Y015376D01*
X017650Y015376D01*
X017650Y015791D01*
X017750Y015791D01*
X017750Y015891D01*
X018381Y015891D01*
X018381Y016176D01*
X018371Y016214D01*
X018352Y016248D01*
X018324Y016276D01*
X018289Y016296D01*
X018251Y016306D01*
X017750Y016306D01*
X017750Y015891D01*
X017650Y015891D01*
X017650Y015791D01*
X017019Y015791D01*
X017019Y015506D01*
X017029Y015468D01*
X017048Y015434D01*
X017019Y015543D02*
X016980Y015543D01*
X016980Y015641D02*
X017019Y015641D01*
X017019Y015740D02*
X016951Y015740D01*
X016887Y015838D02*
X017650Y015838D01*
X017650Y015891D02*
X017019Y015891D01*
X017019Y016176D01*
X017029Y016214D01*
X017048Y016248D01*
X017076Y016276D01*
X017111Y016296D01*
X017149Y016306D01*
X017650Y016306D01*
X017650Y015891D01*
X017650Y015937D02*
X017750Y015937D01*
X017750Y016035D02*
X017650Y016035D01*
X017650Y016134D02*
X017750Y016134D01*
X017750Y016232D02*
X017650Y016232D01*
X017750Y015838D02*
X018401Y015838D01*
X018381Y015937D02*
X022970Y015937D01*
X022970Y016035D02*
X018381Y016035D01*
X018381Y016134D02*
X022970Y016134D01*
X022970Y016232D02*
X018361Y016232D01*
X018760Y015838D02*
X018860Y015838D01*
X018860Y015740D02*
X018760Y015740D01*
X018760Y015641D02*
X018860Y015641D01*
X018860Y015543D02*
X018760Y015543D01*
X019255Y015543D02*
X022970Y015543D01*
X022970Y015641D02*
X019255Y015641D01*
X019255Y015740D02*
X022970Y015740D01*
X022970Y015838D02*
X019219Y015838D01*
X019255Y015346D02*
X022970Y015346D01*
X022970Y015247D02*
X019255Y015247D01*
X019233Y015149D02*
X022958Y015149D01*
X022950Y015050D02*
X019255Y015050D01*
X019255Y014952D02*
X020700Y014952D01*
X020656Y014853D02*
X019255Y014853D01*
X019255Y014755D02*
X020656Y014755D01*
X020656Y014656D02*
X019255Y014656D01*
X019255Y014558D02*
X020575Y014558D01*
X021072Y014065D02*
X022970Y014065D01*
X022970Y014164D02*
X022935Y014164D01*
X022221Y014164D02*
X021439Y014164D01*
X021508Y014262D02*
X022152Y014262D01*
X022152Y014361D02*
X021508Y014361D01*
X021508Y014459D02*
X022152Y014459D01*
X022152Y014558D02*
X021508Y014558D01*
X021508Y014656D02*
X022152Y014656D01*
X022152Y014755D02*
X021508Y014755D01*
X021508Y014853D02*
X022152Y014853D01*
X022196Y014952D02*
X021464Y014952D01*
X021634Y013967D02*
X021734Y013967D01*
X021734Y013868D02*
X021634Y013868D01*
X021634Y013770D02*
X021734Y013770D01*
X021734Y013671D02*
X021634Y013671D01*
X021634Y013573D02*
X021734Y013573D01*
X021734Y013474D02*
X021634Y013474D01*
X021634Y013376D02*
X021734Y013376D01*
X021734Y013277D02*
X021634Y013277D01*
X021634Y013179D02*
X021734Y013179D01*
X021734Y013080D02*
X021634Y013080D01*
X021634Y012982D02*
X021734Y012982D01*
X021734Y012883D02*
X021634Y012883D01*
X021634Y012785D02*
X018366Y012785D01*
X018366Y012883D02*
X020314Y012883D01*
X020314Y012982D02*
X018366Y012982D01*
X018366Y013080D02*
X020314Y013080D01*
X020314Y013179D02*
X018366Y013179D01*
X018366Y013277D02*
X020314Y013277D01*
X020314Y013376D02*
X019222Y013376D01*
X019275Y013474D02*
X020314Y013474D01*
X020314Y013573D02*
X019275Y013573D01*
X019275Y013671D02*
X020314Y013671D01*
X020314Y013770D02*
X019275Y013770D01*
X018460Y014065D02*
X012290Y014065D01*
X012290Y013967D02*
X018365Y013967D01*
X018345Y013868D02*
X012290Y013868D01*
X012290Y013770D02*
X018345Y013770D01*
X018345Y013671D02*
X012290Y013671D01*
X012290Y013631D02*
X012290Y015489D01*
X012294Y015500D01*
X012294Y015700D01*
X012217Y015886D01*
X012076Y016028D01*
X011890Y016104D01*
X011690Y016104D01*
X011679Y016100D01*
X010239Y016100D01*
X010239Y016135D01*
X010151Y016222D01*
X009082Y016222D01*
X008994Y016135D01*
X008994Y015065D01*
X009082Y014978D01*
X010151Y014978D01*
X010239Y015065D01*
X010239Y015100D01*
X011290Y015100D01*
X011290Y013631D01*
X011325Y013546D01*
X011325Y013313D01*
X011413Y013225D01*
X012167Y013225D01*
X012255Y013313D01*
X012255Y013546D01*
X012290Y013631D01*
X012266Y013573D02*
X018345Y013573D01*
X018345Y013474D02*
X012255Y013474D01*
X012255Y013376D02*
X016394Y013376D01*
X016392Y013374D02*
X016364Y013346D01*
X016344Y013312D01*
X016334Y013274D01*
X016334Y012950D01*
X016749Y012950D01*
X016749Y013404D01*
X016464Y013404D01*
X016426Y013394D01*
X016392Y013374D01*
X016335Y013277D02*
X012219Y013277D01*
X011361Y013277D02*
X011099Y013277D01*
X011135Y013313D02*
X011047Y013225D01*
X010293Y013225D01*
X010288Y013230D01*
X010169Y013230D01*
X010169Y013195D01*
X010081Y013108D01*
X009336Y013108D01*
X009340Y013106D01*
X009422Y013024D01*
X009466Y012918D01*
X009466Y012802D01*
X009459Y012785D01*
X009494Y012785D01*
X009550Y012729D01*
X009606Y012785D01*
X010242Y012785D01*
X010330Y012697D01*
X010330Y012565D01*
X010445Y012450D01*
X010468Y012450D01*
X010485Y012443D01*
X010460Y012502D01*
X010460Y012618D01*
X010504Y012724D01*
X010586Y012806D01*
X010692Y012850D01*
X010808Y012850D01*
X010914Y012806D01*
X010996Y012724D01*
X011040Y012618D01*
X011040Y012502D01*
X010996Y012396D01*
X010980Y012380D01*
X010980Y009595D01*
X010845Y009460D01*
X010390Y009460D01*
X010390Y009333D01*
X010302Y009245D01*
X009666Y009245D01*
X009610Y009301D01*
X009554Y009245D01*
X008918Y009245D01*
X008830Y009333D01*
X008830Y009460D01*
X008810Y009460D01*
X008810Y009333D01*
X008722Y009245D01*
X008086Y009245D01*
X008030Y009301D01*
X007974Y009245D01*
X007338Y009245D01*
X007250Y009333D01*
X007250Y010047D01*
X007338Y010135D01*
X007426Y010135D01*
X007426Y010340D01*
X007410Y010356D01*
X007366Y010462D01*
X007366Y010578D01*
X007373Y010595D01*
X007338Y010595D01*
X007250Y010683D01*
X007250Y010810D01*
X007073Y010810D01*
X007073Y010057D01*
X006985Y009969D01*
X006100Y009969D01*
X006391Y009679D01*
X006985Y009679D01*
X007073Y009591D01*
X007073Y008403D01*
X006985Y008316D01*
X005798Y008316D01*
X005710Y008403D01*
X005710Y008860D01*
X005080Y009491D01*
X004931Y009640D01*
X004850Y009835D01*
X004850Y009999D01*
X004820Y009969D01*
X003633Y009969D01*
X003545Y010057D01*
X003545Y011244D01*
X003633Y011332D01*
X004820Y011332D01*
X004850Y011302D01*
X004850Y011653D01*
X004820Y011623D01*
X003633Y011623D01*
X003545Y011711D01*
X003545Y012898D01*
X003633Y012986D01*
X004820Y012986D01*
X004850Y012956D01*
X004850Y013338D01*
X004128Y014059D01*
X003603Y014059D01*
X003515Y014147D01*
X003515Y015334D01*
X003603Y015422D01*
X004790Y015422D01*
X004878Y015334D01*
X004878Y014809D01*
X005450Y014237D01*
X005469Y014237D01*
X005487Y014230D01*
X005680Y014230D01*
X005680Y015334D01*
X005768Y015422D01*
X006955Y015422D01*
X007043Y015334D01*
X007043Y014230D01*
X007191Y014230D01*
X007191Y014265D01*
X007279Y014352D01*
X008348Y014352D01*
X008436Y014265D01*
X008436Y013195D01*
X008391Y013150D01*
X008442Y013150D01*
X008548Y013106D01*
X008630Y013024D01*
X008674Y012918D01*
X008674Y012802D01*
X008667Y012785D01*
X008702Y012785D01*
X008780Y012707D01*
X008858Y012785D01*
X008893Y012785D01*
X008886Y012802D01*
X008886Y012918D01*
X008930Y013024D01*
X009012Y013106D01*
X009016Y013108D01*
X009012Y013108D01*
X008924Y013195D01*
X008924Y014265D01*
X009012Y014352D01*
X010081Y014352D01*
X010169Y014265D01*
X010169Y014230D01*
X010288Y014230D01*
X010293Y014235D01*
X011047Y014235D01*
X011135Y014147D01*
X011135Y013914D01*
X011170Y013829D01*
X011170Y013631D01*
X011135Y013546D01*
X011135Y013313D01*
X011135Y013376D02*
X011325Y013376D01*
X011325Y013474D02*
X011135Y013474D01*
X011146Y013573D02*
X011314Y013573D01*
X011290Y013671D02*
X011170Y013671D01*
X011170Y013770D02*
X011290Y013770D01*
X011290Y013868D02*
X011154Y013868D01*
X011135Y013967D02*
X011290Y013967D01*
X011290Y014065D02*
X011135Y014065D01*
X011119Y014164D02*
X011290Y014164D01*
X011290Y014262D02*
X010169Y014262D01*
X010223Y015050D02*
X011290Y015050D01*
X011290Y014952D02*
X007043Y014952D01*
X007043Y015050D02*
X007283Y015050D01*
X007291Y015035D02*
X007272Y015070D01*
X007261Y015108D01*
X007261Y015550D01*
X007834Y015550D01*
X007934Y015550D01*
X007934Y015650D01*
X008506Y015650D01*
X008506Y016092D01*
X008496Y016130D01*
X008476Y016165D01*
X008448Y016192D01*
X008414Y016212D01*
X008376Y016222D01*
X007934Y016222D01*
X007934Y015650D01*
X007834Y015650D01*
X007834Y016222D01*
X007392Y016222D01*
X007354Y016212D01*
X007319Y016192D01*
X007291Y016165D01*
X007272Y016130D01*
X007261Y016092D01*
X007261Y015650D01*
X007834Y015650D01*
X007834Y015550D01*
X007834Y014978D01*
X007392Y014978D01*
X007354Y014988D01*
X007319Y015008D01*
X007291Y015035D01*
X007261Y015149D02*
X007043Y015149D01*
X007043Y015247D02*
X007261Y015247D01*
X007261Y015346D02*
X007032Y015346D01*
X007261Y015444D02*
X003430Y015444D01*
X003430Y015346D02*
X003526Y015346D01*
X003515Y015247D02*
X003430Y015247D01*
X003430Y015149D02*
X003515Y015149D01*
X003515Y015050D02*
X003430Y015050D01*
X003430Y014952D02*
X003515Y014952D01*
X003515Y014853D02*
X003430Y014853D01*
X003430Y014755D02*
X003515Y014755D01*
X003515Y014656D02*
X003430Y014656D01*
X003430Y014558D02*
X003515Y014558D01*
X003515Y014459D02*
X003430Y014459D01*
X003430Y014361D02*
X003515Y014361D01*
X003515Y014262D02*
X003430Y014262D01*
X003430Y014164D02*
X003515Y014164D01*
X003597Y014065D02*
X003430Y014065D01*
X003430Y013967D02*
X004221Y013967D01*
X004320Y013868D02*
X003430Y013868D01*
X003430Y013770D02*
X004418Y013770D01*
X004517Y013671D02*
X003430Y013671D01*
X003430Y013573D02*
X004615Y013573D01*
X004714Y013474D02*
X003430Y013474D01*
X003430Y013376D02*
X004812Y013376D01*
X004850Y013277D02*
X003430Y013277D01*
X003430Y013179D02*
X004850Y013179D01*
X004850Y013080D02*
X003430Y013080D01*
X003430Y012982D02*
X003629Y012982D01*
X003545Y012883D02*
X003430Y012883D01*
X003430Y012785D02*
X003545Y012785D01*
X003545Y012686D02*
X003430Y012686D01*
X003430Y012588D02*
X003545Y012588D01*
X003545Y012489D02*
X003430Y012489D01*
X003430Y012391D02*
X003545Y012391D01*
X003545Y012292D02*
X003430Y012292D01*
X003430Y012194D02*
X003545Y012194D01*
X003545Y012095D02*
X003430Y012095D01*
X003430Y011997D02*
X003545Y011997D01*
X003545Y011898D02*
X003430Y011898D01*
X003430Y011800D02*
X003545Y011800D01*
X003554Y011701D02*
X003430Y011701D01*
X003430Y011603D02*
X004850Y011603D01*
X004850Y011504D02*
X003430Y011504D01*
X003430Y011406D02*
X004850Y011406D01*
X004845Y011307D02*
X004850Y011307D01*
X003608Y011307D02*
X003430Y011307D01*
X003430Y011209D02*
X003545Y011209D01*
X003545Y011110D02*
X003430Y011110D01*
X003430Y011012D02*
X003545Y011012D01*
X003545Y010913D02*
X003430Y010913D01*
X003430Y010815D02*
X003545Y010815D01*
X003545Y010716D02*
X003430Y010716D01*
X003430Y010618D02*
X003545Y010618D01*
X003545Y010519D02*
X003430Y010519D01*
X003430Y010421D02*
X003545Y010421D01*
X003545Y010322D02*
X003430Y010322D01*
X003430Y010224D02*
X003545Y010224D01*
X003545Y010125D02*
X003430Y010125D01*
X003430Y010027D02*
X003575Y010027D01*
X003430Y009928D02*
X004850Y009928D01*
X004852Y009830D02*
X003430Y009830D01*
X003430Y009731D02*
X004893Y009731D01*
X004820Y009679D02*
X003633Y009679D01*
X003545Y009591D01*
X003545Y008403D01*
X003633Y008316D01*
X004158Y008316D01*
X005143Y007331D01*
X005338Y007250D01*
X007435Y007250D01*
X007435Y006655D01*
X007523Y006567D01*
X010088Y006567D01*
X010176Y006655D01*
X010176Y008905D01*
X010088Y008993D01*
X007523Y008993D01*
X007435Y008905D01*
X007435Y008310D01*
X005663Y008310D01*
X004908Y009065D01*
X004908Y009591D01*
X004820Y009679D01*
X004866Y009633D02*
X004938Y009633D01*
X004908Y009534D02*
X005036Y009534D01*
X005135Y009436D02*
X004908Y009436D01*
X004908Y009337D02*
X005233Y009337D01*
X005332Y009239D02*
X004908Y009239D01*
X004908Y009140D02*
X005430Y009140D01*
X005529Y009042D02*
X004932Y009042D01*
X005030Y008943D02*
X005627Y008943D01*
X005710Y008845D02*
X005129Y008845D01*
X005227Y008746D02*
X005710Y008746D01*
X005710Y008648D02*
X005326Y008648D01*
X005424Y008549D02*
X005710Y008549D01*
X005710Y008451D02*
X005523Y008451D01*
X005621Y008352D02*
X005762Y008352D01*
X004910Y007564D02*
X004229Y007564D01*
X004132Y007590D02*
X003848Y007590D01*
X003573Y007516D01*
X003430Y007434D01*
X003430Y017756D01*
X003573Y017674D01*
X003848Y017600D01*
X004132Y017600D01*
X004407Y017674D01*
X004653Y017816D01*
X004854Y018017D01*
X004996Y018263D01*
X005070Y018538D01*
X005070Y018822D01*
X004996Y019097D01*
X004948Y019180D01*
X005737Y019180D01*
X005723Y019153D01*
X005701Y019085D01*
X005690Y019015D01*
X005690Y018730D01*
X006090Y018730D01*
X006090Y018630D01*
X006190Y018630D01*
X006190Y018730D01*
X006590Y018730D01*
X006590Y019015D01*
X006579Y019085D01*
X006557Y019153D01*
X006543Y019180D01*
X006736Y019180D01*
X006690Y019070D01*
X006690Y018290D01*
X006740Y018170D01*
X006740Y017526D01*
X006801Y017379D01*
X006913Y017267D01*
X007080Y017100D01*
X007080Y016903D01*
X007168Y016815D01*
X007207Y016815D01*
X007200Y016798D01*
X007200Y016682D01*
X007244Y016576D01*
X007326Y016494D01*
X007432Y016450D01*
X007548Y016450D01*
X007654Y016494D01*
X007736Y016576D01*
X007780Y016682D01*
X007780Y016798D01*
X007773Y016815D01*
X007804Y016815D01*
X007860Y016871D01*
X007886Y016845D01*
X007920Y016825D01*
X007958Y016815D01*
X008184Y016815D01*
X008184Y017210D01*
X008284Y017210D01*
X008284Y016815D01*
X008510Y016815D01*
X008548Y016825D01*
X008582Y016845D01*
X008610Y016873D01*
X008630Y016907D01*
X008640Y016945D01*
X008640Y017210D01*
X008284Y017210D01*
X008284Y017310D01*
X008640Y017310D01*
X008640Y017575D01*
X008630Y017613D01*
X008610Y017647D01*
X008582Y017675D01*
X008557Y017690D01*
X008953Y017690D01*
X008910Y017647D01*
X008910Y016933D01*
X008998Y016845D01*
X009045Y016845D01*
X009026Y016798D01*
X009026Y016682D01*
X009070Y016576D01*
X009152Y016494D01*
X009258Y016450D01*
X009374Y016450D01*
X009480Y016494D01*
X009562Y016576D01*
X009606Y016682D01*
X009606Y016798D01*
X009586Y016845D01*
X009634Y016845D01*
X009690Y016901D01*
X009746Y016845D01*
X010382Y016845D01*
X010470Y016933D01*
X010470Y017060D01*
X010540Y017060D01*
X010540Y016933D01*
X010628Y016845D01*
X011264Y016845D01*
X011320Y016901D01*
X011346Y016875D01*
X011380Y016855D01*
X011418Y016845D01*
X011644Y016845D01*
X011644Y017240D01*
X011744Y017240D01*
X011744Y016845D01*
X011970Y016845D01*
X012008Y016855D01*
X012042Y016875D01*
X012070Y016903D01*
X012090Y016937D01*
X012100Y016975D01*
X012100Y017240D01*
X011744Y017240D01*
X011744Y017340D01*
X011644Y017340D01*
X011644Y017735D01*
X011418Y017735D01*
X011380Y017725D01*
X011346Y017705D01*
X011320Y017679D01*
X011264Y017735D01*
X010628Y017735D01*
X010540Y017647D01*
X010540Y017520D01*
X010470Y017520D01*
X010470Y017647D01*
X010382Y017735D01*
X010020Y017735D01*
X009740Y018015D01*
X009740Y018015D01*
X009605Y018150D01*
X009532Y018150D01*
X009590Y018290D01*
X009590Y019070D01*
X009544Y019180D01*
X009736Y019180D01*
X009690Y019070D01*
X009690Y018290D01*
X009759Y018125D01*
X009885Y017999D01*
X010050Y017930D01*
X010230Y017930D01*
X010395Y017999D01*
X010521Y018125D01*
X010590Y018290D01*
X010590Y019070D01*
X010544Y019180D01*
X010736Y019180D01*
X010690Y019070D01*
X010690Y018290D01*
X010759Y018125D01*
X010885Y017999D01*
X011050Y017930D01*
X011230Y017930D01*
X011395Y017999D01*
X011521Y018125D01*
X011590Y018290D01*
X011590Y019070D01*
X011544Y019180D01*
X011736Y019180D01*
X011690Y019070D01*
X011690Y018290D01*
X011759Y018125D01*
X011885Y017999D01*
X012050Y017930D01*
X012230Y017930D01*
X012395Y017999D01*
X012521Y018125D01*
X012590Y018290D01*
X012590Y019070D01*
X012544Y019180D01*
X012736Y019180D01*
X012690Y019070D01*
X012690Y018290D01*
X012759Y018125D01*
X012885Y017999D01*
X013050Y017930D01*
X013230Y017930D01*
X013395Y017999D01*
X013521Y018125D01*
X013590Y018290D01*
X013590Y019070D01*
X013544Y019180D01*
X013736Y019180D01*
X013690Y019070D01*
X013690Y018290D01*
X013759Y018125D01*
X013885Y017999D01*
X014050Y017930D01*
X014230Y017930D01*
X014395Y017999D01*
X014521Y018125D01*
X014590Y018290D01*
X014590Y019070D01*
X014544Y019180D01*
X014736Y019180D01*
X014690Y019070D01*
X014690Y018290D01*
X014759Y018125D01*
X014885Y017999D01*
X015050Y017930D01*
X015230Y017930D01*
X015395Y017999D01*
X015521Y018125D01*
X015590Y018290D01*
X015590Y019070D01*
X015544Y019180D01*
X015736Y019180D01*
X015690Y019070D01*
X015690Y018290D01*
X015759Y018125D01*
X015885Y017999D01*
X015910Y017988D01*
X015910Y017320D01*
X015894Y017304D01*
X015850Y017198D01*
X015850Y017082D01*
X015894Y016976D01*
X015976Y016894D01*
X016082Y016850D01*
X016198Y016850D01*
X016304Y016894D01*
X016386Y016976D01*
X016430Y017082D01*
X016430Y017198D01*
X016386Y017304D01*
X016370Y017320D01*
X016370Y017988D01*
X016395Y017999D01*
X016521Y018125D01*
X016590Y018290D01*
X016590Y019070D01*
X016544Y019180D01*
X016736Y019180D01*
X016690Y019070D01*
X016690Y018290D01*
X016759Y018125D01*
X016885Y017999D01*
X016910Y017988D01*
X016910Y017320D01*
X016894Y017304D01*
X016850Y017198D01*
X016850Y017082D01*
X016894Y016976D01*
X016976Y016894D01*
X017082Y016850D01*
X017198Y016850D01*
X017304Y016894D01*
X017386Y016976D01*
X017430Y017082D01*
X017430Y017198D01*
X017386Y017304D01*
X017370Y017320D01*
X017370Y017988D01*
X017395Y017999D01*
X017521Y018125D01*
X017590Y018290D01*
X017590Y019070D01*
X017544Y019180D01*
X017736Y019180D01*
X017690Y019070D01*
X017690Y018290D01*
X017759Y018125D01*
X017885Y017999D01*
X017910Y017988D01*
X017910Y017320D01*
X017894Y017304D01*
X017850Y017198D01*
X017850Y017082D01*
X017894Y016976D01*
X017976Y016894D01*
X018082Y016850D01*
X018198Y016850D01*
X018304Y016894D01*
X018386Y016976D01*
X018430Y017082D01*
X018430Y017198D01*
X018386Y017304D01*
X018370Y017320D01*
X018370Y017988D01*
X018395Y017999D01*
X018521Y018125D01*
X018590Y018290D01*
X018590Y019070D01*
X018544Y019180D01*
X018736Y019180D01*
X018690Y019070D01*
X018690Y018290D01*
X018759Y018125D01*
X018885Y017999D01*
X018910Y017988D01*
X018910Y017320D01*
X018894Y017304D01*
X018850Y017198D01*
X018850Y017082D01*
X018894Y016976D01*
X018976Y016894D01*
X019082Y016850D01*
X019198Y016850D01*
X019304Y016894D01*
X019386Y016976D01*
X019430Y017082D01*
X019430Y017198D01*
X019386Y017304D01*
X019370Y017320D01*
X019370Y017988D01*
X019395Y017999D01*
X019521Y018125D01*
X019590Y018290D01*
X019590Y019070D01*
X019544Y019180D01*
X019736Y019180D01*
X019690Y019070D01*
X019690Y018290D01*
X019759Y018125D01*
X019885Y017999D01*
X020050Y017930D01*
X020230Y017930D01*
X020395Y017999D01*
X020521Y018125D01*
X020590Y018290D01*
X020590Y019070D01*
X020544Y019180D01*
X020737Y019180D01*
X020723Y019153D01*
X020701Y019085D01*
X020690Y019015D01*
X020690Y018730D01*
X021090Y018730D01*
X021090Y018630D01*
X021190Y018630D01*
X021190Y018730D01*
X021590Y018730D01*
X021590Y019015D01*
X021579Y019085D01*
X021557Y019153D01*
X021543Y019180D01*
X021718Y019180D01*
X021655Y019117D01*
X021655Y018283D01*
X021743Y018195D01*
X021850Y018195D01*
X021850Y017976D01*
X021830Y017928D01*
X021830Y017812D01*
X021874Y017706D01*
X021956Y017624D01*
X022062Y017580D01*
X022178Y017580D01*
X022284Y017624D01*
X022366Y017706D01*
X022410Y017812D01*
X022410Y017928D01*
X022390Y017976D01*
X022390Y018195D01*
X022497Y018195D01*
X022585Y018283D01*
X022585Y019117D01*
X022522Y019180D01*
X022838Y019180D01*
X022775Y019117D01*
X022775Y018283D01*
X022863Y018195D01*
X022970Y018195D01*
X022970Y018104D02*
X022390Y018104D01*
X022390Y018005D02*
X022970Y018005D01*
X022970Y017907D02*
X022410Y017907D01*
X022408Y017808D02*
X022970Y017808D01*
X022970Y017710D02*
X022368Y017710D01*
X022253Y017611D02*
X022970Y017611D01*
X022970Y017513D02*
X019370Y017513D01*
X019370Y017611D02*
X021988Y017611D01*
X021873Y017710D02*
X019370Y017710D01*
X019370Y017808D02*
X021832Y017808D01*
X021830Y017907D02*
X019370Y017907D01*
X019401Y018005D02*
X019879Y018005D01*
X019780Y018104D02*
X019500Y018104D01*
X019553Y018202D02*
X019727Y018202D01*
X019690Y018301D02*
X019590Y018301D01*
X019590Y018399D02*
X019690Y018399D01*
X019690Y018498D02*
X019590Y018498D01*
X019590Y018596D02*
X019690Y018596D01*
X019690Y018695D02*
X019590Y018695D01*
X019590Y018793D02*
X019690Y018793D01*
X019690Y018892D02*
X019590Y018892D01*
X019590Y018990D02*
X019690Y018990D01*
X019698Y019089D02*
X019582Y019089D01*
X018698Y019089D02*
X018582Y019089D01*
X018590Y018990D02*
X018690Y018990D01*
X018690Y018892D02*
X018590Y018892D01*
X018590Y018793D02*
X018690Y018793D01*
X018690Y018695D02*
X018590Y018695D01*
X018590Y018596D02*
X018690Y018596D01*
X018690Y018498D02*
X018590Y018498D01*
X018590Y018399D02*
X018690Y018399D01*
X018690Y018301D02*
X018590Y018301D01*
X018553Y018202D02*
X018727Y018202D01*
X018780Y018104D02*
X018500Y018104D01*
X018401Y018005D02*
X018879Y018005D01*
X018910Y017907D02*
X018370Y017907D01*
X018370Y017808D02*
X018910Y017808D01*
X018910Y017710D02*
X018370Y017710D01*
X018370Y017611D02*
X018910Y017611D01*
X018910Y017513D02*
X018370Y017513D01*
X018370Y017414D02*
X018910Y017414D01*
X018905Y017316D02*
X018375Y017316D01*
X018422Y017217D02*
X018858Y017217D01*
X018850Y017119D02*
X018430Y017119D01*
X018404Y017020D02*
X018876Y017020D01*
X018948Y016922D02*
X018332Y016922D01*
X017948Y016922D02*
X017332Y016922D01*
X017404Y017020D02*
X017876Y017020D01*
X017850Y017119D02*
X017430Y017119D01*
X017422Y017217D02*
X017858Y017217D01*
X017905Y017316D02*
X017375Y017316D01*
X017370Y017414D02*
X017910Y017414D01*
X017910Y017513D02*
X017370Y017513D01*
X017370Y017611D02*
X017910Y017611D01*
X017910Y017710D02*
X017370Y017710D01*
X017370Y017808D02*
X017910Y017808D01*
X017910Y017907D02*
X017370Y017907D01*
X017401Y018005D02*
X017879Y018005D01*
X017780Y018104D02*
X017500Y018104D01*
X017553Y018202D02*
X017727Y018202D01*
X017690Y018301D02*
X017590Y018301D01*
X017590Y018399D02*
X017690Y018399D01*
X017690Y018498D02*
X017590Y018498D01*
X017590Y018596D02*
X017690Y018596D01*
X017690Y018695D02*
X017590Y018695D01*
X017590Y018793D02*
X017690Y018793D01*
X017690Y018892D02*
X017590Y018892D01*
X017590Y018990D02*
X017690Y018990D01*
X017698Y019089D02*
X017582Y019089D01*
X016698Y019089D02*
X016582Y019089D01*
X016590Y018990D02*
X016690Y018990D01*
X016690Y018892D02*
X016590Y018892D01*
X016590Y018793D02*
X016690Y018793D01*
X016690Y018695D02*
X016590Y018695D01*
X016590Y018596D02*
X016690Y018596D01*
X016690Y018498D02*
X016590Y018498D01*
X016590Y018399D02*
X016690Y018399D01*
X016690Y018301D02*
X016590Y018301D01*
X016553Y018202D02*
X016727Y018202D01*
X016780Y018104D02*
X016500Y018104D01*
X016401Y018005D02*
X016879Y018005D01*
X016910Y017907D02*
X016370Y017907D01*
X016370Y017808D02*
X016910Y017808D01*
X016910Y017710D02*
X016370Y017710D01*
X016370Y017611D02*
X016910Y017611D01*
X016910Y017513D02*
X016370Y017513D01*
X016370Y017414D02*
X016910Y017414D01*
X016905Y017316D02*
X016375Y017316D01*
X016422Y017217D02*
X016858Y017217D01*
X016850Y017119D02*
X016430Y017119D01*
X016404Y017020D02*
X016598Y017020D01*
X016762Y017020D02*
X016876Y017020D01*
X016909Y016922D02*
X016948Y016922D01*
X016959Y016823D02*
X022970Y016823D01*
X022970Y016725D02*
X016970Y016725D01*
X016950Y016626D02*
X022970Y016626D01*
X022970Y016528D02*
X016950Y016528D01*
X016950Y016429D02*
X022970Y016429D01*
X022970Y016331D02*
X016950Y016331D01*
X016956Y016232D02*
X017039Y016232D01*
X017019Y016134D02*
X016970Y016134D01*
X016950Y016035D02*
X017019Y016035D01*
X017019Y015937D02*
X016887Y015937D01*
X016473Y015937D02*
X012167Y015937D01*
X012237Y015838D02*
X016373Y015838D01*
X016309Y015740D02*
X012278Y015740D01*
X012294Y015641D02*
X016280Y015641D01*
X016280Y015543D02*
X012294Y015543D01*
X012290Y015444D02*
X016280Y015444D01*
X016280Y015346D02*
X012290Y015346D01*
X012290Y015247D02*
X016280Y015247D01*
X016280Y015149D02*
X012290Y015149D01*
X012290Y015050D02*
X016305Y015050D01*
X016363Y014952D02*
X012290Y014952D01*
X012290Y014853D02*
X016462Y014853D01*
X016560Y014755D02*
X012290Y014755D01*
X012290Y014656D02*
X016659Y014656D01*
X016757Y014558D02*
X012290Y014558D01*
X012290Y014459D02*
X016856Y014459D01*
X017020Y014361D02*
X012290Y014361D01*
X012290Y014262D02*
X018460Y014262D01*
X018460Y014164D02*
X012290Y014164D01*
X011290Y014361D02*
X007043Y014361D01*
X007043Y014459D02*
X011290Y014459D01*
X011290Y014558D02*
X007043Y014558D01*
X007043Y014656D02*
X011290Y014656D01*
X011290Y014755D02*
X007043Y014755D01*
X007043Y014853D02*
X011290Y014853D01*
X012057Y016035D02*
X016410Y016035D01*
X016390Y016134D02*
X010239Y016134D01*
X009583Y016626D02*
X016410Y016626D01*
X016410Y016528D02*
X009514Y016528D01*
X009606Y016725D02*
X016390Y016725D01*
X016401Y016823D02*
X009595Y016823D01*
X009118Y016528D02*
X007688Y016528D01*
X007757Y016626D02*
X009049Y016626D01*
X009026Y016725D02*
X007780Y016725D01*
X007812Y016823D02*
X007927Y016823D01*
X008184Y016823D02*
X008284Y016823D01*
X008284Y016922D02*
X008184Y016922D01*
X008184Y017020D02*
X008284Y017020D01*
X008284Y017119D02*
X008184Y017119D01*
X008284Y017217D02*
X008910Y017217D01*
X008910Y017119D02*
X008640Y017119D01*
X008640Y017020D02*
X008910Y017020D01*
X008921Y016922D02*
X008634Y016922D01*
X008541Y016823D02*
X009036Y016823D01*
X008910Y017316D02*
X008640Y017316D01*
X008640Y017414D02*
X008910Y017414D01*
X008910Y017513D02*
X008640Y017513D01*
X008630Y017611D02*
X008910Y017611D01*
X009652Y018104D02*
X009780Y018104D01*
X009750Y018005D02*
X009879Y018005D01*
X009849Y017907D02*
X015910Y017907D01*
X015910Y017808D02*
X009947Y017808D01*
X010408Y017710D02*
X010602Y017710D01*
X010540Y017611D02*
X010470Y017611D01*
X010401Y018005D02*
X010879Y018005D01*
X010780Y018104D02*
X010500Y018104D01*
X010553Y018202D02*
X010727Y018202D01*
X010690Y018301D02*
X010590Y018301D01*
X010590Y018399D02*
X010690Y018399D01*
X010690Y018498D02*
X010590Y018498D01*
X010590Y018596D02*
X010690Y018596D01*
X010690Y018695D02*
X010590Y018695D01*
X010590Y018793D02*
X010690Y018793D01*
X010690Y018892D02*
X010590Y018892D01*
X010590Y018990D02*
X010690Y018990D01*
X010698Y019089D02*
X010582Y019089D01*
X011582Y019089D02*
X011698Y019089D01*
X011690Y018990D02*
X011590Y018990D01*
X011590Y018892D02*
X011690Y018892D01*
X011690Y018793D02*
X011590Y018793D01*
X011590Y018695D02*
X011690Y018695D01*
X011690Y018596D02*
X011590Y018596D01*
X011590Y018498D02*
X011690Y018498D01*
X011690Y018399D02*
X011590Y018399D01*
X011590Y018301D02*
X011690Y018301D01*
X011727Y018202D02*
X011553Y018202D01*
X011500Y018104D02*
X011780Y018104D01*
X011879Y018005D02*
X011401Y018005D01*
X011353Y017710D02*
X011290Y017710D01*
X011644Y017710D02*
X011744Y017710D01*
X011744Y017735D02*
X011744Y017340D01*
X012100Y017340D01*
X012100Y017605D01*
X012090Y017643D01*
X012070Y017677D01*
X012042Y017705D01*
X012008Y017725D01*
X011970Y017735D01*
X011744Y017735D01*
X011744Y017611D02*
X011644Y017611D01*
X011644Y017513D02*
X011744Y017513D01*
X011744Y017414D02*
X011644Y017414D01*
X011744Y017316D02*
X015905Y017316D01*
X015910Y017414D02*
X012100Y017414D01*
X012100Y017513D02*
X015910Y017513D01*
X015910Y017611D02*
X012098Y017611D01*
X012035Y017710D02*
X015910Y017710D01*
X015879Y018005D02*
X015401Y018005D01*
X015500Y018104D02*
X015780Y018104D01*
X015727Y018202D02*
X015553Y018202D01*
X015590Y018301D02*
X015690Y018301D01*
X015690Y018399D02*
X015590Y018399D01*
X015590Y018498D02*
X015690Y018498D01*
X015690Y018596D02*
X015590Y018596D01*
X015590Y018695D02*
X015690Y018695D01*
X015690Y018793D02*
X015590Y018793D01*
X015590Y018892D02*
X015690Y018892D01*
X015690Y018990D02*
X015590Y018990D01*
X015582Y019089D02*
X015698Y019089D01*
X014698Y019089D02*
X014582Y019089D01*
X014590Y018990D02*
X014690Y018990D01*
X014690Y018892D02*
X014590Y018892D01*
X014590Y018793D02*
X014690Y018793D01*
X014690Y018695D02*
X014590Y018695D01*
X014590Y018596D02*
X014690Y018596D01*
X014690Y018498D02*
X014590Y018498D01*
X014590Y018399D02*
X014690Y018399D01*
X014690Y018301D02*
X014590Y018301D01*
X014553Y018202D02*
X014727Y018202D01*
X014780Y018104D02*
X014500Y018104D01*
X014401Y018005D02*
X014879Y018005D01*
X013879Y018005D02*
X013401Y018005D01*
X013500Y018104D02*
X013780Y018104D01*
X013727Y018202D02*
X013553Y018202D01*
X013590Y018301D02*
X013690Y018301D01*
X013690Y018399D02*
X013590Y018399D01*
X013590Y018498D02*
X013690Y018498D01*
X013690Y018596D02*
X013590Y018596D01*
X013590Y018695D02*
X013690Y018695D01*
X013690Y018793D02*
X013590Y018793D01*
X013590Y018892D02*
X013690Y018892D01*
X013690Y018990D02*
X013590Y018990D01*
X013582Y019089D02*
X013698Y019089D01*
X012698Y019089D02*
X012582Y019089D01*
X012590Y018990D02*
X012690Y018990D01*
X012690Y018892D02*
X012590Y018892D01*
X012590Y018793D02*
X012690Y018793D01*
X012690Y018695D02*
X012590Y018695D01*
X012590Y018596D02*
X012690Y018596D01*
X012690Y018498D02*
X012590Y018498D01*
X012590Y018399D02*
X012690Y018399D01*
X012690Y018301D02*
X012590Y018301D01*
X012553Y018202D02*
X012727Y018202D01*
X012780Y018104D02*
X012500Y018104D01*
X012401Y018005D02*
X012879Y018005D01*
X012100Y017217D02*
X015858Y017217D01*
X015850Y017119D02*
X012100Y017119D01*
X012100Y017020D02*
X015876Y017020D01*
X015948Y016922D02*
X012081Y016922D01*
X011744Y016922D02*
X011644Y016922D01*
X011644Y017020D02*
X011744Y017020D01*
X011744Y017119D02*
X011644Y017119D01*
X011644Y017217D02*
X011744Y017217D01*
X010540Y017020D02*
X010470Y017020D01*
X010459Y016922D02*
X010551Y016922D01*
X008994Y016134D02*
X008494Y016134D01*
X008506Y016035D02*
X008994Y016035D01*
X008994Y015937D02*
X008506Y015937D01*
X008506Y015838D02*
X008994Y015838D01*
X008994Y015740D02*
X008506Y015740D01*
X008506Y015550D02*
X007934Y015550D01*
X007934Y014978D01*
X008376Y014978D01*
X008414Y014988D01*
X008448Y015008D01*
X008476Y015035D01*
X008496Y015070D01*
X008506Y015108D01*
X008506Y015550D01*
X008506Y015543D02*
X008994Y015543D01*
X008994Y015641D02*
X007934Y015641D01*
X007934Y015543D02*
X007834Y015543D01*
X007834Y015641D02*
X003430Y015641D01*
X003430Y015543D02*
X007261Y015543D01*
X007261Y015740D02*
X006982Y015740D01*
X006955Y015713D02*
X007043Y015801D01*
X007043Y016988D01*
X006955Y017076D01*
X005768Y017076D01*
X005680Y016988D01*
X005680Y015801D01*
X005768Y015713D01*
X006955Y015713D01*
X007043Y015838D02*
X007261Y015838D01*
X007261Y015937D02*
X007043Y015937D01*
X007043Y016035D02*
X007261Y016035D01*
X007273Y016134D02*
X007043Y016134D01*
X007043Y016232D02*
X016404Y016232D01*
X016410Y016331D02*
X007043Y016331D01*
X007043Y016429D02*
X016410Y016429D01*
X016451Y016922D02*
X016332Y016922D01*
X017650Y015740D02*
X017750Y015740D01*
X017750Y015641D02*
X017650Y015641D01*
X017650Y015543D02*
X017750Y015543D01*
X017750Y015444D02*
X017650Y015444D01*
X017058Y015247D02*
X018365Y015247D01*
X018349Y015149D02*
X018387Y015149D01*
X018380Y014361D02*
X018422Y014361D01*
X018278Y013404D02*
X017524Y013404D01*
X017436Y013316D01*
X017436Y012484D01*
X017524Y012396D01*
X017544Y012396D01*
X017544Y012303D01*
X017520Y012279D01*
X017494Y012305D01*
X017460Y012325D01*
X017422Y012335D01*
X017196Y012335D01*
X017196Y011940D01*
X017096Y011940D01*
X017096Y012335D01*
X016870Y012335D01*
X016832Y012325D01*
X016798Y012305D01*
X016770Y012277D01*
X016750Y012243D01*
X016740Y012205D01*
X016740Y011940D01*
X017096Y011940D01*
X017096Y011840D01*
X017196Y011840D01*
X017196Y011445D01*
X017422Y011445D01*
X017460Y011455D01*
X017494Y011475D01*
X017520Y011501D01*
X017576Y011445D01*
X018212Y011445D01*
X018300Y011533D01*
X018300Y011540D01*
X018540Y011540D01*
X018540Y011146D01*
X018520Y011098D01*
X018520Y010982D01*
X018564Y010876D01*
X018646Y010794D01*
X018752Y010750D01*
X018868Y010750D01*
X018974Y010794D01*
X019056Y010876D01*
X019100Y010982D01*
X019100Y011098D01*
X019080Y011146D01*
X019080Y011546D01*
X019187Y011546D01*
X019275Y011633D01*
X019275Y012151D01*
X019187Y012239D01*
X018879Y012239D01*
X018877Y012240D01*
X018300Y012240D01*
X018300Y012247D01*
X018244Y012303D01*
X018244Y012396D01*
X018278Y012396D01*
X018366Y012484D01*
X018366Y013316D01*
X018278Y013404D01*
X018307Y013376D02*
X018398Y013376D01*
X017495Y013376D02*
X017204Y013376D01*
X017206Y013374D02*
X017172Y013394D01*
X017134Y013404D01*
X016849Y013404D01*
X016849Y012950D01*
X017264Y012950D01*
X017264Y013274D01*
X017254Y013312D01*
X017234Y013346D01*
X017206Y013374D01*
X017263Y013277D02*
X017436Y013277D01*
X017436Y013179D02*
X017264Y013179D01*
X017264Y013080D02*
X017436Y013080D01*
X017436Y012982D02*
X017264Y012982D01*
X017264Y012850D02*
X016849Y012850D01*
X016849Y012950D01*
X016749Y012950D01*
X016749Y012850D01*
X016849Y012850D01*
X016849Y012396D01*
X017134Y012396D01*
X017172Y012406D01*
X017206Y012426D01*
X017234Y012454D01*
X017254Y012488D01*
X017264Y012526D01*
X017264Y012850D01*
X017264Y012785D02*
X017436Y012785D01*
X017436Y012883D02*
X016849Y012883D01*
X016849Y012785D02*
X016749Y012785D01*
X016749Y012850D02*
X016749Y012396D01*
X016464Y012396D01*
X016426Y012406D01*
X016392Y012426D01*
X016364Y012454D01*
X016344Y012488D01*
X016334Y012526D01*
X016334Y012850D01*
X016749Y012850D01*
X016749Y012883D02*
X013664Y012883D01*
X013664Y012918D02*
X013620Y013024D01*
X013538Y013106D01*
X013432Y013150D01*
X013316Y013150D01*
X013210Y013106D01*
X013128Y013024D01*
X013084Y012918D01*
X013084Y012802D01*
X013128Y012696D01*
X013144Y012680D01*
X013144Y007325D01*
X013056Y007325D01*
X013000Y007269D01*
X012944Y007325D01*
X012308Y007325D01*
X012220Y007237D01*
X012220Y007112D01*
X012145Y007112D01*
X012145Y007141D01*
X012057Y007229D01*
X011303Y007229D01*
X011215Y007141D01*
X011215Y006623D01*
X011303Y006536D01*
X012057Y006536D01*
X012145Y006623D01*
X012145Y006652D01*
X012220Y006652D01*
X012220Y006523D01*
X012308Y006435D01*
X012944Y006435D01*
X013000Y006491D01*
X013056Y006435D01*
X013692Y006435D01*
X013780Y006523D01*
X013780Y007237D01*
X013692Y007325D01*
X013604Y007325D01*
X013604Y012680D01*
X013620Y012696D01*
X013664Y012802D01*
X013664Y012918D01*
X013638Y012982D02*
X016334Y012982D01*
X016334Y013080D02*
X013564Y013080D01*
X013657Y012785D02*
X016334Y012785D01*
X016334Y012686D02*
X013610Y012686D01*
X013604Y012588D02*
X016334Y012588D01*
X016344Y012489D02*
X013604Y012489D01*
X013604Y012391D02*
X017544Y012391D01*
X017533Y012292D02*
X017507Y012292D01*
X017436Y012489D02*
X017254Y012489D01*
X017264Y012588D02*
X017436Y012588D01*
X017436Y012686D02*
X017264Y012686D01*
X016849Y012686D02*
X016749Y012686D01*
X016749Y012588D02*
X016849Y012588D01*
X016849Y012489D02*
X016749Y012489D01*
X016785Y012292D02*
X013604Y012292D01*
X013604Y012194D02*
X016740Y012194D01*
X016740Y012095D02*
X013604Y012095D01*
X013604Y011997D02*
X016740Y011997D01*
X016740Y011840D02*
X016740Y011575D01*
X016750Y011537D01*
X016770Y011503D01*
X016798Y011475D01*
X016832Y011455D01*
X016870Y011445D01*
X017096Y011445D01*
X017096Y011840D01*
X016740Y011840D01*
X016740Y011800D02*
X013604Y011800D01*
X013604Y011898D02*
X017096Y011898D01*
X017096Y011800D02*
X017196Y011800D01*
X017196Y011701D02*
X017096Y011701D01*
X017096Y011603D02*
X017196Y011603D01*
X017196Y011504D02*
X017096Y011504D01*
X016769Y011504D02*
X013604Y011504D01*
X013604Y011406D02*
X018540Y011406D01*
X018540Y011504D02*
X018271Y011504D01*
X018540Y011307D02*
X013604Y011307D01*
X013604Y011209D02*
X018540Y011209D01*
X018525Y011110D02*
X013604Y011110D01*
X013604Y011012D02*
X018520Y011012D01*
X018549Y010913D02*
X016107Y010913D01*
X016074Y010946D02*
X015968Y010990D01*
X015852Y010990D01*
X015746Y010946D01*
X015664Y010864D01*
X015620Y010758D01*
X015620Y010642D01*
X015664Y010536D01*
X015680Y010520D01*
X015680Y007782D01*
X015655Y007771D01*
X015529Y007645D01*
X015460Y007480D01*
X015460Y006700D01*
X015529Y006535D01*
X015655Y006409D01*
X015820Y006340D01*
X016000Y006340D01*
X016165Y006409D01*
X016291Y006535D01*
X016360Y006700D01*
X016360Y007480D01*
X016291Y007645D01*
X016165Y007771D01*
X016140Y007782D01*
X016140Y010520D01*
X016156Y010536D01*
X016200Y010642D01*
X016200Y010758D01*
X016156Y010864D01*
X016074Y010946D01*
X016176Y010815D02*
X018625Y010815D01*
X018995Y010815D02*
X020310Y010815D01*
X020310Y010913D02*
X019071Y010913D01*
X019100Y011012D02*
X020290Y011012D01*
X020295Y011110D02*
X019095Y011110D01*
X019080Y011209D02*
X020338Y011209D01*
X020467Y011307D02*
X019080Y011307D01*
X019080Y011406D02*
X022970Y011406D01*
X022970Y011504D02*
X019080Y011504D01*
X019244Y011603D02*
X020379Y011603D01*
X020315Y011701D02*
X019275Y011701D01*
X019275Y011800D02*
X020314Y011800D01*
X020314Y011898D02*
X019275Y011898D01*
X019275Y011997D02*
X020314Y011997D01*
X020314Y012095D02*
X019275Y012095D01*
X019233Y012194D02*
X020314Y012194D01*
X020314Y012292D02*
X018255Y012292D01*
X018244Y012391D02*
X020314Y012391D01*
X020314Y012489D02*
X018366Y012489D01*
X018366Y012588D02*
X020314Y012588D01*
X020314Y012686D02*
X018366Y012686D01*
X017196Y012292D02*
X017096Y012292D01*
X017096Y012194D02*
X017196Y012194D01*
X017196Y012095D02*
X017096Y012095D01*
X017096Y011997D02*
X017196Y011997D01*
X016740Y011701D02*
X013604Y011701D01*
X013604Y011603D02*
X016740Y011603D01*
X015713Y010913D02*
X013604Y010913D01*
X013604Y010815D02*
X015644Y010815D01*
X015620Y010716D02*
X013604Y010716D01*
X013604Y010618D02*
X015630Y010618D01*
X015680Y010519D02*
X013604Y010519D01*
X013604Y010421D02*
X015680Y010421D01*
X015680Y010322D02*
X013604Y010322D01*
X013604Y010224D02*
X015680Y010224D01*
X015680Y010125D02*
X013604Y010125D01*
X013604Y010027D02*
X015680Y010027D01*
X015680Y009928D02*
X013604Y009928D01*
X013604Y009830D02*
X015680Y009830D01*
X015680Y009731D02*
X013604Y009731D01*
X013604Y009633D02*
X015680Y009633D01*
X015680Y009534D02*
X013604Y009534D01*
X013604Y009436D02*
X015680Y009436D01*
X015680Y009337D02*
X013604Y009337D01*
X013604Y009239D02*
X015680Y009239D01*
X015680Y009140D02*
X013604Y009140D01*
X013604Y009042D02*
X015680Y009042D01*
X015680Y008943D02*
X013604Y008943D01*
X013604Y008845D02*
X015680Y008845D01*
X015680Y008746D02*
X013604Y008746D01*
X013604Y008648D02*
X015680Y008648D01*
X015680Y008549D02*
X013604Y008549D01*
X013604Y008451D02*
X015680Y008451D01*
X015680Y008352D02*
X013604Y008352D01*
X013604Y008254D02*
X015680Y008254D01*
X015680Y008155D02*
X013604Y008155D01*
X013604Y008057D02*
X015680Y008057D01*
X015680Y007958D02*
X013604Y007958D01*
X013604Y007860D02*
X015680Y007860D01*
X015645Y007761D02*
X013604Y007761D01*
X013604Y007663D02*
X015546Y007663D01*
X015495Y007564D02*
X013604Y007564D01*
X013604Y007466D02*
X015460Y007466D01*
X015460Y007367D02*
X013604Y007367D01*
X013749Y007269D02*
X015460Y007269D01*
X015460Y007170D02*
X013780Y007170D01*
X013780Y007072D02*
X015460Y007072D01*
X015460Y006973D02*
X013780Y006973D01*
X013780Y006875D02*
X015460Y006875D01*
X015460Y006776D02*
X013780Y006776D01*
X013780Y006678D02*
X015470Y006678D01*
X015510Y006579D02*
X013780Y006579D01*
X013738Y006481D02*
X015583Y006481D01*
X015719Y006382D02*
X005070Y006382D01*
X005070Y006368D02*
X005070Y006652D01*
X004996Y006927D01*
X004854Y007173D01*
X004653Y007374D01*
X004407Y007516D01*
X004132Y007590D01*
X003751Y007564D02*
X003430Y007564D01*
X003430Y007466D02*
X003485Y007466D01*
X003430Y007663D02*
X004811Y007663D01*
X004713Y007761D02*
X003430Y007761D01*
X003430Y007860D02*
X004614Y007860D01*
X004516Y007958D02*
X003430Y007958D01*
X003430Y008057D02*
X004417Y008057D01*
X004319Y008155D02*
X003430Y008155D01*
X003430Y008254D02*
X004220Y008254D01*
X003596Y008352D02*
X003430Y008352D01*
X003430Y008451D02*
X003545Y008451D01*
X003545Y008549D02*
X003430Y008549D01*
X003430Y008648D02*
X003545Y008648D01*
X003545Y008746D02*
X003430Y008746D01*
X003430Y008845D02*
X003545Y008845D01*
X003545Y008943D02*
X003430Y008943D01*
X003430Y009042D02*
X003545Y009042D01*
X003545Y009140D02*
X003430Y009140D01*
X003430Y009239D02*
X003545Y009239D01*
X003545Y009337D02*
X003430Y009337D01*
X003430Y009436D02*
X003545Y009436D01*
X003545Y009534D02*
X003430Y009534D01*
X003430Y009633D02*
X003587Y009633D01*
X006142Y009928D02*
X007250Y009928D01*
X007250Y009830D02*
X006240Y009830D01*
X006339Y009731D02*
X007250Y009731D01*
X007250Y009633D02*
X007031Y009633D01*
X007073Y009534D02*
X007250Y009534D01*
X007250Y009436D02*
X007073Y009436D01*
X007073Y009337D02*
X007250Y009337D01*
X007073Y009239D02*
X013144Y009239D01*
X013144Y009337D02*
X010390Y009337D01*
X010390Y009436D02*
X013144Y009436D01*
X013144Y009534D02*
X010919Y009534D01*
X010980Y009633D02*
X013144Y009633D01*
X013144Y009731D02*
X010980Y009731D01*
X010980Y009830D02*
X013144Y009830D01*
X013144Y009928D02*
X010980Y009928D01*
X010980Y010027D02*
X013144Y010027D01*
X013144Y010125D02*
X010980Y010125D01*
X010980Y010224D02*
X013144Y010224D01*
X013144Y010322D02*
X010980Y010322D01*
X010980Y010421D02*
X013144Y010421D01*
X013144Y010519D02*
X010980Y010519D01*
X010980Y010618D02*
X013144Y010618D01*
X013144Y010716D02*
X010980Y010716D01*
X010980Y010815D02*
X013144Y010815D01*
X013144Y010913D02*
X010980Y010913D01*
X010980Y011012D02*
X013144Y011012D01*
X013144Y011110D02*
X010980Y011110D01*
X010980Y011209D02*
X013144Y011209D01*
X013144Y011307D02*
X010980Y011307D01*
X010980Y011406D02*
X013144Y011406D01*
X013144Y011504D02*
X010980Y011504D01*
X010980Y011603D02*
X013144Y011603D01*
X013144Y011701D02*
X010980Y011701D01*
X010980Y011800D02*
X013144Y011800D01*
X013144Y011898D02*
X010980Y011898D01*
X010980Y011997D02*
X013144Y011997D01*
X013144Y012095D02*
X010980Y012095D01*
X010980Y012194D02*
X013144Y012194D01*
X013144Y012292D02*
X010980Y012292D01*
X010991Y012391D02*
X013144Y012391D01*
X013144Y012489D02*
X011034Y012489D01*
X011040Y012588D02*
X013144Y012588D01*
X013138Y012686D02*
X011012Y012686D01*
X010936Y012785D02*
X013091Y012785D01*
X013084Y012883D02*
X009466Y012883D01*
X009440Y012982D02*
X013110Y012982D01*
X013184Y013080D02*
X009366Y013080D01*
X009495Y012785D02*
X009605Y012785D01*
X010243Y012785D02*
X010564Y012785D01*
X010488Y012686D02*
X010330Y012686D01*
X010330Y012588D02*
X010460Y012588D01*
X010466Y012489D02*
X010406Y012489D01*
X010152Y013179D02*
X016334Y013179D01*
X016749Y013179D02*
X016849Y013179D01*
X016849Y013277D02*
X016749Y013277D01*
X016749Y013376D02*
X016849Y013376D01*
X016849Y013080D02*
X016749Y013080D01*
X016749Y012982D02*
X016849Y012982D01*
X020693Y011307D02*
X022970Y011307D01*
X022970Y011209D02*
X020822Y011209D01*
X020865Y011110D02*
X022955Y011110D01*
X022950Y011012D02*
X020870Y011012D01*
X020850Y010913D02*
X022979Y010913D01*
X023055Y010815D02*
X020850Y010815D01*
X020850Y010716D02*
X023350Y010716D01*
X023350Y010618D02*
X020850Y010618D01*
X020850Y010519D02*
X023350Y010519D01*
X023350Y010421D02*
X020850Y010421D01*
X020850Y010322D02*
X023350Y010322D01*
X023301Y010224D02*
X020850Y010224D01*
X020310Y010224D02*
X016140Y010224D01*
X016140Y010322D02*
X020310Y010322D01*
X020310Y010421D02*
X016140Y010421D01*
X016140Y010519D02*
X020310Y010519D01*
X020310Y010618D02*
X016190Y010618D01*
X016200Y010716D02*
X020310Y010716D01*
X020310Y010125D02*
X016140Y010125D01*
X016140Y010027D02*
X020310Y010027D01*
X020310Y009928D02*
X016140Y009928D01*
X016140Y009830D02*
X020310Y009830D01*
X020310Y009731D02*
X019079Y009731D01*
X019074Y009736D02*
X018968Y009780D01*
X018852Y009780D01*
X018746Y009736D01*
X018664Y009654D01*
X018620Y009548D01*
X018620Y009432D01*
X018664Y009326D01*
X018680Y009310D01*
X018680Y007782D01*
X018655Y007771D01*
X018529Y007645D01*
X018460Y007480D01*
X018460Y006700D01*
X018529Y006535D01*
X018655Y006409D01*
X018820Y006340D01*
X019000Y006340D01*
X019165Y006409D01*
X019291Y006535D01*
X019360Y006700D01*
X019360Y007480D01*
X019291Y007645D01*
X019165Y007771D01*
X019140Y007782D01*
X019140Y009310D01*
X019156Y009326D01*
X019200Y009432D01*
X019200Y009548D01*
X019156Y009654D01*
X019074Y009736D01*
X019165Y009633D02*
X020310Y009633D01*
X020310Y009534D02*
X019200Y009534D01*
X019200Y009436D02*
X020310Y009436D01*
X020322Y009337D02*
X019161Y009337D01*
X019140Y009239D02*
X020380Y009239D01*
X020478Y009140D02*
X019140Y009140D01*
X019140Y009042D02*
X020577Y009042D01*
X020635Y008943D02*
X019140Y008943D01*
X019140Y008845D02*
X020635Y008845D01*
X020635Y008746D02*
X019140Y008746D01*
X019140Y008648D02*
X020715Y008648D01*
X020810Y008549D02*
X019140Y008549D01*
X019140Y008451D02*
X020810Y008451D01*
X020810Y008352D02*
X019140Y008352D01*
X019140Y008254D02*
X020810Y008254D01*
X020810Y008155D02*
X019140Y008155D01*
X019140Y008057D02*
X020810Y008057D01*
X020810Y007958D02*
X019140Y007958D01*
X019140Y007860D02*
X020810Y007860D01*
X020645Y007761D02*
X020165Y007761D01*
X020146Y007775D02*
X020083Y007807D01*
X020015Y007829D01*
X019960Y007838D01*
X019960Y007140D01*
X020360Y007140D01*
X020360Y007425D01*
X020349Y007495D01*
X020327Y007563D01*
X020295Y007626D01*
X020253Y007683D01*
X020203Y007733D01*
X020146Y007775D01*
X020268Y007663D02*
X020546Y007663D01*
X020495Y007564D02*
X020326Y007564D01*
X020354Y007466D02*
X020460Y007466D01*
X020460Y007367D02*
X020360Y007367D01*
X020360Y007269D02*
X020460Y007269D01*
X020460Y007170D02*
X020360Y007170D01*
X020360Y007040D02*
X019960Y007040D01*
X019960Y007140D01*
X019860Y007140D01*
X019860Y007838D01*
X019805Y007829D01*
X019737Y007807D01*
X019674Y007775D01*
X019617Y007733D01*
X019567Y007683D01*
X019525Y007626D01*
X019493Y007563D01*
X019471Y007495D01*
X019460Y007425D01*
X019460Y007140D01*
X019860Y007140D01*
X019860Y007040D01*
X019960Y007040D01*
X019960Y006342D01*
X020015Y006351D01*
X020083Y006373D01*
X020146Y006405D01*
X020203Y006447D01*
X020253Y006497D01*
X020295Y006554D01*
X020327Y006617D01*
X020349Y006685D01*
X020360Y006755D01*
X020360Y007040D01*
X020360Y006973D02*
X020460Y006973D01*
X020460Y006875D02*
X020360Y006875D01*
X020360Y006776D02*
X020460Y006776D01*
X020470Y006678D02*
X020347Y006678D01*
X020308Y006579D02*
X020510Y006579D01*
X020583Y006481D02*
X020237Y006481D01*
X020100Y006382D02*
X020719Y006382D01*
X021101Y006382D02*
X024759Y006382D01*
X024695Y006409D02*
X024860Y006340D01*
X025040Y006340D01*
X025205Y006409D01*
X025331Y006535D01*
X025400Y006700D01*
X025400Y007480D01*
X025331Y007645D01*
X025205Y007771D01*
X025040Y007840D01*
X024860Y007840D01*
X024695Y007771D01*
X024569Y007645D01*
X024500Y007480D01*
X024500Y006700D01*
X024569Y006535D01*
X024695Y006409D01*
X024623Y006481D02*
X021237Y006481D01*
X021310Y006579D02*
X024550Y006579D01*
X024510Y006678D02*
X021350Y006678D01*
X021360Y006776D02*
X024500Y006776D01*
X024500Y006875D02*
X021360Y006875D01*
X021360Y006973D02*
X024500Y006973D01*
X024500Y007072D02*
X021360Y007072D01*
X021360Y007170D02*
X024500Y007170D01*
X024500Y007269D02*
X021360Y007269D01*
X021360Y007367D02*
X024500Y007367D01*
X024500Y007466D02*
X021360Y007466D01*
X021350Y007564D02*
X024535Y007564D01*
X024586Y007663D02*
X021350Y007663D01*
X021350Y007761D02*
X024685Y007761D01*
X025215Y007761D02*
X025695Y007761D01*
X025714Y007775D02*
X025657Y007733D01*
X025607Y007683D01*
X025565Y007626D01*
X025533Y007563D01*
X025511Y007495D01*
X025500Y007425D01*
X025500Y007140D01*
X025900Y007140D01*
X025900Y007838D01*
X025845Y007829D01*
X025777Y007807D01*
X025714Y007775D01*
X025592Y007663D02*
X025314Y007663D01*
X025365Y007564D02*
X025534Y007564D01*
X025506Y007466D02*
X025400Y007466D01*
X025400Y007367D02*
X025500Y007367D01*
X025500Y007269D02*
X025400Y007269D01*
X025400Y007170D02*
X025500Y007170D01*
X025500Y007040D02*
X025500Y006755D01*
X025511Y006685D01*
X025533Y006617D01*
X025565Y006554D01*
X025607Y006497D01*
X025657Y006447D01*
X025714Y006405D01*
X025777Y006373D01*
X025845Y006351D01*
X025900Y006342D01*
X025900Y007040D01*
X026000Y007040D01*
X026000Y007140D01*
X026400Y007140D01*
X026400Y007425D01*
X026389Y007495D01*
X026367Y007563D01*
X026335Y007626D01*
X026293Y007683D01*
X026243Y007733D01*
X026186Y007775D01*
X026123Y007807D01*
X026055Y007829D01*
X026000Y007838D01*
X026000Y007140D01*
X025900Y007140D01*
X025900Y007040D01*
X025500Y007040D01*
X025500Y006973D02*
X025400Y006973D01*
X025400Y006875D02*
X025500Y006875D01*
X025500Y006776D02*
X025400Y006776D01*
X025390Y006678D02*
X025513Y006678D01*
X025552Y006579D02*
X025350Y006579D01*
X025277Y006481D02*
X025623Y006481D01*
X025760Y006382D02*
X025141Y006382D01*
X025900Y006382D02*
X026000Y006382D01*
X026000Y006342D02*
X026055Y006351D01*
X026123Y006373D01*
X026186Y006405D01*
X026243Y006447D01*
X026293Y006497D01*
X026335Y006554D01*
X026367Y006617D01*
X026389Y006685D01*
X026400Y006755D01*
X026400Y007040D01*
X026000Y007040D01*
X026000Y006342D01*
X026000Y006481D02*
X025900Y006481D01*
X025900Y006579D02*
X026000Y006579D01*
X026000Y006678D02*
X025900Y006678D01*
X025900Y006776D02*
X026000Y006776D01*
X026000Y006875D02*
X025900Y006875D01*
X025900Y006973D02*
X026000Y006973D01*
X026000Y007072D02*
X026500Y007072D01*
X026500Y007170D02*
X026400Y007170D01*
X026400Y007269D02*
X026500Y007269D01*
X026500Y007367D02*
X026400Y007367D01*
X026394Y007466D02*
X026500Y007466D01*
X026500Y007480D02*
X026500Y006700D01*
X026569Y006535D01*
X026695Y006409D01*
X026860Y006340D01*
X027040Y006340D01*
X027205Y006409D01*
X027331Y006535D01*
X027400Y006700D01*
X027400Y007480D01*
X027331Y007645D01*
X027205Y007771D01*
X027180Y007782D01*
X027180Y008475D01*
X027045Y008610D01*
X026730Y008925D01*
X026730Y008948D01*
X026686Y009054D01*
X026604Y009136D01*
X026498Y009180D01*
X026382Y009180D01*
X026276Y009136D01*
X026194Y009054D01*
X026150Y008948D01*
X026150Y008832D01*
X026194Y008726D01*
X026276Y008644D01*
X026382Y008600D01*
X026405Y008600D01*
X026720Y008285D01*
X026720Y007782D01*
X026695Y007771D01*
X026569Y007645D01*
X026500Y007480D01*
X026535Y007564D02*
X026366Y007564D01*
X026308Y007663D02*
X026586Y007663D01*
X026685Y007761D02*
X026205Y007761D01*
X026000Y007761D02*
X025900Y007761D01*
X025900Y007663D02*
X026000Y007663D01*
X026000Y007564D02*
X025900Y007564D01*
X025900Y007466D02*
X026000Y007466D01*
X026000Y007367D02*
X025900Y007367D01*
X025900Y007269D02*
X026000Y007269D01*
X026000Y007170D02*
X025900Y007170D01*
X025900Y007072D02*
X025400Y007072D01*
X026400Y006973D02*
X026500Y006973D01*
X026500Y006875D02*
X026400Y006875D01*
X026400Y006776D02*
X026500Y006776D01*
X026510Y006678D02*
X026387Y006678D01*
X026348Y006579D02*
X026550Y006579D01*
X026623Y006481D02*
X026277Y006481D01*
X026140Y006382D02*
X026759Y006382D01*
X027141Y006382D02*
X027759Y006382D01*
X027695Y006409D02*
X027860Y006340D01*
X028040Y006340D01*
X028205Y006409D01*
X028331Y006535D01*
X028400Y006700D01*
X028400Y007480D01*
X028331Y007645D01*
X028205Y007771D01*
X028040Y007840D01*
X027860Y007840D01*
X027695Y007771D01*
X027569Y007645D01*
X027500Y007480D01*
X027500Y006700D01*
X027569Y006535D01*
X027695Y006409D01*
X027623Y006481D02*
X027277Y006481D01*
X027350Y006579D02*
X027550Y006579D01*
X027510Y006678D02*
X027390Y006678D01*
X027400Y006776D02*
X027500Y006776D01*
X027500Y006875D02*
X027400Y006875D01*
X027400Y006973D02*
X027500Y006973D01*
X027500Y007072D02*
X027400Y007072D01*
X027400Y007170D02*
X027500Y007170D01*
X027500Y007269D02*
X027400Y007269D01*
X027400Y007367D02*
X027500Y007367D01*
X027500Y007466D02*
X027400Y007466D01*
X027365Y007564D02*
X027535Y007564D01*
X027586Y007663D02*
X027314Y007663D01*
X027215Y007761D02*
X027685Y007761D01*
X028215Y007761D02*
X028685Y007761D01*
X028695Y007771D02*
X028569Y007645D01*
X028500Y007480D01*
X028500Y006700D01*
X028569Y006535D01*
X028695Y006409D01*
X028860Y006340D01*
X029040Y006340D01*
X029205Y006409D01*
X029331Y006535D01*
X029400Y006700D01*
X029400Y007480D01*
X029331Y007645D01*
X029205Y007771D01*
X029040Y007840D01*
X028860Y007840D01*
X028695Y007771D01*
X028586Y007663D02*
X028314Y007663D01*
X028365Y007564D02*
X028535Y007564D01*
X028500Y007466D02*
X028400Y007466D01*
X028400Y007367D02*
X028500Y007367D01*
X028500Y007269D02*
X028400Y007269D01*
X028400Y007170D02*
X028500Y007170D01*
X028500Y007072D02*
X028400Y007072D01*
X028400Y006973D02*
X028500Y006973D01*
X028500Y006875D02*
X028400Y006875D01*
X028400Y006776D02*
X028500Y006776D01*
X028510Y006678D02*
X028390Y006678D01*
X028350Y006579D02*
X028550Y006579D01*
X028623Y006481D02*
X028277Y006481D01*
X028141Y006382D02*
X028759Y006382D01*
X029141Y006382D02*
X029750Y006382D01*
X029750Y006284D02*
X005047Y006284D01*
X005070Y006368D02*
X004996Y006093D01*
X004992Y006087D02*
X029873Y006087D01*
X029786Y006185D02*
X005021Y006185D01*
X005070Y006481D02*
X012262Y006481D01*
X012220Y006579D02*
X012100Y006579D01*
X012990Y006481D02*
X013010Y006481D01*
X012220Y007170D02*
X012116Y007170D01*
X012251Y007269D02*
X010176Y007269D01*
X010176Y007367D02*
X013144Y007367D01*
X013144Y007466D02*
X010176Y007466D01*
X010176Y007564D02*
X013144Y007564D01*
X013144Y007663D02*
X010176Y007663D01*
X010176Y007761D02*
X013144Y007761D01*
X013144Y007860D02*
X010176Y007860D01*
X010176Y007958D02*
X013144Y007958D01*
X013144Y008057D02*
X010176Y008057D01*
X010176Y008155D02*
X013144Y008155D01*
X013144Y008254D02*
X010176Y008254D01*
X010176Y008352D02*
X011288Y008352D01*
X011273Y008361D02*
X011307Y008341D01*
X011345Y008331D01*
X011631Y008331D01*
X011631Y008629D01*
X011215Y008629D01*
X011215Y008461D01*
X011225Y008423D01*
X011245Y008389D01*
X011273Y008361D01*
X011218Y008451D02*
X010176Y008451D01*
X010176Y008549D02*
X011215Y008549D01*
X011215Y008726D02*
X011215Y008894D01*
X011225Y008932D01*
X011245Y008967D01*
X011273Y008995D01*
X011307Y009014D01*
X011345Y009024D01*
X011631Y009024D01*
X011631Y008726D01*
X011631Y008629D01*
X011728Y008629D01*
X011728Y008331D01*
X012014Y008331D01*
X012053Y008341D01*
X012087Y008361D01*
X012115Y008389D01*
X012135Y008423D01*
X012145Y008461D01*
X012145Y008629D01*
X011728Y008629D01*
X011728Y008726D01*
X011631Y008726D01*
X011215Y008726D01*
X011215Y008746D02*
X010176Y008746D01*
X010176Y008648D02*
X011631Y008648D01*
X011728Y008648D02*
X013144Y008648D01*
X013144Y008746D02*
X012145Y008746D01*
X012145Y008726D02*
X012145Y008894D01*
X012135Y008932D01*
X012115Y008967D01*
X012087Y008995D01*
X012053Y009014D01*
X012014Y009024D01*
X011728Y009024D01*
X011728Y008726D01*
X012145Y008726D01*
X012145Y008845D02*
X013144Y008845D01*
X013144Y008943D02*
X012128Y008943D01*
X011728Y008943D02*
X011631Y008943D01*
X011631Y008845D02*
X011728Y008845D01*
X011728Y008746D02*
X011631Y008746D01*
X011631Y008549D02*
X011728Y008549D01*
X011728Y008451D02*
X011631Y008451D01*
X011631Y008352D02*
X011728Y008352D01*
X012072Y008352D02*
X013144Y008352D01*
X013144Y008451D02*
X012142Y008451D01*
X012145Y008549D02*
X013144Y008549D01*
X013144Y009042D02*
X007073Y009042D01*
X007073Y009140D02*
X013144Y009140D01*
X011231Y008943D02*
X010138Y008943D01*
X010176Y008845D02*
X011215Y008845D01*
X008830Y009337D02*
X008810Y009337D01*
X008810Y009436D02*
X008830Y009436D01*
X007473Y008943D02*
X007073Y008943D01*
X007073Y008845D02*
X007435Y008845D01*
X007435Y008746D02*
X007073Y008746D01*
X007073Y008648D02*
X007435Y008648D01*
X007435Y008549D02*
X007073Y008549D01*
X007073Y008451D02*
X007435Y008451D01*
X007435Y008352D02*
X007022Y008352D01*
X007435Y007170D02*
X004856Y007170D01*
X004913Y007072D02*
X007435Y007072D01*
X007435Y006973D02*
X004970Y006973D01*
X005010Y006875D02*
X007435Y006875D01*
X007435Y006776D02*
X005037Y006776D01*
X005063Y006678D02*
X007435Y006678D01*
X007511Y006579D02*
X005070Y006579D01*
X005293Y007269D02*
X004759Y007269D01*
X004660Y007367D02*
X005107Y007367D01*
X005008Y007466D02*
X004495Y007466D01*
X007043Y010027D02*
X007250Y010027D01*
X007328Y010125D02*
X007073Y010125D01*
X007073Y010224D02*
X007426Y010224D01*
X007426Y010322D02*
X007073Y010322D01*
X007073Y010421D02*
X007383Y010421D01*
X007366Y010519D02*
X007073Y010519D01*
X007073Y010618D02*
X007315Y010618D01*
X007250Y010716D02*
X007073Y010716D01*
X008703Y012785D02*
X008857Y012785D01*
X008886Y012883D02*
X008674Y012883D01*
X008648Y012982D02*
X008912Y012982D01*
X008986Y013080D02*
X008574Y013080D01*
X008419Y013179D02*
X008941Y013179D01*
X008924Y013277D02*
X008436Y013277D01*
X008436Y013376D02*
X008924Y013376D01*
X008924Y013474D02*
X008436Y013474D01*
X008436Y013573D02*
X008924Y013573D01*
X008924Y013671D02*
X008436Y013671D01*
X008436Y013770D02*
X008924Y013770D01*
X008924Y013868D02*
X008436Y013868D01*
X008436Y013967D02*
X008924Y013967D01*
X008924Y014065D02*
X008436Y014065D01*
X008436Y014164D02*
X008924Y014164D01*
X008924Y014262D02*
X008436Y014262D01*
X008485Y015050D02*
X009009Y015050D01*
X008994Y015149D02*
X008506Y015149D01*
X008506Y015247D02*
X008994Y015247D01*
X008994Y015346D02*
X008506Y015346D01*
X008506Y015444D02*
X008994Y015444D01*
X007934Y015444D02*
X007834Y015444D01*
X007834Y015346D02*
X007934Y015346D01*
X007934Y015247D02*
X007834Y015247D01*
X007834Y015149D02*
X007934Y015149D01*
X007934Y015050D02*
X007834Y015050D01*
X007191Y014262D02*
X007043Y014262D01*
X005680Y014262D02*
X005425Y014262D01*
X005326Y014361D02*
X005680Y014361D01*
X005680Y014459D02*
X005228Y014459D01*
X005129Y014558D02*
X005680Y014558D01*
X005680Y014656D02*
X005031Y014656D01*
X004932Y014755D02*
X005680Y014755D01*
X005680Y014853D02*
X004878Y014853D01*
X004878Y014952D02*
X005680Y014952D01*
X005680Y015050D02*
X004878Y015050D01*
X004878Y015149D02*
X005680Y015149D01*
X005680Y015247D02*
X004878Y015247D01*
X004867Y015346D02*
X005692Y015346D01*
X005741Y015740D02*
X004815Y015740D01*
X004820Y015743D02*
X004848Y015771D01*
X004868Y015805D01*
X004878Y015843D01*
X004878Y016344D01*
X004246Y016344D01*
X004246Y015713D01*
X004748Y015713D01*
X004786Y015723D01*
X004820Y015743D01*
X004877Y015838D02*
X005680Y015838D01*
X005680Y015937D02*
X004878Y015937D01*
X004878Y016035D02*
X005680Y016035D01*
X005680Y016134D02*
X004878Y016134D01*
X004878Y016232D02*
X005680Y016232D01*
X005680Y016331D02*
X004878Y016331D01*
X004878Y016444D02*
X004878Y016945D01*
X004868Y016984D01*
X004848Y017018D01*
X004820Y017046D01*
X004786Y017065D01*
X004748Y017076D01*
X004246Y017076D01*
X004246Y016444D01*
X004146Y016444D01*
X004146Y016344D01*
X003515Y016344D01*
X003515Y015843D01*
X003525Y015805D01*
X003545Y015771D01*
X003573Y015743D01*
X003607Y015723D01*
X003645Y015713D01*
X004146Y015713D01*
X004146Y016344D01*
X004246Y016344D01*
X004246Y016444D01*
X004878Y016444D01*
X004878Y016528D02*
X005680Y016528D01*
X005680Y016626D02*
X004878Y016626D01*
X004878Y016725D02*
X005680Y016725D01*
X005680Y016823D02*
X004878Y016823D01*
X004878Y016922D02*
X005680Y016922D01*
X005713Y017020D02*
X004846Y017020D01*
X004246Y017020D02*
X004146Y017020D01*
X004146Y017076D02*
X003645Y017076D01*
X003607Y017065D01*
X003573Y017046D01*
X003545Y017018D01*
X003525Y016984D01*
X003515Y016945D01*
X003515Y016444D01*
X004146Y016444D01*
X004146Y017076D01*
X004146Y016922D02*
X004246Y016922D01*
X004246Y016823D02*
X004146Y016823D01*
X004146Y016725D02*
X004246Y016725D01*
X004246Y016626D02*
X004146Y016626D01*
X004146Y016528D02*
X004246Y016528D01*
X004246Y016429D02*
X005680Y016429D01*
X007043Y016528D02*
X007292Y016528D01*
X007223Y016626D02*
X007043Y016626D01*
X007043Y016725D02*
X007200Y016725D01*
X007160Y016823D02*
X007043Y016823D01*
X007043Y016922D02*
X007080Y016922D01*
X007080Y017020D02*
X007011Y017020D01*
X007062Y017119D02*
X003430Y017119D01*
X003430Y017217D02*
X006963Y017217D01*
X006865Y017316D02*
X003430Y017316D01*
X003430Y017414D02*
X006787Y017414D01*
X006746Y017513D02*
X003430Y017513D01*
X003430Y017611D02*
X003807Y017611D01*
X003511Y017710D02*
X003430Y017710D01*
X004173Y017611D02*
X006740Y017611D01*
X006740Y017710D02*
X004469Y017710D01*
X004640Y017808D02*
X006740Y017808D01*
X006740Y017907D02*
X004744Y017907D01*
X004842Y018005D02*
X005890Y018005D01*
X005904Y017995D02*
X005967Y017963D01*
X006035Y017941D01*
X006090Y017932D01*
X006090Y018630D01*
X005690Y018630D01*
X005690Y018345D01*
X005701Y018275D01*
X005723Y018207D01*
X005755Y018144D01*
X005797Y018087D01*
X005847Y018037D01*
X005904Y017995D01*
X005785Y018104D02*
X004904Y018104D01*
X004961Y018202D02*
X005726Y018202D01*
X005697Y018301D02*
X005006Y018301D01*
X005033Y018399D02*
X005690Y018399D01*
X005690Y018498D02*
X005059Y018498D01*
X005070Y018596D02*
X005690Y018596D01*
X005690Y018793D02*
X005070Y018793D01*
X005070Y018695D02*
X006090Y018695D01*
X006090Y018596D02*
X006190Y018596D01*
X006190Y018630D02*
X006190Y017932D01*
X006245Y017941D01*
X006313Y017963D01*
X006376Y017995D01*
X006433Y018037D01*
X006483Y018087D01*
X006525Y018144D01*
X006557Y018207D01*
X006579Y018275D01*
X006590Y018345D01*
X006590Y018630D01*
X006190Y018630D01*
X006190Y018695D02*
X006690Y018695D01*
X006690Y018793D02*
X006590Y018793D01*
X006590Y018892D02*
X006690Y018892D01*
X006690Y018990D02*
X006590Y018990D01*
X006578Y019089D02*
X006698Y019089D01*
X006690Y018596D02*
X006590Y018596D01*
X006590Y018498D02*
X006690Y018498D01*
X006690Y018399D02*
X006590Y018399D01*
X006583Y018301D02*
X006690Y018301D01*
X006727Y018202D02*
X006554Y018202D01*
X006495Y018104D02*
X006740Y018104D01*
X006740Y018005D02*
X006389Y018005D01*
X006190Y018005D02*
X006090Y018005D01*
X006090Y018104D02*
X006190Y018104D01*
X006190Y018202D02*
X006090Y018202D01*
X006090Y018301D02*
X006190Y018301D01*
X006190Y018399D02*
X006090Y018399D01*
X006090Y018498D02*
X006190Y018498D01*
X005690Y018892D02*
X005051Y018892D01*
X005025Y018990D02*
X005690Y018990D01*
X005702Y019089D02*
X004999Y019089D01*
X003547Y017020D02*
X003430Y017020D01*
X003430Y016922D02*
X003515Y016922D01*
X003515Y016823D02*
X003430Y016823D01*
X003430Y016725D02*
X003515Y016725D01*
X003515Y016626D02*
X003430Y016626D01*
X003430Y016528D02*
X003515Y016528D01*
X003430Y016429D02*
X004146Y016429D01*
X004146Y016331D02*
X004246Y016331D01*
X004246Y016232D02*
X004146Y016232D01*
X004146Y016134D02*
X004246Y016134D01*
X004246Y016035D02*
X004146Y016035D01*
X004146Y015937D02*
X004246Y015937D01*
X004246Y015838D02*
X004146Y015838D01*
X004146Y015740D02*
X004246Y015740D01*
X003578Y015740D02*
X003430Y015740D01*
X003430Y015838D02*
X003516Y015838D01*
X003515Y015937D02*
X003430Y015937D01*
X003430Y016035D02*
X003515Y016035D01*
X003515Y016134D02*
X003430Y016134D01*
X003430Y016232D02*
X003515Y016232D01*
X003515Y016331D02*
X003430Y016331D01*
X007834Y016134D02*
X007934Y016134D01*
X007934Y016035D02*
X007834Y016035D01*
X007834Y015937D02*
X007934Y015937D01*
X007934Y015838D02*
X007834Y015838D01*
X007834Y015740D02*
X007934Y015740D01*
X009553Y018202D02*
X009727Y018202D01*
X009690Y018301D02*
X009590Y018301D01*
X009590Y018399D02*
X009690Y018399D01*
X009690Y018498D02*
X009590Y018498D01*
X009590Y018596D02*
X009690Y018596D01*
X009690Y018695D02*
X009590Y018695D01*
X009590Y018793D02*
X009690Y018793D01*
X009690Y018892D02*
X009590Y018892D01*
X009590Y018990D02*
X009690Y018990D01*
X009698Y019089D02*
X009582Y019089D01*
X019370Y017414D02*
X022970Y017414D01*
X022970Y017316D02*
X019375Y017316D01*
X019422Y017217D02*
X022970Y017217D01*
X022970Y017119D02*
X019430Y017119D01*
X019404Y017020D02*
X022970Y017020D01*
X022970Y016922D02*
X019332Y016922D01*
X020904Y017995D02*
X020967Y017963D01*
X021035Y017941D01*
X021090Y017932D01*
X021090Y018630D01*
X020690Y018630D01*
X020690Y018345D01*
X020701Y018275D01*
X020723Y018207D01*
X020755Y018144D01*
X020797Y018087D01*
X020847Y018037D01*
X020904Y017995D01*
X020890Y018005D02*
X020401Y018005D01*
X020500Y018104D02*
X020785Y018104D01*
X020726Y018202D02*
X020553Y018202D01*
X020590Y018301D02*
X020697Y018301D01*
X020690Y018399D02*
X020590Y018399D01*
X020590Y018498D02*
X020690Y018498D01*
X020690Y018596D02*
X020590Y018596D01*
X020590Y018695D02*
X021090Y018695D01*
X021090Y018596D02*
X021190Y018596D01*
X021190Y018630D02*
X021190Y017932D01*
X021245Y017941D01*
X021313Y017963D01*
X021376Y017995D01*
X021433Y018037D01*
X021483Y018087D01*
X021525Y018144D01*
X021557Y018207D01*
X021579Y018275D01*
X021590Y018345D01*
X021590Y018630D01*
X021190Y018630D01*
X021190Y018695D02*
X021655Y018695D01*
X021655Y018793D02*
X021590Y018793D01*
X021590Y018892D02*
X021655Y018892D01*
X021655Y018990D02*
X021590Y018990D01*
X021578Y019089D02*
X021655Y019089D01*
X021655Y018596D02*
X021590Y018596D01*
X021590Y018498D02*
X021655Y018498D01*
X021655Y018399D02*
X021590Y018399D01*
X021583Y018301D02*
X021655Y018301D01*
X021736Y018202D02*
X021554Y018202D01*
X021495Y018104D02*
X021850Y018104D01*
X021850Y018005D02*
X021389Y018005D01*
X021190Y018005D02*
X021090Y018005D01*
X021090Y018104D02*
X021190Y018104D01*
X021190Y018202D02*
X021090Y018202D01*
X021090Y018301D02*
X021190Y018301D01*
X021190Y018399D02*
X021090Y018399D01*
X021090Y018498D02*
X021190Y018498D01*
X020690Y018793D02*
X020590Y018793D01*
X020590Y018892D02*
X020690Y018892D01*
X020690Y018990D02*
X020590Y018990D01*
X020582Y019089D02*
X020702Y019089D01*
X022504Y018202D02*
X022856Y018202D01*
X022775Y018301D02*
X022585Y018301D01*
X022585Y018399D02*
X022775Y018399D01*
X022775Y018498D02*
X022585Y018498D01*
X022585Y018596D02*
X022775Y018596D01*
X022775Y018695D02*
X022585Y018695D01*
X022585Y018793D02*
X022775Y018793D01*
X022775Y018892D02*
X022585Y018892D01*
X022585Y018990D02*
X022775Y018990D01*
X022775Y019089D02*
X022585Y019089D01*
X023803Y017217D02*
X023950Y017217D01*
X023950Y017119D02*
X023857Y017119D01*
X023870Y017020D02*
X023950Y017020D01*
X026320Y015444D02*
X026567Y015444D01*
X026515Y015346D02*
X026493Y015346D01*
X026516Y014755D02*
X026320Y014755D01*
X026320Y014656D02*
X026534Y014656D01*
X026515Y014558D02*
X026320Y014558D01*
X027386Y014656D02*
X027562Y014656D01*
X027562Y014755D02*
X027404Y014755D01*
X027405Y014558D02*
X027585Y014558D01*
X028810Y017020D02*
X028836Y017020D01*
X022970Y014952D02*
X022960Y014952D01*
X021734Y012686D02*
X021634Y012686D01*
X021634Y012588D02*
X021734Y012588D01*
X021734Y012489D02*
X021634Y012489D01*
X021634Y012391D02*
X021734Y012391D01*
X021734Y012292D02*
X021634Y012292D01*
X021634Y012194D02*
X021734Y012194D01*
X021734Y012095D02*
X021634Y012095D01*
X021634Y011997D02*
X021734Y011997D01*
X021734Y011898D02*
X021634Y011898D01*
X021634Y011800D02*
X021734Y011800D01*
X021734Y011701D02*
X021634Y011701D01*
X021634Y011603D02*
X021734Y011603D01*
X021548Y010125D02*
X021512Y010125D01*
X021525Y010027D02*
X021535Y010027D01*
X021525Y009534D02*
X021535Y009534D01*
X021575Y009436D02*
X021485Y009436D01*
X021525Y009337D02*
X021539Y009337D01*
X021525Y009239D02*
X021535Y009239D01*
X021525Y009140D02*
X021535Y009140D01*
X021525Y009042D02*
X021930Y009042D01*
X021930Y008943D02*
X022030Y008943D01*
X022030Y008845D02*
X021930Y008845D01*
X021930Y008746D02*
X022030Y008746D01*
X022030Y008648D02*
X021930Y008648D01*
X021637Y008648D02*
X021445Y008648D01*
X021525Y008746D02*
X021541Y008746D01*
X021535Y008845D02*
X021525Y008845D01*
X021525Y008943D02*
X021535Y008943D01*
X022030Y009042D02*
X022820Y009042D01*
X022820Y008943D02*
X022920Y008943D01*
X022920Y008996D02*
X022920Y008640D01*
X023185Y008640D01*
X023223Y008650D01*
X023257Y008670D01*
X023285Y008698D01*
X023305Y008732D01*
X023315Y008770D01*
X023315Y008996D01*
X022920Y008996D01*
X022920Y009042D02*
X024239Y009042D01*
X024260Y009140D02*
X023315Y009140D01*
X023315Y009239D02*
X024260Y009239D01*
X024260Y009337D02*
X023311Y009337D01*
X023275Y009436D02*
X024260Y009436D01*
X024260Y009534D02*
X023610Y009534D01*
X023719Y009633D02*
X024260Y009633D01*
X024260Y009731D02*
X023759Y009731D01*
X023760Y009830D02*
X024260Y009830D01*
X024260Y009928D02*
X023778Y009928D01*
X023847Y010027D02*
X024260Y010027D01*
X024260Y010125D02*
X023974Y010125D01*
X024114Y010224D02*
X024260Y010224D01*
X024260Y010322D02*
X024162Y010322D01*
X024720Y010322D02*
X028068Y010322D01*
X028068Y010224D02*
X024720Y010224D01*
X024720Y010125D02*
X028068Y010125D01*
X028041Y010027D02*
X024720Y010027D01*
X024720Y009928D02*
X028020Y009928D01*
X028020Y009830D02*
X024720Y009830D01*
X024720Y009731D02*
X028020Y009731D01*
X028020Y009633D02*
X024720Y009633D01*
X024720Y009534D02*
X028020Y009534D01*
X028020Y009436D02*
X024720Y009436D01*
X024720Y009337D02*
X027997Y009337D01*
X027960Y009239D02*
X024720Y009239D01*
X024720Y009140D02*
X026286Y009140D01*
X026189Y009042D02*
X024741Y009042D01*
X024780Y008943D02*
X026150Y008943D01*
X026150Y008845D02*
X024780Y008845D01*
X024744Y008746D02*
X026186Y008746D01*
X026272Y008648D02*
X024658Y008648D01*
X024322Y008648D02*
X023213Y008648D01*
X023309Y008746D02*
X024236Y008746D01*
X024200Y008845D02*
X023315Y008845D01*
X023315Y008943D02*
X024200Y008943D01*
X023330Y009534D02*
X023315Y009534D01*
X022920Y008845D02*
X022820Y008845D01*
X022820Y008746D02*
X022920Y008746D01*
X022920Y008648D02*
X022820Y008648D01*
X022527Y008648D02*
X022323Y008648D01*
X022419Y008746D02*
X022431Y008746D01*
X021350Y008549D02*
X026456Y008549D01*
X026554Y008451D02*
X021350Y008451D01*
X021350Y008352D02*
X026653Y008352D01*
X026720Y008254D02*
X021350Y008254D01*
X021350Y008155D02*
X026720Y008155D01*
X026720Y008057D02*
X021350Y008057D01*
X021350Y007958D02*
X026720Y007958D01*
X026720Y007860D02*
X021350Y007860D01*
X020460Y007072D02*
X019960Y007072D01*
X019960Y007170D02*
X019860Y007170D01*
X019860Y007072D02*
X019360Y007072D01*
X019360Y007170D02*
X019460Y007170D01*
X019460Y007269D02*
X019360Y007269D01*
X019360Y007367D02*
X019460Y007367D01*
X019466Y007466D02*
X019360Y007466D01*
X019325Y007564D02*
X019494Y007564D01*
X019552Y007663D02*
X019274Y007663D01*
X019175Y007761D02*
X019655Y007761D01*
X019860Y007761D02*
X019960Y007761D01*
X019960Y007663D02*
X019860Y007663D01*
X019860Y007564D02*
X019960Y007564D01*
X019960Y007466D02*
X019860Y007466D01*
X019860Y007367D02*
X019960Y007367D01*
X019960Y007269D02*
X019860Y007269D01*
X019860Y007040D02*
X019460Y007040D01*
X019460Y006755D01*
X019471Y006685D01*
X019493Y006617D01*
X019525Y006554D01*
X019567Y006497D01*
X019617Y006447D01*
X019674Y006405D01*
X019737Y006373D01*
X019805Y006351D01*
X019860Y006342D01*
X019860Y007040D01*
X019860Y006973D02*
X019960Y006973D01*
X019960Y006875D02*
X019860Y006875D01*
X019860Y006776D02*
X019960Y006776D01*
X019960Y006678D02*
X019860Y006678D01*
X019860Y006579D02*
X019960Y006579D01*
X019960Y006481D02*
X019860Y006481D01*
X019860Y006382D02*
X019960Y006382D01*
X019720Y006382D02*
X019101Y006382D01*
X019237Y006481D02*
X019583Y006481D01*
X019512Y006579D02*
X019310Y006579D01*
X019350Y006678D02*
X019473Y006678D01*
X019460Y006776D02*
X019360Y006776D01*
X019360Y006875D02*
X019460Y006875D01*
X019460Y006973D02*
X019360Y006973D01*
X018719Y006382D02*
X018101Y006382D01*
X018165Y006409D02*
X018291Y006535D01*
X018360Y006700D01*
X018360Y007480D01*
X018291Y007645D01*
X018165Y007771D01*
X018000Y007840D01*
X017820Y007840D01*
X017655Y007771D01*
X017529Y007645D01*
X017460Y007480D01*
X017460Y006700D01*
X017529Y006535D01*
X017655Y006409D01*
X017820Y006340D01*
X018000Y006340D01*
X018165Y006409D01*
X018237Y006481D02*
X018583Y006481D01*
X018510Y006579D02*
X018310Y006579D01*
X018350Y006678D02*
X018470Y006678D01*
X018460Y006776D02*
X018360Y006776D01*
X018360Y006875D02*
X018460Y006875D01*
X018460Y006973D02*
X018360Y006973D01*
X018360Y007072D02*
X018460Y007072D01*
X018460Y007170D02*
X018360Y007170D01*
X018360Y007269D02*
X018460Y007269D01*
X018460Y007367D02*
X018360Y007367D01*
X018360Y007466D02*
X018460Y007466D01*
X018495Y007564D02*
X018325Y007564D01*
X018274Y007663D02*
X018546Y007663D01*
X018645Y007761D02*
X018175Y007761D01*
X017645Y007761D02*
X017175Y007761D01*
X017165Y007771D02*
X017000Y007840D01*
X016820Y007840D01*
X016655Y007771D01*
X016529Y007645D01*
X016460Y007480D01*
X016460Y006700D01*
X016529Y006535D01*
X016655Y006409D01*
X016820Y006340D01*
X017000Y006340D01*
X017165Y006409D01*
X017291Y006535D01*
X017360Y006700D01*
X017360Y007480D01*
X017291Y007645D01*
X017165Y007771D01*
X017274Y007663D02*
X017546Y007663D01*
X017495Y007564D02*
X017325Y007564D01*
X017360Y007466D02*
X017460Y007466D01*
X017460Y007367D02*
X017360Y007367D01*
X017360Y007269D02*
X017460Y007269D01*
X017460Y007170D02*
X017360Y007170D01*
X017360Y007072D02*
X017460Y007072D01*
X017460Y006973D02*
X017360Y006973D01*
X017360Y006875D02*
X017460Y006875D01*
X017460Y006776D02*
X017360Y006776D01*
X017350Y006678D02*
X017470Y006678D01*
X017510Y006579D02*
X017310Y006579D01*
X017237Y006481D02*
X017583Y006481D01*
X017719Y006382D02*
X017101Y006382D01*
X016719Y006382D02*
X016101Y006382D01*
X016237Y006481D02*
X016583Y006481D01*
X016510Y006579D02*
X016310Y006579D01*
X016350Y006678D02*
X016470Y006678D01*
X016460Y006776D02*
X016360Y006776D01*
X016360Y006875D02*
X016460Y006875D01*
X016460Y006973D02*
X016360Y006973D01*
X016360Y007072D02*
X016460Y007072D01*
X016460Y007170D02*
X016360Y007170D01*
X016360Y007269D02*
X016460Y007269D01*
X016460Y007367D02*
X016360Y007367D01*
X016360Y007466D02*
X016460Y007466D01*
X016495Y007564D02*
X016325Y007564D01*
X016274Y007663D02*
X016546Y007663D01*
X016645Y007761D02*
X016175Y007761D01*
X016140Y007860D02*
X018680Y007860D01*
X018680Y007958D02*
X016140Y007958D01*
X016140Y008057D02*
X018680Y008057D01*
X018680Y008155D02*
X016140Y008155D01*
X016140Y008254D02*
X018680Y008254D01*
X018680Y008352D02*
X016140Y008352D01*
X016140Y008451D02*
X018680Y008451D01*
X018680Y008549D02*
X016140Y008549D01*
X016140Y008648D02*
X018680Y008648D01*
X018680Y008746D02*
X016140Y008746D01*
X016140Y008845D02*
X018680Y008845D01*
X018680Y008943D02*
X016140Y008943D01*
X016140Y009042D02*
X018680Y009042D01*
X018680Y009140D02*
X016140Y009140D01*
X016140Y009239D02*
X018680Y009239D01*
X018659Y009337D02*
X016140Y009337D01*
X016140Y009436D02*
X018620Y009436D01*
X018620Y009534D02*
X016140Y009534D01*
X016140Y009633D02*
X018655Y009633D01*
X018741Y009731D02*
X016140Y009731D01*
X011243Y007170D02*
X010176Y007170D01*
X010176Y007072D02*
X011215Y007072D01*
X011215Y006973D02*
X010176Y006973D01*
X010176Y006875D02*
X011215Y006875D01*
X011215Y006776D02*
X010176Y006776D01*
X010176Y006678D02*
X011215Y006678D01*
X011259Y006579D02*
X010100Y006579D01*
X004850Y012982D02*
X004824Y012982D01*
X022412Y010125D02*
X022438Y010125D01*
X024720Y010421D02*
X028068Y010421D01*
X028068Y010519D02*
X024720Y010519D01*
X024720Y010618D02*
X028068Y010618D01*
X028068Y010716D02*
X024720Y010716D01*
X024720Y010815D02*
X028068Y010815D01*
X028068Y010913D02*
X024720Y010913D01*
X026594Y009140D02*
X027960Y009140D01*
X027998Y009042D02*
X026691Y009042D01*
X026730Y008943D02*
X028088Y008943D01*
X028412Y008943D02*
X029810Y008943D01*
X029810Y008845D02*
X026811Y008845D01*
X026909Y008746D02*
X029810Y008746D01*
X029810Y008648D02*
X027008Y008648D01*
X027106Y008549D02*
X029810Y008549D01*
X029810Y008451D02*
X027180Y008451D01*
X027180Y008352D02*
X029810Y008352D01*
X029810Y008254D02*
X027180Y008254D01*
X027180Y008155D02*
X029810Y008155D01*
X029810Y008057D02*
X027180Y008057D01*
X027180Y007958D02*
X029810Y007958D01*
X029810Y007860D02*
X027180Y007860D01*
X028502Y009042D02*
X029810Y009042D01*
X029810Y009140D02*
X028540Y009140D01*
X028540Y009239D02*
X028709Y009239D01*
X028609Y009337D02*
X028503Y009337D01*
X028480Y009436D02*
X028570Y009436D01*
X029011Y009239D02*
X029860Y009239D01*
X029860Y009337D02*
X029111Y009337D01*
X029150Y009436D02*
X029860Y009436D01*
X029860Y009534D02*
X029150Y009534D01*
X029115Y009633D02*
X029860Y009633D01*
X029860Y009731D02*
X029090Y009731D01*
X029225Y009830D02*
X029860Y009830D01*
X029860Y009928D02*
X029358Y009928D01*
X029403Y010027D02*
X029860Y010027D01*
X029860Y010125D02*
X029466Y010125D01*
X029606Y010224D02*
X029860Y010224D01*
X029860Y010322D02*
X029654Y010322D01*
X029753Y010421D02*
X029860Y010421D01*
X031490Y010421D02*
X033220Y010421D01*
X033220Y010519D02*
X031490Y010519D01*
X031490Y010322D02*
X033220Y010322D01*
X033220Y010224D02*
X031490Y010224D01*
X031490Y010125D02*
X033220Y010125D01*
X033220Y010027D02*
X031490Y010027D01*
X031490Y009928D02*
X033220Y009928D01*
X033220Y009830D02*
X031490Y009830D01*
X031490Y009731D02*
X033220Y009731D01*
X033220Y009633D02*
X031490Y009633D01*
X031490Y009534D02*
X033220Y009534D01*
X033220Y009436D02*
X031490Y009436D01*
X031490Y009337D02*
X031720Y009337D01*
X031505Y009239D02*
X031490Y009239D01*
X031490Y008648D02*
X031665Y008648D01*
X031680Y008549D02*
X031490Y008549D01*
X031490Y008451D02*
X031665Y008451D01*
X031665Y008352D02*
X031490Y008352D01*
X031490Y008254D02*
X031665Y008254D01*
X031665Y008155D02*
X031490Y008155D01*
X031490Y008057D02*
X031665Y008057D01*
X031665Y007958D02*
X031490Y007958D01*
X031490Y007860D02*
X031703Y007860D01*
X031490Y007761D02*
X034012Y007761D01*
X034012Y007663D02*
X031490Y007663D01*
X031490Y007564D02*
X033251Y007564D01*
X032985Y007466D02*
X031490Y007466D01*
X031490Y007367D02*
X032820Y007367D01*
X032721Y007269D02*
X031492Y007269D01*
X031541Y007170D02*
X032624Y007170D01*
X032567Y007072D02*
X031550Y007072D01*
X031525Y006973D02*
X032510Y006973D01*
X032470Y006875D02*
X031455Y006875D01*
X031065Y006875D02*
X030880Y006875D01*
X030880Y006973D02*
X030995Y006973D01*
X030970Y007072D02*
X030880Y007072D01*
X030880Y007170D02*
X030979Y007170D01*
X031028Y007269D02*
X030880Y007269D01*
X030880Y007367D02*
X031030Y007367D01*
X031030Y007466D02*
X030880Y007466D01*
X030880Y007564D02*
X030890Y007564D01*
X031025Y007564D02*
X031030Y007564D01*
X030420Y007564D02*
X030270Y007564D01*
X030270Y007466D02*
X030420Y007466D01*
X030420Y007367D02*
X030270Y007367D01*
X030270Y007269D02*
X030420Y007269D01*
X030420Y007170D02*
X030270Y007170D01*
X030270Y007072D02*
X030420Y007072D01*
X030420Y006973D02*
X030270Y006973D01*
X030270Y006875D02*
X030420Y006875D01*
X030420Y006776D02*
X030270Y006776D01*
X030270Y006678D02*
X030420Y006678D01*
X030420Y006579D02*
X030270Y006579D01*
X030292Y006481D02*
X030420Y006481D01*
X030420Y006382D02*
X030330Y006382D01*
X030330Y006284D02*
X030420Y006284D01*
X030400Y006185D02*
X030294Y006185D01*
X030360Y006087D02*
X030207Y006087D01*
X029788Y006481D02*
X029277Y006481D01*
X029350Y006579D02*
X029810Y006579D01*
X029810Y006678D02*
X029390Y006678D01*
X029400Y006776D02*
X029810Y006776D01*
X029810Y006875D02*
X029400Y006875D01*
X029400Y006973D02*
X029810Y006973D01*
X029810Y007072D02*
X029400Y007072D01*
X029400Y007170D02*
X029810Y007170D01*
X029810Y007269D02*
X029400Y007269D01*
X029400Y007367D02*
X029810Y007367D01*
X029810Y007466D02*
X029400Y007466D01*
X029365Y007564D02*
X029810Y007564D01*
X029810Y007663D02*
X029314Y007663D01*
X029215Y007761D02*
X029810Y007761D01*
X030270Y007761D02*
X030420Y007761D01*
X030420Y007663D02*
X030270Y007663D01*
X030270Y007860D02*
X030420Y007860D01*
X030420Y007958D02*
X030270Y007958D01*
X030270Y008057D02*
X030420Y008057D01*
X030420Y008155D02*
X030270Y008155D01*
X030270Y008254D02*
X030420Y008254D01*
X030420Y008352D02*
X030270Y008352D01*
X030270Y008451D02*
X030420Y008451D01*
X030420Y008549D02*
X030270Y008549D01*
X030270Y008648D02*
X030420Y008648D01*
X032500Y009337D02*
X032580Y009337D01*
X032920Y009337D02*
X033020Y009337D01*
X033020Y009239D02*
X032920Y009239D01*
X032920Y009140D02*
X033020Y009140D01*
X033020Y009042D02*
X032920Y009042D01*
X033640Y009042D02*
X034012Y009042D01*
X034012Y009140D02*
X033640Y009140D01*
X033640Y009239D02*
X034012Y009239D01*
X034012Y009337D02*
X033640Y009337D01*
X033640Y009436D02*
X034012Y009436D01*
X034012Y009534D02*
X033640Y009534D01*
X033640Y009633D02*
X034012Y009633D01*
X034012Y009731D02*
X033640Y009731D01*
X033640Y009830D02*
X034012Y009830D01*
X034012Y009928D02*
X033640Y009928D01*
X033640Y010027D02*
X034012Y010027D01*
X034012Y010125D02*
X033640Y010125D01*
X033640Y010224D02*
X034012Y010224D01*
X034012Y010322D02*
X033640Y010322D01*
X033640Y010421D02*
X034012Y010421D01*
X034012Y010519D02*
X033640Y010519D01*
X033640Y010618D02*
X034012Y010618D01*
X034012Y010716D02*
X033640Y010716D01*
X033640Y010815D02*
X034012Y010815D01*
X034012Y010913D02*
X033640Y010913D01*
X033640Y011012D02*
X034012Y011012D01*
X034012Y011110D02*
X033640Y011110D01*
X033640Y008943D02*
X034012Y008943D01*
X034012Y008845D02*
X033640Y008845D01*
X033640Y008746D02*
X034012Y008746D01*
X034012Y008648D02*
X033640Y008648D01*
X033640Y008549D02*
X034012Y008549D01*
X034012Y008451D02*
X033640Y008451D01*
X033640Y008352D02*
X034012Y008352D01*
X034012Y008254D02*
X033640Y008254D01*
X033640Y008155D02*
X034012Y008155D01*
X034012Y008057D02*
X033568Y008057D01*
X033415Y007958D02*
X034012Y007958D01*
X034012Y007860D02*
X033377Y007860D01*
X033729Y007564D02*
X034012Y007564D01*
X034012Y007466D02*
X033995Y007466D01*
X032563Y007860D02*
X032517Y007860D01*
X032443Y006776D02*
X030880Y006776D01*
X030880Y006678D02*
X032417Y006678D01*
X032410Y006579D02*
X030880Y006579D01*
X030880Y006481D02*
X032410Y006481D01*
X032410Y006382D02*
X030880Y006382D01*
X030880Y006284D02*
X032433Y006284D01*
X032459Y006185D02*
X030900Y006185D01*
X030940Y006087D02*
X032488Y006087D01*
D25*
X031260Y007090D03*
X032020Y007350D03*
X030957Y007850D03*
X030346Y008964D03*
X031590Y008960D03*
X032480Y010240D03*
X031610Y011040D03*
X031920Y011850D03*
X029670Y010700D03*
X029372Y010400D03*
X029120Y010100D03*
X028554Y009794D03*
X028860Y009490D03*
X028250Y009190D03*
X028780Y008960D03*
X026440Y008890D03*
X024490Y008890D03*
X023470Y009790D03*
X023580Y010140D03*
X023880Y010400D03*
X024180Y010700D03*
X023240Y011040D03*
X025390Y011340D03*
X026740Y011650D03*
X027480Y012160D03*
X026190Y012780D03*
X025690Y012560D03*
X025090Y012860D03*
X025990Y013520D03*
X025530Y014290D03*
X024490Y014290D03*
X023240Y015070D03*
X024190Y016060D03*
X024490Y015760D03*
X024790Y015460D03*
X026400Y015070D03*
X027220Y015970D03*
X028230Y016190D03*
X028430Y016490D03*
X028630Y016790D03*
X029010Y017270D03*
X029210Y017570D03*
X029790Y018180D03*
X030100Y017876D03*
X029490Y018480D03*
X030510Y018780D03*
X027960Y017870D03*
X025830Y016790D03*
X026130Y016490D03*
X025090Y017030D03*
X024180Y016430D03*
X023880Y016730D03*
X023580Y017030D03*
X022120Y017870D03*
X024180Y018480D03*
X024480Y018180D03*
X024790Y018780D03*
X024050Y019030D03*
X019140Y017140D03*
X018140Y017140D03*
X017140Y017140D03*
X016680Y016740D03*
X016140Y017140D03*
X016680Y016140D03*
X013860Y016080D03*
X013880Y015110D03*
X013890Y014010D03*
X013374Y012860D03*
X012030Y011760D03*
X010750Y012560D03*
X010410Y012160D03*
X009176Y012860D03*
X008384Y012860D03*
X007636Y012860D03*
X008410Y011560D03*
X007656Y010520D03*
X009216Y010520D03*
X010450Y011040D03*
X012000Y010030D03*
X014530Y010060D03*
X015910Y010700D03*
X015760Y011750D03*
X018810Y011040D03*
X017560Y009980D03*
X018910Y009490D03*
X017390Y008100D03*
X014590Y008050D03*
X012630Y008250D03*
X006030Y006700D03*
X004040Y013470D03*
X007490Y016740D03*
X009316Y016740D03*
X013860Y017110D03*
X021160Y015240D03*
X027620Y014120D03*
X029470Y013560D03*
X030910Y015820D03*
X031610Y016190D03*
X031920Y015820D03*
X032460Y016730D03*
X030652Y016970D03*
X033449Y014741D03*
X022930Y008030D03*
X020580Y011040D03*
X030040Y006330D03*
X030650Y006030D03*
D26*
X008806Y007780D02*
X005444Y007780D01*
X004226Y008997D01*
X005380Y009940D02*
X005380Y013270D01*
X005380Y013557D01*
X004196Y014741D01*
X005380Y009940D02*
X006323Y008997D01*
X006392Y008997D01*
D27*
X007656Y009690D02*
X007656Y010520D01*
X007656Y011040D01*
X006781Y011040D01*
X006392Y010651D01*
X008404Y011040D02*
X008404Y011554D01*
X008410Y011560D01*
X009216Y011040D02*
X009216Y010520D01*
X009236Y009690D02*
X008404Y009690D01*
X009984Y009690D02*
X010750Y009690D01*
X010750Y012560D01*
X010410Y012160D02*
X010230Y012340D01*
X009924Y012340D01*
X009176Y012340D02*
X009176Y012860D01*
X008384Y012860D02*
X008384Y012340D01*
X007636Y012340D02*
X007636Y012860D01*
X007636Y012340D02*
X006428Y012340D01*
X006392Y012304D01*
X013374Y012860D02*
X013374Y006880D01*
X012626Y006880D02*
X012624Y006882D01*
X011680Y006882D01*
X015910Y007090D02*
X015910Y010700D01*
X018910Y009490D02*
X018910Y007090D01*
X021080Y009794D02*
X021980Y009794D01*
X022870Y009794D01*
X022874Y009790D01*
X023470Y009790D01*
X023580Y010140D02*
X023580Y017030D01*
X023880Y016730D02*
X023880Y010400D01*
X024180Y010700D02*
X024190Y010710D01*
X024190Y016060D01*
X024490Y015760D02*
X024490Y018170D01*
X024480Y018180D01*
X024180Y018480D02*
X024180Y016430D01*
X025090Y017030D02*
X025090Y012860D01*
X025690Y012560D02*
X025690Y013650D01*
X026090Y014050D01*
X026090Y016450D01*
X026130Y016490D01*
X025830Y016790D02*
X025830Y014160D01*
X025390Y013720D01*
X025390Y011340D01*
X027480Y012160D02*
X027482Y012162D01*
X027787Y012162D01*
X028043Y012162D02*
X028043Y012786D01*
X026960Y012786D01*
X027164Y012780D01*
X026190Y012780D01*
X026960Y013534D02*
X028043Y013534D01*
X028043Y014918D01*
X028298Y014918D02*
X028298Y016122D01*
X028230Y016190D01*
X028430Y016490D02*
X028554Y016366D01*
X028554Y014918D01*
X028810Y014918D02*
X028810Y016610D01*
X028630Y016790D01*
X029066Y017214D02*
X029010Y017270D01*
X029066Y017214D02*
X029066Y014918D01*
X029322Y014918D02*
X029322Y017458D01*
X029210Y017570D01*
X029490Y017690D02*
X029490Y018480D01*
X029790Y018180D02*
X029790Y017760D01*
X029834Y017716D01*
X029834Y014918D01*
X030090Y014918D02*
X030090Y017866D01*
X030100Y017876D01*
X029578Y017602D02*
X029490Y017690D01*
X029578Y017602D02*
X029578Y014918D01*
X030346Y014918D02*
X030346Y017242D01*
X031030Y017926D01*
X031030Y018674D02*
X030924Y018780D01*
X030510Y018780D01*
X031030Y018674D02*
X031820Y018674D01*
X030652Y016970D02*
X030602Y016920D01*
X030602Y014918D01*
X030857Y014918D02*
X030857Y015767D01*
X030910Y015820D01*
X031610Y016190D02*
X031610Y011040D01*
X031260Y011700D02*
X031350Y011790D01*
X031350Y014330D01*
X031113Y014567D01*
X031113Y014918D01*
X031870Y015770D02*
X031920Y015820D01*
X031870Y015770D02*
X031870Y011900D01*
X031920Y011850D01*
X031260Y011700D02*
X031260Y007090D01*
X030040Y006330D02*
X030040Y009080D01*
X030090Y009130D01*
X030090Y012162D01*
X030346Y012162D02*
X030346Y008964D01*
X030602Y009128D02*
X030650Y009080D01*
X030650Y006030D01*
X030957Y007850D02*
X030957Y009143D01*
X030857Y009243D01*
X030857Y012162D01*
X030602Y012162D02*
X030602Y009128D01*
X031590Y008960D02*
X032106Y008960D01*
X032110Y008964D01*
X032110Y008216D02*
X032970Y008216D01*
X029372Y010400D02*
X029322Y010450D01*
X029322Y012162D01*
X029066Y012162D02*
X029066Y010144D01*
X029120Y010100D01*
X028860Y009910D02*
X028860Y009490D01*
X028554Y009794D02*
X028554Y012162D01*
X028298Y012162D02*
X028298Y009958D01*
X028250Y009910D01*
X028250Y009190D01*
X028860Y009910D02*
X028810Y009960D01*
X028810Y012162D01*
X029578Y012162D02*
X029578Y010792D01*
X029670Y010700D01*
X026950Y008380D02*
X026440Y008890D01*
X026950Y008380D02*
X026950Y007090D01*
X024490Y008890D02*
X024490Y014290D01*
X025530Y014290D02*
X025530Y017870D01*
X026626Y017870D01*
X026620Y017876D01*
X026626Y017870D02*
X027446Y017870D01*
X027440Y017876D01*
X027446Y017870D02*
X027960Y017870D01*
X024790Y018780D02*
X024790Y015460D01*
X027156Y015070D02*
X027635Y015070D01*
X027787Y014918D01*
X019140Y017140D02*
X019140Y018680D01*
X018140Y018680D02*
X018140Y017140D01*
X017140Y017140D02*
X017140Y018680D01*
X016140Y018680D02*
X016140Y017140D01*
X010946Y017290D02*
X010064Y017290D01*
X010064Y017366D01*
X009510Y017920D01*
X008140Y017920D01*
X008140Y018680D01*
X007486Y017336D02*
X007486Y017260D01*
X009316Y017290D02*
X009316Y016740D01*
D28*
X009616Y015600D02*
X011790Y015600D01*
X011790Y013730D01*
X010670Y013730D02*
X009546Y013730D01*
X007814Y013730D02*
X005377Y013730D01*
X005370Y013737D01*
D29*
X005380Y013727D01*
X005380Y013270D01*
D30*
X033030Y013680D02*
X033030Y011530D01*
X033430Y011130D01*
X033430Y008216D01*
X032970Y008216D01*
X033030Y013680D02*
X033450Y014100D01*
X033450Y014740D01*
X033449Y014741D01*
D31*
X023240Y014570D02*
X023240Y011040D01*
X020580Y011040D02*
X020580Y009420D01*
X020954Y009046D01*
X021080Y009046D01*
X021080Y007260D01*
X020910Y007090D01*
X018810Y011040D02*
X018810Y011892D01*
X018810Y011892D01*
X018808Y011890D01*
X022578Y014570D02*
X023240Y014570D01*
X023240Y015070D01*
X023240Y018700D01*
X022120Y018700D02*
X022120Y017870D01*
X016680Y016740D02*
X016680Y016140D01*
X010450Y011040D02*
X009964Y011040D01*
D32*
X007490Y016740D02*
X007490Y017256D01*
X007486Y017260D01*
X026400Y015070D02*
X027156Y015070D01*
X026960Y015074D01*
D33*
X021082Y014570D02*
X020652Y014140D01*
X018810Y014140D01*
X018810Y014140D01*
X018810Y014736D01*
X018807Y014739D01*
X017700Y014739D01*
X017699Y014740D01*
X017070Y014740D01*
X016630Y015180D01*
X016630Y015600D01*
X018810Y014140D02*
X018810Y013688D01*
X017901Y012900D02*
X017894Y012803D01*
X017894Y011890D01*
X018808Y011890D01*
D34*
X007486Y017260D02*
X007140Y017606D01*
X007140Y018680D01*
D35*
X011790Y015600D03*
D36*
X016630Y015600D03*
M02*
