G75*
G70*
%OFA0B0*%
%FSLAX24Y24*%
%IPPOS*%
%LPD*%
%AMOC8*
5,1,8,0,0,1.08239X$1,22.5*
%
%ADD10C,0.1300*%
%ADD11C,0.0640*%
%ADD12R,0.1103X0.1103*%
%ADD13OC8,0.0640*%
%ADD14C,0.0925*%
D10*
X003990Y006510D03*
X003990Y018680D03*
X033490Y018680D03*
X033490Y006510D03*
D11*
X028950Y006790D02*
X028950Y007390D01*
X027950Y007390D02*
X027950Y006790D01*
X026950Y006790D02*
X026950Y007390D01*
X025950Y007390D02*
X025950Y006790D01*
X024950Y006790D02*
X024950Y007390D01*
X020910Y007390D02*
X020910Y006790D01*
X019910Y006790D02*
X019910Y007390D01*
X018910Y007390D02*
X018910Y006790D01*
X017910Y006790D02*
X017910Y007390D01*
X016910Y007390D02*
X016910Y006790D01*
X015910Y006790D02*
X015910Y007390D01*
X016140Y018380D02*
X016140Y018980D01*
X015140Y018980D02*
X015140Y018380D01*
X014140Y018380D02*
X014140Y018980D01*
X013140Y018980D02*
X013140Y018380D01*
X012140Y018380D02*
X012140Y018980D01*
X011140Y018980D02*
X011140Y018380D01*
X010140Y018380D02*
X010140Y018980D01*
X009140Y018980D02*
X009140Y018380D01*
X008140Y018380D02*
X008140Y018980D01*
X007140Y018980D02*
X007140Y018380D01*
X006140Y018380D02*
X006140Y018980D01*
X017140Y018980D02*
X017140Y018380D01*
X018140Y018380D02*
X018140Y018980D01*
X019140Y018980D02*
X019140Y018380D01*
X020140Y018380D02*
X020140Y018980D01*
X021140Y018980D02*
X021140Y018380D01*
D12*
X006362Y016394D03*
X004196Y016394D03*
X004196Y014741D03*
X006362Y014741D03*
X006392Y012304D03*
X004226Y012304D03*
X004226Y010651D03*
X006392Y010651D03*
X006392Y008997D03*
X004226Y008997D03*
D13*
X033490Y011710D03*
X033490Y013490D03*
D14*
X032510Y013980D03*
X032510Y011220D03*
M02*
