G75*
G70*
%OFA0B0*%
%FSLAX24Y24*%
%IPPOS*%
%LPD*%
%AMOC8*
5,1,8,0,0,1.08239X$1,22.5*
%
%ADD10C,0.0000*%
%ADD11C,0.0030*%
%ADD12C,0.0040*%
%ADD13C,0.0160*%
%ADD14C,0.0060*%
%ADD15C,0.0050*%
%ADD16C,0.0080*%
%ADD17R,0.0300X0.0340*%
%ADD18C,0.0120*%
D10*
X002980Y005560D02*
X002980Y019630D01*
X034462Y019630D01*
X034462Y005560D01*
X002980Y005560D01*
X003360Y006510D02*
X003362Y006560D01*
X003368Y006610D01*
X003378Y006659D01*
X003392Y006707D01*
X003409Y006754D01*
X003430Y006799D01*
X003455Y006843D01*
X003483Y006884D01*
X003515Y006923D01*
X003549Y006960D01*
X003586Y006994D01*
X003626Y007024D01*
X003668Y007051D01*
X003712Y007075D01*
X003758Y007096D01*
X003805Y007112D01*
X003853Y007125D01*
X003903Y007134D01*
X003952Y007139D01*
X004003Y007140D01*
X004053Y007137D01*
X004102Y007130D01*
X004151Y007119D01*
X004199Y007104D01*
X004245Y007086D01*
X004290Y007064D01*
X004333Y007038D01*
X004374Y007009D01*
X004413Y006977D01*
X004449Y006942D01*
X004481Y006904D01*
X004511Y006864D01*
X004538Y006821D01*
X004561Y006777D01*
X004580Y006731D01*
X004596Y006683D01*
X004608Y006634D01*
X004616Y006585D01*
X004620Y006535D01*
X004620Y006485D01*
X004616Y006435D01*
X004608Y006386D01*
X004596Y006337D01*
X004580Y006289D01*
X004561Y006243D01*
X004538Y006199D01*
X004511Y006156D01*
X004481Y006116D01*
X004449Y006078D01*
X004413Y006043D01*
X004374Y006011D01*
X004333Y005982D01*
X004290Y005956D01*
X004245Y005934D01*
X004199Y005916D01*
X004151Y005901D01*
X004102Y005890D01*
X004053Y005883D01*
X004003Y005880D01*
X003952Y005881D01*
X003903Y005886D01*
X003853Y005895D01*
X003805Y005908D01*
X003758Y005924D01*
X003712Y005945D01*
X003668Y005969D01*
X003626Y005996D01*
X003586Y006026D01*
X003549Y006060D01*
X003515Y006097D01*
X003483Y006136D01*
X003455Y006177D01*
X003430Y006221D01*
X003409Y006266D01*
X003392Y006313D01*
X003378Y006361D01*
X003368Y006410D01*
X003362Y006460D01*
X003360Y006510D01*
X003360Y018680D02*
X003362Y018730D01*
X003368Y018780D01*
X003378Y018829D01*
X003392Y018877D01*
X003409Y018924D01*
X003430Y018969D01*
X003455Y019013D01*
X003483Y019054D01*
X003515Y019093D01*
X003549Y019130D01*
X003586Y019164D01*
X003626Y019194D01*
X003668Y019221D01*
X003712Y019245D01*
X003758Y019266D01*
X003805Y019282D01*
X003853Y019295D01*
X003903Y019304D01*
X003952Y019309D01*
X004003Y019310D01*
X004053Y019307D01*
X004102Y019300D01*
X004151Y019289D01*
X004199Y019274D01*
X004245Y019256D01*
X004290Y019234D01*
X004333Y019208D01*
X004374Y019179D01*
X004413Y019147D01*
X004449Y019112D01*
X004481Y019074D01*
X004511Y019034D01*
X004538Y018991D01*
X004561Y018947D01*
X004580Y018901D01*
X004596Y018853D01*
X004608Y018804D01*
X004616Y018755D01*
X004620Y018705D01*
X004620Y018655D01*
X004616Y018605D01*
X004608Y018556D01*
X004596Y018507D01*
X004580Y018459D01*
X004561Y018413D01*
X004538Y018369D01*
X004511Y018326D01*
X004481Y018286D01*
X004449Y018248D01*
X004413Y018213D01*
X004374Y018181D01*
X004333Y018152D01*
X004290Y018126D01*
X004245Y018104D01*
X004199Y018086D01*
X004151Y018071D01*
X004102Y018060D01*
X004053Y018053D01*
X004003Y018050D01*
X003952Y018051D01*
X003903Y018056D01*
X003853Y018065D01*
X003805Y018078D01*
X003758Y018094D01*
X003712Y018115D01*
X003668Y018139D01*
X003626Y018166D01*
X003586Y018196D01*
X003549Y018230D01*
X003515Y018267D01*
X003483Y018306D01*
X003455Y018347D01*
X003430Y018391D01*
X003409Y018436D01*
X003392Y018483D01*
X003378Y018531D01*
X003368Y018580D01*
X003362Y018630D01*
X003360Y018680D01*
X032860Y018680D02*
X032862Y018730D01*
X032868Y018780D01*
X032878Y018829D01*
X032892Y018877D01*
X032909Y018924D01*
X032930Y018969D01*
X032955Y019013D01*
X032983Y019054D01*
X033015Y019093D01*
X033049Y019130D01*
X033086Y019164D01*
X033126Y019194D01*
X033168Y019221D01*
X033212Y019245D01*
X033258Y019266D01*
X033305Y019282D01*
X033353Y019295D01*
X033403Y019304D01*
X033452Y019309D01*
X033503Y019310D01*
X033553Y019307D01*
X033602Y019300D01*
X033651Y019289D01*
X033699Y019274D01*
X033745Y019256D01*
X033790Y019234D01*
X033833Y019208D01*
X033874Y019179D01*
X033913Y019147D01*
X033949Y019112D01*
X033981Y019074D01*
X034011Y019034D01*
X034038Y018991D01*
X034061Y018947D01*
X034080Y018901D01*
X034096Y018853D01*
X034108Y018804D01*
X034116Y018755D01*
X034120Y018705D01*
X034120Y018655D01*
X034116Y018605D01*
X034108Y018556D01*
X034096Y018507D01*
X034080Y018459D01*
X034061Y018413D01*
X034038Y018369D01*
X034011Y018326D01*
X033981Y018286D01*
X033949Y018248D01*
X033913Y018213D01*
X033874Y018181D01*
X033833Y018152D01*
X033790Y018126D01*
X033745Y018104D01*
X033699Y018086D01*
X033651Y018071D01*
X033602Y018060D01*
X033553Y018053D01*
X033503Y018050D01*
X033452Y018051D01*
X033403Y018056D01*
X033353Y018065D01*
X033305Y018078D01*
X033258Y018094D01*
X033212Y018115D01*
X033168Y018139D01*
X033126Y018166D01*
X033086Y018196D01*
X033049Y018230D01*
X033015Y018267D01*
X032983Y018306D01*
X032955Y018347D01*
X032930Y018391D01*
X032909Y018436D01*
X032892Y018483D01*
X032878Y018531D01*
X032868Y018580D01*
X032862Y018630D01*
X032860Y018680D01*
X032860Y006510D02*
X032862Y006560D01*
X032868Y006610D01*
X032878Y006659D01*
X032892Y006707D01*
X032909Y006754D01*
X032930Y006799D01*
X032955Y006843D01*
X032983Y006884D01*
X033015Y006923D01*
X033049Y006960D01*
X033086Y006994D01*
X033126Y007024D01*
X033168Y007051D01*
X033212Y007075D01*
X033258Y007096D01*
X033305Y007112D01*
X033353Y007125D01*
X033403Y007134D01*
X033452Y007139D01*
X033503Y007140D01*
X033553Y007137D01*
X033602Y007130D01*
X033651Y007119D01*
X033699Y007104D01*
X033745Y007086D01*
X033790Y007064D01*
X033833Y007038D01*
X033874Y007009D01*
X033913Y006977D01*
X033949Y006942D01*
X033981Y006904D01*
X034011Y006864D01*
X034038Y006821D01*
X034061Y006777D01*
X034080Y006731D01*
X034096Y006683D01*
X034108Y006634D01*
X034116Y006585D01*
X034120Y006535D01*
X034120Y006485D01*
X034116Y006435D01*
X034108Y006386D01*
X034096Y006337D01*
X034080Y006289D01*
X034061Y006243D01*
X034038Y006199D01*
X034011Y006156D01*
X033981Y006116D01*
X033949Y006078D01*
X033913Y006043D01*
X033874Y006011D01*
X033833Y005982D01*
X033790Y005956D01*
X033745Y005934D01*
X033699Y005916D01*
X033651Y005901D01*
X033602Y005890D01*
X033553Y005883D01*
X033503Y005880D01*
X033452Y005881D01*
X033403Y005886D01*
X033353Y005895D01*
X033305Y005908D01*
X033258Y005924D01*
X033212Y005945D01*
X033168Y005969D01*
X033126Y005996D01*
X033086Y006026D01*
X033049Y006060D01*
X033015Y006097D01*
X032983Y006136D01*
X032955Y006177D01*
X032930Y006221D01*
X032909Y006266D01*
X032892Y006313D01*
X032878Y006361D01*
X032868Y006410D01*
X032862Y006460D01*
X032860Y006510D01*
D11*
X029152Y006212D02*
X029090Y006212D01*
X028967Y006088D01*
X028845Y006088D02*
X028598Y006088D01*
X028598Y006027D02*
X028598Y006150D01*
X028660Y006212D01*
X028784Y006212D01*
X028845Y006150D01*
X028845Y006088D01*
X028784Y005965D02*
X028660Y005965D01*
X028598Y006027D01*
X028477Y005965D02*
X028292Y005965D01*
X028230Y006027D01*
X028230Y006150D01*
X028292Y006212D01*
X028477Y006212D01*
X028477Y006335D02*
X028477Y005965D01*
X028109Y005965D02*
X028109Y006150D01*
X028047Y006212D01*
X027924Y006212D01*
X027924Y006088D02*
X028109Y006088D01*
X028109Y005965D02*
X027924Y005965D01*
X027862Y006027D01*
X027924Y006088D01*
X027740Y006088D02*
X027494Y006088D01*
X027494Y006027D02*
X027494Y006150D01*
X027555Y006212D01*
X027679Y006212D01*
X027740Y006150D01*
X027740Y006088D01*
X027679Y005965D02*
X027555Y005965D01*
X027494Y006027D01*
X027372Y005965D02*
X027372Y006335D01*
X027372Y006150D02*
X027125Y006150D01*
X027125Y005965D02*
X027125Y006335D01*
X026635Y006212D02*
X026450Y006212D01*
X026389Y006150D01*
X026389Y006027D01*
X026450Y005965D01*
X026635Y005965D01*
X026635Y005903D02*
X026635Y006212D01*
X026635Y005903D02*
X026574Y005842D01*
X026512Y005842D01*
X026267Y006027D02*
X026205Y005965D01*
X026082Y005965D01*
X026020Y006027D01*
X026020Y006150D01*
X026082Y006212D01*
X026205Y006212D01*
X026267Y006150D01*
X026267Y006027D01*
X025898Y006212D02*
X025837Y006212D01*
X025713Y006088D01*
X025713Y005965D02*
X025713Y006212D01*
X025592Y006274D02*
X025592Y006150D01*
X025530Y006088D01*
X025345Y006088D01*
X025345Y005965D02*
X025345Y006335D01*
X025530Y006335D01*
X025592Y006274D01*
X025786Y007805D02*
X026033Y007805D01*
X026095Y007867D01*
X026095Y007990D01*
X026033Y008052D01*
X025910Y008052D01*
X025910Y007928D01*
X025786Y007805D02*
X025725Y007867D01*
X025725Y007990D01*
X025786Y008052D01*
X025848Y008173D02*
X025848Y008358D01*
X025910Y008420D01*
X026095Y008420D01*
X026033Y008542D02*
X025910Y008542D01*
X025848Y008603D01*
X025848Y008789D01*
X025725Y008789D02*
X026095Y008789D01*
X026095Y008603D01*
X026033Y008542D01*
X026095Y008173D02*
X025848Y008173D01*
X025145Y008020D02*
X025145Y007897D01*
X025083Y007835D01*
X024960Y007835D02*
X024898Y007958D01*
X024898Y008020D01*
X024960Y008082D01*
X025083Y008082D01*
X025145Y008020D01*
X024960Y007835D02*
X024775Y007835D01*
X024775Y008082D01*
X024898Y008203D02*
X025145Y008327D01*
X024898Y008450D01*
X026785Y008528D02*
X026785Y008334D01*
X027075Y008334D01*
X027075Y008528D01*
X027027Y008629D02*
X027075Y008677D01*
X027075Y008774D01*
X027027Y008822D01*
X026978Y008822D01*
X026930Y008774D01*
X026930Y008677D01*
X026882Y008629D01*
X026833Y008629D01*
X026785Y008677D01*
X026785Y008774D01*
X026833Y008822D01*
X026930Y008431D02*
X026930Y008334D01*
X026930Y008233D02*
X026978Y008185D01*
X026978Y008040D01*
X026978Y008136D02*
X027075Y008233D01*
X026930Y008233D02*
X026833Y008233D01*
X026785Y008185D01*
X026785Y008040D01*
X027075Y008040D01*
X027075Y007938D02*
X026785Y007745D01*
X026785Y007938D02*
X027075Y007745D01*
X027805Y007843D02*
X027853Y007795D01*
X027902Y007795D01*
X027950Y007843D01*
X027950Y007940D01*
X027998Y007988D01*
X028047Y007988D01*
X028095Y007940D01*
X028095Y007843D01*
X028047Y007795D01*
X027805Y007843D02*
X027805Y007940D01*
X027853Y007988D01*
X027853Y008090D02*
X028047Y008090D01*
X028095Y008138D01*
X028095Y008235D01*
X028047Y008283D01*
X028095Y008384D02*
X027805Y008384D01*
X027853Y008283D02*
X027805Y008235D01*
X027805Y008138D01*
X027853Y008090D01*
X028095Y008384D02*
X028095Y008578D01*
X028785Y008487D02*
X028882Y008584D01*
X029075Y008584D01*
X028930Y008584D02*
X028930Y008390D01*
X028882Y008390D02*
X028785Y008487D01*
X028882Y008390D02*
X029075Y008390D01*
X029027Y008289D02*
X028833Y008289D01*
X028785Y008241D01*
X028785Y008096D01*
X029075Y008096D01*
X029075Y008241D01*
X029027Y008289D01*
X029027Y007995D02*
X029075Y007946D01*
X029075Y007849D01*
X029027Y007801D01*
X028930Y007849D02*
X028930Y007946D01*
X028978Y007995D01*
X029027Y007995D01*
X028930Y007849D02*
X028882Y007801D01*
X028833Y007801D01*
X028785Y007849D01*
X028785Y007946D01*
X028833Y007995D01*
X028967Y006212D02*
X028967Y005965D01*
X021870Y006212D02*
X021809Y006212D01*
X021685Y006088D01*
X021564Y006088D02*
X021317Y006088D01*
X021317Y006027D02*
X021317Y006150D01*
X021379Y006212D01*
X021502Y006212D01*
X021564Y006150D01*
X021564Y006088D01*
X021502Y005965D02*
X021379Y005965D01*
X021317Y006027D01*
X021196Y005965D02*
X021010Y005965D01*
X020949Y006027D01*
X020949Y006150D01*
X021010Y006212D01*
X021196Y006212D01*
X021196Y006335D02*
X021196Y005965D01*
X020827Y005965D02*
X020827Y006150D01*
X020765Y006212D01*
X020642Y006212D01*
X020642Y006088D02*
X020827Y006088D01*
X020827Y005965D02*
X020642Y005965D01*
X020580Y006027D01*
X020642Y006088D01*
X020459Y006088D02*
X020212Y006088D01*
X020212Y006027D02*
X020212Y006150D01*
X020274Y006212D01*
X020397Y006212D01*
X020459Y006150D01*
X020459Y006088D01*
X020397Y005965D02*
X020274Y005965D01*
X020212Y006027D01*
X020091Y005965D02*
X020091Y006335D01*
X020091Y006150D02*
X019844Y006150D01*
X019844Y005965D02*
X019844Y006335D01*
X019354Y006150D02*
X019354Y005965D01*
X019354Y006150D02*
X019292Y006212D01*
X019107Y006212D01*
X019107Y005965D01*
X018985Y005965D02*
X018862Y005965D01*
X018923Y005965D02*
X018923Y006212D01*
X018862Y006212D01*
X018740Y006274D02*
X018740Y006150D01*
X018678Y006088D01*
X018493Y006088D01*
X018493Y005965D02*
X018493Y006335D01*
X018678Y006335D01*
X018740Y006274D01*
X018923Y006335D02*
X018923Y006397D01*
X018003Y006335D02*
X018003Y005965D01*
X017818Y005965D01*
X017757Y006027D01*
X017757Y006150D01*
X017818Y006212D01*
X018003Y006212D01*
X017635Y006150D02*
X017635Y006088D01*
X017388Y006088D01*
X017388Y006027D02*
X017388Y006150D01*
X017450Y006212D01*
X017573Y006212D01*
X017635Y006150D01*
X017573Y005965D02*
X017450Y005965D01*
X017388Y006027D01*
X017267Y006027D02*
X017205Y006088D01*
X017082Y006088D01*
X017020Y006150D01*
X017082Y006212D01*
X017267Y006212D01*
X017267Y006027D02*
X017205Y005965D01*
X017020Y005965D01*
X016899Y005965D02*
X016899Y006212D01*
X016899Y005965D02*
X016713Y005965D01*
X016652Y006027D01*
X016652Y006212D01*
X016530Y006150D02*
X016530Y005965D01*
X016530Y006150D02*
X016468Y006212D01*
X016283Y006212D01*
X016283Y005965D01*
X016162Y006027D02*
X016162Y006335D01*
X015915Y006335D02*
X015915Y006027D01*
X015977Y005965D01*
X016100Y005965D01*
X016162Y006027D01*
X016115Y007745D02*
X015745Y007745D01*
X015745Y007930D01*
X015806Y007992D01*
X015930Y007992D01*
X015992Y007930D01*
X015992Y007745D01*
X016053Y008113D02*
X015806Y008113D01*
X015745Y008175D01*
X015745Y008298D01*
X015806Y008360D01*
X016053Y008113D01*
X016115Y008175D01*
X016115Y008298D01*
X016053Y008360D01*
X015806Y008360D01*
X015745Y008482D02*
X015745Y008605D01*
X015745Y008482D02*
X016115Y008482D01*
X016115Y008605D01*
X015930Y008727D02*
X015930Y008974D01*
X016115Y008912D02*
X015745Y008912D01*
X015930Y008727D01*
X016115Y009095D02*
X016115Y009219D01*
X015745Y009219D01*
X015745Y009095D01*
X016755Y009095D02*
X016755Y009219D01*
X017125Y009219D01*
X017125Y009095D01*
X017063Y008974D02*
X017125Y008912D01*
X017125Y008789D01*
X017063Y008727D01*
X017125Y008605D02*
X017125Y008482D01*
X016755Y008482D01*
X016755Y008605D01*
X016816Y008727D02*
X016755Y008789D01*
X016755Y008912D01*
X016816Y008974D01*
X016878Y008974D01*
X016940Y008912D01*
X017002Y008974D01*
X017063Y008974D01*
X016940Y008912D02*
X016940Y008851D01*
X017695Y008737D02*
X017695Y008984D01*
X017756Y008984D01*
X018003Y008737D01*
X018065Y008737D01*
X018065Y008615D02*
X018065Y008492D01*
X017695Y008492D01*
X017695Y008615D01*
X018065Y008370D02*
X018065Y008123D01*
X018065Y008247D02*
X017695Y008247D01*
X017818Y008123D01*
X017756Y008002D02*
X017880Y008002D01*
X017942Y007940D01*
X017942Y007755D01*
X018065Y007755D02*
X017695Y007755D01*
X017695Y007940D01*
X017756Y008002D01*
X017125Y008113D02*
X017125Y008360D01*
X017125Y008237D02*
X016755Y008237D01*
X016878Y008113D01*
X016816Y007992D02*
X016940Y007992D01*
X017002Y007930D01*
X017002Y007745D01*
X017125Y007745D02*
X016755Y007745D01*
X016755Y007930D01*
X016816Y007992D01*
X017695Y009105D02*
X017695Y009229D01*
X018065Y009229D01*
X018065Y009105D01*
X018715Y009115D02*
X018715Y009239D01*
X019085Y009239D01*
X019085Y009115D01*
X018776Y008994D02*
X019023Y008747D01*
X019085Y008747D01*
X019085Y008625D02*
X019085Y008502D01*
X018715Y008502D01*
X018715Y008625D01*
X018715Y008747D02*
X018715Y008994D01*
X018776Y008994D01*
X018776Y008380D02*
X018715Y008318D01*
X018715Y008195D01*
X018776Y008133D01*
X018776Y008012D02*
X018900Y008012D01*
X018962Y007950D01*
X018962Y007765D01*
X019085Y007765D02*
X018715Y007765D01*
X018715Y007950D01*
X018776Y008012D01*
X019085Y008133D02*
X018838Y008380D01*
X018776Y008380D01*
X019085Y008380D02*
X019085Y008133D01*
X019715Y007970D02*
X019715Y007847D01*
X019776Y007785D01*
X020023Y007785D01*
X020085Y007847D01*
X020085Y007970D01*
X020023Y008032D01*
X019900Y008032D01*
X019900Y007908D01*
X019776Y008032D02*
X019715Y007970D01*
X019838Y008153D02*
X019838Y008338D01*
X019900Y008400D01*
X020085Y008400D01*
X020023Y008522D02*
X020085Y008583D01*
X020085Y008769D01*
X019715Y008769D01*
X019838Y008769D02*
X019838Y008583D01*
X019900Y008522D01*
X020023Y008522D01*
X020085Y008153D02*
X019838Y008153D01*
X020715Y008042D02*
X020715Y007795D01*
X020900Y007795D01*
X020838Y007918D01*
X020838Y007980D01*
X020900Y008042D01*
X021023Y008042D01*
X021085Y007980D01*
X021085Y007857D01*
X021023Y007795D01*
X020838Y008163D02*
X021085Y008287D01*
X020838Y008410D01*
X021685Y006212D02*
X021685Y005965D01*
X011065Y010685D02*
X010695Y010685D01*
X010695Y010870D01*
X010756Y010932D01*
X010880Y010932D01*
X010942Y010870D01*
X010942Y010685D01*
X010942Y010808D02*
X011065Y010932D01*
X011065Y011053D02*
X011003Y011053D01*
X010756Y011300D01*
X010695Y011300D01*
X010695Y011053D01*
X008420Y010220D02*
X008173Y010220D01*
X008358Y010405D01*
X008358Y010035D01*
X008052Y010035D02*
X007928Y010158D01*
X007990Y010158D02*
X007805Y010158D01*
X007805Y010035D02*
X007805Y010405D01*
X007990Y010405D01*
X008052Y010344D01*
X008052Y010220D01*
X007990Y010158D01*
X007928Y011405D02*
X007805Y011405D01*
X007743Y011467D01*
X007743Y011528D01*
X007805Y011590D01*
X007928Y011590D01*
X007990Y011528D01*
X007990Y011467D01*
X007928Y011405D01*
X007928Y011590D02*
X007990Y011652D01*
X007990Y011714D01*
X007928Y011775D01*
X007805Y011775D01*
X007743Y011714D01*
X007743Y011652D01*
X007805Y011590D01*
X007622Y011590D02*
X007622Y011714D01*
X007560Y011775D01*
X007375Y011775D01*
X007375Y011405D01*
X007375Y011528D02*
X007560Y011528D01*
X007622Y011590D01*
X007498Y011528D02*
X007622Y011405D01*
X007315Y011938D02*
X006945Y011938D01*
X006945Y012124D01*
X007006Y012185D01*
X007130Y012185D01*
X007192Y012124D01*
X007192Y011938D01*
X007192Y012062D02*
X007315Y012185D01*
X007253Y012307D02*
X007315Y012368D01*
X007315Y012492D01*
X007253Y012554D01*
X007192Y012554D01*
X007130Y012492D01*
X007130Y012430D01*
X007130Y012492D02*
X007068Y012554D01*
X007006Y012554D01*
X006945Y012492D01*
X006945Y012368D01*
X007006Y012307D01*
X009558Y012695D02*
X009558Y013065D01*
X009744Y013065D01*
X009805Y013004D01*
X009805Y012880D01*
X009744Y012818D01*
X009558Y012818D01*
X009682Y012818D02*
X009805Y012695D01*
X009927Y012695D02*
X010174Y012942D01*
X010174Y013004D01*
X010112Y013065D01*
X009988Y013065D01*
X009927Y013004D01*
X009927Y012695D02*
X010174Y012695D01*
X010025Y016545D02*
X009778Y016545D01*
X009657Y016545D02*
X009533Y016668D01*
X009595Y016668D02*
X009410Y016668D01*
X009410Y016545D02*
X009410Y016915D01*
X009595Y016915D01*
X009657Y016854D01*
X009657Y016730D01*
X009595Y016668D01*
X009778Y016792D02*
X009902Y016915D01*
X009902Y016545D01*
X010147Y016730D02*
X010394Y016730D01*
X010332Y016545D02*
X010332Y016915D01*
X010147Y016730D01*
X010730Y016678D02*
X010915Y016678D01*
X010977Y016740D01*
X010977Y016864D01*
X010915Y016925D01*
X010730Y016925D01*
X010730Y016555D01*
X010853Y016678D02*
X010977Y016555D01*
X011098Y016555D02*
X011345Y016555D01*
X011222Y016555D02*
X011222Y016925D01*
X011098Y016802D01*
X011467Y016740D02*
X011590Y016802D01*
X011652Y016802D01*
X011714Y016740D01*
X011714Y016617D01*
X011652Y016555D01*
X011528Y016555D01*
X011467Y016617D01*
X011467Y016740D02*
X011467Y016925D01*
X011714Y016925D01*
X008299Y017605D02*
X008052Y017605D01*
X007930Y017605D02*
X007683Y017605D01*
X007807Y017605D02*
X007807Y017975D01*
X007683Y017852D01*
X007562Y017914D02*
X007500Y017975D01*
X007377Y017975D01*
X007315Y017914D01*
X007315Y017667D01*
X007377Y017605D01*
X007500Y017605D01*
X007562Y017667D01*
X008052Y017852D02*
X008175Y017975D01*
X008175Y017605D01*
X026185Y014774D02*
X026185Y014527D01*
X026370Y014527D01*
X026308Y014650D01*
X026308Y014712D01*
X026370Y014774D01*
X026493Y014774D01*
X026555Y014712D01*
X026555Y014588D01*
X026493Y014527D01*
X026493Y014405D02*
X026555Y014344D01*
X026555Y014220D01*
X026493Y014158D01*
X026246Y014158D01*
X026185Y014220D01*
X026185Y014344D01*
X026246Y014405D01*
X026215Y013554D02*
X026276Y013430D01*
X026400Y013307D01*
X026400Y013492D01*
X026462Y013554D01*
X026523Y013554D01*
X026585Y013492D01*
X026585Y013368D01*
X026523Y013307D01*
X026400Y013307D01*
X026400Y013185D02*
X026462Y013124D01*
X026462Y012938D01*
X026585Y012938D02*
X026215Y012938D01*
X026215Y013124D01*
X026276Y013185D01*
X026400Y013185D01*
X026462Y013062D02*
X026585Y013185D01*
D12*
X022214Y015110D02*
X022138Y015034D01*
X021984Y015034D01*
X021907Y015110D01*
X021754Y015110D02*
X021677Y015034D01*
X021447Y015034D01*
X021447Y015494D01*
X021677Y015494D01*
X021754Y015417D01*
X021754Y015110D01*
X022061Y015264D02*
X022138Y015264D01*
X022214Y015187D01*
X022214Y015110D01*
X022138Y015264D02*
X022214Y015341D01*
X022214Y015417D01*
X022138Y015494D01*
X021984Y015494D01*
X021907Y015417D01*
X019690Y015417D02*
X019690Y015110D01*
X019383Y015417D01*
X019306Y015417D01*
X019230Y015341D01*
X019230Y015187D01*
X019306Y015110D01*
X019306Y014957D02*
X019230Y014880D01*
X019230Y014727D01*
X019306Y014650D01*
X019613Y014650D01*
X019690Y014727D01*
X019690Y014880D01*
X019613Y014957D01*
X017617Y013754D02*
X017540Y013830D01*
X017386Y013830D01*
X017310Y013754D01*
X017156Y013754D02*
X017079Y013830D01*
X016926Y013830D01*
X016849Y013754D01*
X016849Y013447D01*
X016926Y013370D01*
X017079Y013370D01*
X017156Y013447D01*
X017310Y013447D02*
X017386Y013370D01*
X017540Y013370D01*
X017617Y013447D01*
X017617Y013523D01*
X017540Y013600D01*
X017463Y013600D01*
X017540Y013600D02*
X017617Y013677D01*
X017617Y013754D01*
X016923Y014540D02*
X016616Y014540D01*
X016540Y014617D01*
X016540Y014770D01*
X016616Y014847D01*
X016693Y015000D02*
X016540Y015154D01*
X017000Y015154D01*
X017000Y015307D02*
X017000Y015000D01*
X016923Y014847D02*
X017000Y014770D01*
X017000Y014617D01*
X016923Y014540D01*
X015140Y014627D02*
X014880Y014627D01*
X014793Y014540D01*
X014793Y014280D01*
X015140Y014280D01*
X015140Y014110D02*
X015140Y013936D01*
X015140Y014023D02*
X014793Y014023D01*
X014793Y013936D01*
X014880Y013768D02*
X014793Y013681D01*
X014793Y013508D01*
X014880Y013421D01*
X015053Y013421D01*
X015140Y013508D01*
X015140Y013681D01*
X015053Y013768D01*
X014880Y013768D01*
X014620Y014023D02*
X014533Y014023D01*
X014793Y014796D02*
X014793Y014969D01*
X014706Y014883D02*
X015053Y014883D01*
X015140Y014969D01*
X015140Y015140D02*
X015053Y015140D01*
X014706Y015487D01*
X014620Y015487D01*
X014620Y015140D01*
X015053Y015655D02*
X015053Y015742D01*
X015140Y015742D01*
X015140Y015655D01*
X015053Y015655D01*
X015053Y015913D02*
X014880Y015913D01*
X014793Y016000D01*
X014793Y016260D01*
X014880Y016429D02*
X015053Y016429D01*
X015140Y016515D01*
X015140Y016689D01*
X015053Y016776D01*
X014880Y016776D01*
X014793Y016689D01*
X014793Y016515D01*
X014880Y016429D01*
X015140Y016260D02*
X015140Y016000D01*
X015053Y015913D01*
X015140Y016944D02*
X014793Y016944D01*
X014793Y017031D01*
X014880Y017118D01*
X014793Y017205D01*
X014880Y017291D01*
X015140Y017291D01*
X015140Y017118D02*
X014880Y017118D01*
X011404Y014650D02*
X011404Y014190D01*
X011557Y014190D02*
X011250Y014190D01*
X011097Y014190D02*
X010943Y014343D01*
X011020Y014343D02*
X010790Y014343D01*
X010790Y014190D02*
X010790Y014650D01*
X011020Y014650D01*
X011097Y014574D01*
X011097Y014420D01*
X011020Y014343D01*
X011250Y014497D02*
X011404Y014650D01*
X010670Y015149D02*
X010670Y015379D01*
X010593Y015456D01*
X010286Y015456D01*
X010210Y015379D01*
X010210Y015149D01*
X010670Y015149D01*
X010670Y015610D02*
X010363Y015917D01*
X010286Y015917D01*
X010210Y015840D01*
X010210Y015686D01*
X010286Y015610D01*
X010670Y015610D02*
X010670Y015917D01*
X009640Y016350D02*
X007860Y016350D01*
X007860Y014850D02*
X009640Y014850D01*
X009570Y014480D02*
X007790Y014480D01*
X007210Y014067D02*
X007210Y013760D01*
X007210Y013913D02*
X006750Y013913D01*
X006903Y013760D01*
X006826Y013606D02*
X006750Y013529D01*
X006750Y013299D01*
X007210Y013299D01*
X007210Y013529D01*
X007133Y013606D01*
X006826Y013606D01*
X007790Y012980D02*
X009570Y012980D01*
X014620Y012905D02*
X014620Y013165D01*
X014706Y013252D01*
X014880Y013252D01*
X014967Y013165D01*
X014967Y012905D01*
X015140Y012905D02*
X014620Y012905D01*
X014620Y012650D02*
X014880Y012390D01*
X014880Y012736D01*
X015140Y012650D02*
X014620Y012650D01*
X015140Y012221D02*
X015140Y011874D01*
X015140Y011703D02*
X015140Y011616D01*
X015053Y011616D01*
X015053Y011703D01*
X015140Y011703D01*
X015053Y011447D02*
X014793Y011447D01*
X015053Y011447D02*
X015140Y011361D01*
X015053Y011274D01*
X015140Y011187D01*
X015053Y011100D01*
X014793Y011100D01*
X014793Y010932D02*
X015053Y010932D01*
X015140Y010845D01*
X015053Y010758D01*
X015140Y010672D01*
X015053Y010585D01*
X014793Y010585D01*
X014793Y010416D02*
X015053Y010416D01*
X015140Y010329D01*
X015053Y010243D01*
X015140Y010156D01*
X015053Y010069D01*
X014793Y010069D01*
X017029Y011107D02*
X017029Y011414D01*
X017106Y011490D01*
X017259Y011490D01*
X017336Y011414D01*
X017490Y011260D02*
X017797Y011260D01*
X017720Y011030D02*
X017720Y011490D01*
X017490Y011260D01*
X017336Y011107D02*
X017259Y011030D01*
X017106Y011030D01*
X017029Y011107D01*
X015140Y012047D02*
X014620Y012047D01*
X014793Y011874D01*
X011047Y009900D02*
X010893Y009824D01*
X010740Y009670D01*
X010970Y009670D01*
X011047Y009593D01*
X011047Y009517D01*
X010970Y009440D01*
X010816Y009440D01*
X010740Y009517D01*
X010740Y009670D01*
X010586Y009517D02*
X010509Y009440D01*
X010356Y009440D01*
X010279Y009517D01*
X010279Y009824D01*
X010356Y009900D01*
X010509Y009900D01*
X010586Y009824D01*
X012349Y007810D02*
X012579Y007810D01*
X012656Y007734D01*
X012656Y007580D01*
X012579Y007503D01*
X012349Y007503D01*
X012349Y007350D02*
X012349Y007810D01*
X012502Y007503D02*
X012656Y007350D01*
X012809Y007350D02*
X013116Y007350D01*
X012963Y007350D02*
X012963Y007810D01*
X012809Y007657D01*
X013270Y007734D02*
X013346Y007810D01*
X013500Y007810D01*
X013577Y007734D01*
X013577Y007657D01*
X013500Y007580D01*
X013577Y007503D01*
X013577Y007427D01*
X013500Y007350D01*
X013346Y007350D01*
X013270Y007427D01*
X013423Y007580D02*
X013500Y007580D01*
X014970Y007587D02*
X014970Y007347D01*
X015150Y007347D01*
X015090Y007467D01*
X015090Y007527D01*
X015150Y007587D01*
X015270Y007587D01*
X015330Y007527D01*
X015330Y007407D01*
X015270Y007347D01*
X015150Y007219D02*
X015210Y007158D01*
X015210Y006978D01*
X015330Y006978D02*
X014970Y006978D01*
X014970Y007158D01*
X015030Y007219D01*
X015150Y007219D01*
X014970Y006850D02*
X014970Y006730D01*
X014970Y006790D02*
X015270Y006790D01*
X015330Y006730D01*
X015330Y006670D01*
X015270Y006610D01*
X015271Y006310D02*
X015098Y006310D01*
X015011Y006224D01*
X015271Y006310D02*
X015358Y006224D01*
X015358Y006137D01*
X015011Y005790D01*
X015358Y005790D01*
X015527Y005877D02*
X015614Y005790D01*
X015787Y005790D01*
X015874Y005877D01*
X015874Y006224D01*
X015527Y005877D01*
X015527Y006224D01*
X015614Y006310D01*
X015787Y006310D01*
X015874Y006224D01*
X016042Y006137D02*
X016216Y006310D01*
X016216Y005790D01*
X016389Y005790D02*
X016042Y005790D01*
X016558Y005790D02*
X016558Y005877D01*
X016905Y006224D01*
X016905Y006310D01*
X016558Y006310D01*
X014843Y005703D02*
X014496Y005703D01*
X014327Y005877D02*
X014240Y005790D01*
X014067Y005790D01*
X013980Y005877D01*
X013811Y005790D02*
X013464Y005790D01*
X013811Y006137D01*
X013811Y006224D01*
X013725Y006310D01*
X013551Y006310D01*
X013464Y006224D01*
X012780Y006050D02*
X012780Y005963D01*
X012433Y005963D01*
X012433Y005877D02*
X012433Y006050D01*
X012520Y006137D01*
X012693Y006137D01*
X012780Y006050D01*
X012693Y005790D02*
X012520Y005790D01*
X012433Y005877D01*
X012264Y005790D02*
X012264Y006050D01*
X012178Y006137D01*
X011917Y006137D01*
X011917Y005790D01*
X011749Y005790D02*
X011749Y006137D01*
X011402Y006137D02*
X011402Y005877D01*
X011488Y005790D01*
X011749Y005790D01*
X011146Y005877D02*
X011060Y005790D01*
X010973Y005790D01*
X010886Y005877D01*
X010717Y005703D02*
X010370Y005703D01*
X010202Y005790D02*
X009855Y005790D01*
X010202Y006137D01*
X010202Y006224D01*
X010115Y006310D01*
X009942Y006310D01*
X009855Y006224D01*
X009686Y005703D02*
X009339Y005703D01*
X009084Y005790D02*
X008910Y005790D01*
X008824Y005877D01*
X008824Y006050D01*
X008910Y006137D01*
X009084Y006137D01*
X009171Y006050D01*
X009171Y005963D01*
X008824Y005963D01*
X008655Y005963D02*
X008308Y005963D01*
X008308Y005877D02*
X008308Y006050D01*
X008395Y006137D01*
X008568Y006137D01*
X008655Y006050D01*
X008655Y005963D01*
X008568Y005790D02*
X008395Y005790D01*
X008308Y005877D01*
X008138Y006137D02*
X008052Y006137D01*
X007878Y005963D01*
X007878Y005790D02*
X007878Y006137D01*
X007710Y006310D02*
X007363Y006310D01*
X007363Y005790D01*
X007194Y005703D02*
X006847Y005703D01*
X006678Y005877D02*
X006592Y005790D01*
X006418Y005790D01*
X006331Y005877D01*
X006331Y006224D01*
X006418Y006310D01*
X006592Y006310D01*
X006678Y006224D01*
X006163Y005790D02*
X005816Y005790D01*
X005816Y006310D01*
X005647Y006224D02*
X005560Y006310D01*
X005387Y006310D01*
X005300Y006224D01*
X005300Y006137D01*
X005387Y006050D01*
X005560Y006050D01*
X005647Y005963D01*
X005647Y005877D01*
X005560Y005790D01*
X005387Y005790D01*
X005300Y005877D01*
X006900Y006882D02*
X006900Y007036D01*
X006900Y006959D02*
X007360Y006959D01*
X007360Y006882D02*
X007360Y007036D01*
X007283Y007189D02*
X007360Y007266D01*
X007360Y007419D01*
X007283Y007496D01*
X007360Y007650D02*
X007360Y007957D01*
X007360Y007803D02*
X006900Y007803D01*
X007053Y007650D01*
X006976Y007496D02*
X006900Y007419D01*
X006900Y007266D01*
X006976Y007189D01*
X007283Y007189D01*
X007363Y006050D02*
X007536Y006050D01*
X004868Y007840D02*
X004561Y007840D01*
X004868Y008147D01*
X004868Y008224D01*
X004791Y008300D01*
X004638Y008300D01*
X004561Y008224D01*
X004407Y008224D02*
X004407Y008070D01*
X004331Y007993D01*
X004100Y007993D01*
X004100Y007840D02*
X004100Y008300D01*
X004331Y008300D01*
X004407Y008224D01*
X003947Y008300D02*
X003793Y008300D01*
X003870Y008300D02*
X003870Y007917D01*
X003793Y007840D01*
X003717Y007840D01*
X003640Y007917D01*
X011060Y006310D02*
X011233Y006310D01*
X011146Y006310D02*
X011146Y005877D01*
X012949Y005703D02*
X013296Y005703D01*
X013980Y006137D02*
X014067Y006050D01*
X014327Y006050D01*
X014327Y005877D02*
X014327Y006224D01*
X014240Y006310D01*
X014067Y006310D01*
X013980Y006224D01*
X013980Y006137D01*
X020230Y009010D02*
X020230Y009240D01*
X020306Y009317D01*
X020460Y009317D01*
X020537Y009240D01*
X020537Y009010D01*
X020690Y009010D02*
X020230Y009010D01*
X020537Y009163D02*
X020690Y009317D01*
X020613Y009470D02*
X020690Y009547D01*
X020690Y009701D01*
X020613Y009777D01*
X020460Y009777D01*
X020383Y009701D01*
X020383Y009624D01*
X020460Y009470D01*
X020230Y009470D01*
X020230Y009777D01*
X021770Y008530D02*
X021846Y008607D01*
X022153Y008607D01*
X022230Y008530D01*
X022230Y008376D01*
X022153Y008300D01*
X022000Y008376D02*
X021923Y008300D01*
X021846Y008300D01*
X021770Y008376D01*
X021770Y008530D01*
X022000Y008607D02*
X022000Y008376D01*
X022000Y008146D02*
X021846Y008146D01*
X021770Y008069D01*
X021770Y007839D01*
X022230Y007839D01*
X022077Y007839D02*
X022077Y008069D01*
X022000Y008146D01*
X022077Y007993D02*
X022230Y008146D01*
X023260Y008786D02*
X023336Y008709D01*
X023643Y008709D01*
X023720Y008786D01*
X023720Y008939D01*
X023643Y009016D01*
X023643Y009170D02*
X023720Y009170D01*
X023643Y009170D02*
X023336Y009477D01*
X023260Y009477D01*
X023260Y009170D01*
X023336Y009016D02*
X023260Y008939D01*
X023260Y008786D01*
X022054Y010900D02*
X021747Y010900D01*
X022054Y011207D01*
X022054Y011284D01*
X021978Y011360D01*
X021824Y011360D01*
X021747Y011284D01*
X021594Y011284D02*
X021517Y011360D01*
X021364Y011360D01*
X021287Y011284D01*
X021287Y010977D01*
X021364Y010900D01*
X021517Y010900D01*
X021594Y010977D01*
X021133Y010900D02*
X020980Y010900D01*
X021057Y010900D02*
X021057Y011360D01*
X021133Y011360D02*
X020980Y011360D01*
X029560Y007302D02*
X029620Y007362D01*
X029680Y007362D01*
X029740Y007302D01*
X029800Y007362D01*
X029860Y007362D01*
X029920Y007302D01*
X029920Y007182D01*
X029860Y007122D01*
X029740Y007242D02*
X029740Y007302D01*
X029560Y007302D02*
X029560Y007182D01*
X029620Y007122D01*
X029620Y006994D02*
X029740Y006994D01*
X029800Y006934D01*
X029800Y006753D01*
X029920Y006753D02*
X029560Y006753D01*
X029560Y006934D01*
X029620Y006994D01*
X029560Y006625D02*
X029560Y006505D01*
X029560Y006565D02*
X029860Y006565D01*
X029920Y006505D01*
X029920Y006445D01*
X029860Y006385D01*
X031260Y007500D02*
X031260Y007730D01*
X031336Y007807D01*
X031490Y007807D01*
X031567Y007730D01*
X031567Y007500D01*
X031720Y007500D02*
X031260Y007500D01*
X031567Y007653D02*
X031720Y007807D01*
X031720Y007960D02*
X031720Y008267D01*
X031720Y008114D02*
X031260Y008114D01*
X031413Y007960D01*
X031336Y008421D02*
X031260Y008498D01*
X031260Y008651D01*
X031336Y008728D01*
X031413Y008728D01*
X031720Y008421D01*
X031720Y008728D01*
X033360Y008604D02*
X033820Y008604D01*
X033820Y008757D02*
X033820Y008450D01*
X033743Y008297D02*
X033820Y008220D01*
X033820Y008067D01*
X033743Y007990D01*
X033436Y007990D01*
X033360Y008067D01*
X033360Y008220D01*
X033436Y008297D01*
X033513Y008450D02*
X033360Y008604D01*
X033436Y008911D02*
X033360Y008988D01*
X033360Y009141D01*
X033436Y009218D01*
X033743Y008911D01*
X033820Y008988D01*
X033820Y009141D01*
X033743Y009218D01*
X033436Y009218D01*
X033436Y008911D02*
X033743Y008911D01*
X031330Y016410D02*
X030870Y016410D01*
X030870Y016640D01*
X030946Y016717D01*
X031100Y016717D01*
X031177Y016640D01*
X031177Y016410D01*
X031177Y016563D02*
X031330Y016717D01*
X031330Y016870D02*
X031330Y017177D01*
X031330Y017024D02*
X030870Y017024D01*
X031023Y016870D01*
X031023Y017331D02*
X030870Y017484D01*
X031330Y017484D01*
X031330Y017331D02*
X031330Y017638D01*
X032230Y017826D02*
X032306Y017749D01*
X032613Y017749D01*
X032690Y017826D01*
X032690Y017979D01*
X032613Y018056D01*
X032613Y018210D02*
X032690Y018286D01*
X032690Y018440D01*
X032613Y018517D01*
X032306Y018517D01*
X032230Y018440D01*
X032230Y018286D01*
X032306Y018210D01*
X032383Y018210D01*
X032460Y018286D01*
X032460Y018517D01*
X032306Y018056D02*
X032230Y017979D01*
X032230Y017826D01*
X028310Y018137D02*
X028310Y018290D01*
X028233Y018367D01*
X028233Y018520D02*
X028157Y018520D01*
X028080Y018597D01*
X028080Y018751D01*
X028157Y018827D01*
X028233Y018827D01*
X028310Y018751D01*
X028310Y018597D01*
X028233Y018520D01*
X028080Y018597D02*
X028003Y018520D01*
X027926Y018520D01*
X027850Y018597D01*
X027850Y018751D01*
X027926Y018827D01*
X028003Y018827D01*
X028080Y018751D01*
X027926Y018367D02*
X027850Y018290D01*
X027850Y018137D01*
X027926Y018060D01*
X028233Y018060D01*
X028310Y018137D01*
X026240Y018060D02*
X026240Y018367D01*
X026240Y018214D02*
X025780Y018214D01*
X025933Y018060D01*
X025856Y017907D02*
X026010Y017907D01*
X026087Y017830D01*
X026087Y017600D01*
X026240Y017600D02*
X025780Y017600D01*
X025780Y017830D01*
X025856Y017907D01*
X026087Y017753D02*
X026240Y017907D01*
X026163Y018521D02*
X025856Y018521D01*
X025780Y018598D01*
X025780Y018751D01*
X025856Y018828D01*
X026163Y018521D01*
X026240Y018598D01*
X026240Y018751D01*
X026163Y018828D01*
X025856Y018828D01*
X023427Y018250D02*
X023273Y018174D01*
X023120Y018020D01*
X023350Y018020D01*
X023427Y017943D01*
X023427Y017867D01*
X023350Y017790D01*
X023196Y017790D01*
X023120Y017867D01*
X023120Y018020D01*
X022966Y017790D02*
X022659Y017790D01*
X022506Y017790D02*
X022352Y017943D01*
X022429Y017943D02*
X022199Y017943D01*
X022199Y017790D02*
X022199Y018250D01*
X022429Y018250D01*
X022506Y018174D01*
X022506Y018020D01*
X022429Y017943D01*
X022659Y018097D02*
X022813Y018250D01*
X022813Y017790D01*
X005540Y018280D02*
X005540Y018340D01*
X005480Y018400D01*
X005180Y018400D01*
X005180Y018340D02*
X005180Y018460D01*
X005180Y018588D02*
X005180Y018768D01*
X005240Y018829D01*
X005360Y018829D01*
X005420Y018768D01*
X005420Y018588D01*
X005540Y018588D02*
X005180Y018588D01*
X005540Y018280D02*
X005480Y018220D01*
X005360Y018957D02*
X005360Y019197D01*
X005540Y019137D02*
X005180Y019137D01*
X005360Y018957D01*
X004503Y017580D02*
X004503Y017120D01*
X004350Y017120D02*
X004657Y017120D01*
X004196Y017350D02*
X004119Y017273D01*
X003889Y017273D01*
X003889Y017120D02*
X003889Y017580D01*
X004119Y017580D01*
X004196Y017504D01*
X004196Y017350D01*
X004350Y017427D02*
X004503Y017580D01*
X003736Y017580D02*
X003582Y017580D01*
X003659Y017580D02*
X003659Y017197D01*
X003582Y017120D01*
X003506Y017120D01*
X003429Y017197D01*
D13*
X021540Y014850D02*
X021540Y014280D01*
D14*
X027592Y014491D02*
X027592Y012589D01*
X031308Y012589D01*
X031308Y014491D01*
X027592Y014491D01*
X027763Y012990D02*
X027765Y013021D01*
X027771Y013052D01*
X027781Y013082D01*
X027794Y013110D01*
X027811Y013137D01*
X027831Y013161D01*
X027854Y013183D01*
X027879Y013201D01*
X027907Y013216D01*
X027936Y013228D01*
X027966Y013236D01*
X027997Y013240D01*
X028029Y013240D01*
X028060Y013236D01*
X028090Y013228D01*
X028119Y013216D01*
X028147Y013201D01*
X028172Y013183D01*
X028195Y013161D01*
X028215Y013137D01*
X028232Y013110D01*
X028245Y013082D01*
X028255Y013052D01*
X028261Y013021D01*
X028263Y012990D01*
X028261Y012959D01*
X028255Y012928D01*
X028245Y012898D01*
X028232Y012870D01*
X028215Y012843D01*
X028195Y012819D01*
X028172Y012797D01*
X028147Y012779D01*
X028119Y012764D01*
X028090Y012752D01*
X028060Y012744D01*
X028029Y012740D01*
X027997Y012740D01*
X027966Y012744D01*
X027936Y012752D01*
X027907Y012764D01*
X027879Y012779D01*
X027854Y012797D01*
X027831Y012819D01*
X027811Y012843D01*
X027794Y012870D01*
X027781Y012898D01*
X027771Y012928D01*
X027765Y012959D01*
X027763Y012990D01*
X032900Y013300D02*
X032900Y013650D01*
X033000Y013650D01*
X033000Y013950D01*
X033200Y013950D01*
X033000Y014050D02*
X034400Y014050D01*
X034400Y013600D01*
X034400Y011150D01*
X033000Y011150D01*
X033000Y011250D02*
X033200Y011250D01*
X033000Y011250D02*
X033000Y011550D01*
X032900Y011550D01*
X032900Y011850D01*
X033000Y011850D01*
X033000Y012300D01*
X033100Y012300D01*
X033100Y012900D01*
X033000Y012900D01*
X033000Y013300D01*
X032900Y013300D01*
X033900Y012850D02*
X034300Y012850D01*
X034300Y013950D01*
X033800Y013950D01*
X034400Y013600D02*
X034500Y013600D01*
X034500Y013100D01*
X034650Y013100D01*
X034650Y012100D01*
X034500Y012100D01*
X034500Y013100D01*
X034300Y012850D02*
X034300Y012350D01*
X033900Y012350D01*
X033900Y012850D01*
X034300Y012350D02*
X034300Y011250D01*
X033800Y011250D01*
X034400Y011600D02*
X034500Y011600D01*
X034500Y012100D01*
X029450Y007340D02*
X029200Y007590D01*
X028700Y007590D01*
X028450Y007340D01*
X028450Y006840D01*
X028700Y006590D01*
X029200Y006590D01*
X029450Y006840D01*
X029450Y007340D01*
X028450Y007340D02*
X028200Y007590D01*
X027700Y007590D01*
X027450Y007340D01*
X027450Y006840D01*
X027700Y006590D01*
X028200Y006590D01*
X028450Y006840D01*
X027450Y006840D02*
X027200Y006590D01*
X026700Y006590D01*
X026450Y006840D01*
X026200Y006590D01*
X025700Y006590D01*
X025450Y006840D01*
X025200Y006590D01*
X024700Y006590D01*
X024450Y006840D01*
X024450Y007340D01*
X024700Y007590D01*
X025200Y007590D01*
X025450Y007340D01*
X025700Y007590D01*
X026200Y007590D01*
X026450Y007340D01*
X026450Y006840D01*
X026450Y007340D02*
X026700Y007590D01*
X027200Y007590D01*
X027450Y007340D01*
X025450Y007340D02*
X025450Y006840D01*
X021410Y006840D02*
X021160Y006590D01*
X020660Y006590D01*
X020410Y006840D01*
X020160Y006590D01*
X019660Y006590D01*
X019410Y006840D01*
X019160Y006590D01*
X018660Y006590D01*
X018410Y006840D01*
X018160Y006590D01*
X017660Y006590D01*
X017410Y006840D01*
X017160Y006590D01*
X016660Y006590D01*
X016410Y006840D01*
X016160Y006590D01*
X015660Y006590D01*
X015410Y006840D01*
X015410Y007340D01*
X015660Y007590D01*
X016160Y007590D01*
X016410Y007340D01*
X016660Y007590D01*
X017160Y007590D01*
X017410Y007340D01*
X017410Y006840D01*
X016410Y006840D02*
X016410Y007340D01*
X017410Y007340D02*
X017660Y007590D01*
X018160Y007590D01*
X018410Y007340D01*
X018660Y007590D01*
X019160Y007590D01*
X019410Y007340D01*
X019660Y007590D01*
X020160Y007590D01*
X020410Y007340D01*
X020660Y007590D01*
X021160Y007590D01*
X021410Y007340D01*
X021410Y006840D01*
X020410Y006840D02*
X020410Y007340D01*
X019410Y007340D02*
X019410Y006840D01*
X018410Y006840D02*
X018410Y007340D01*
X018390Y018180D02*
X017890Y018180D01*
X017640Y018430D01*
X017390Y018180D01*
X016890Y018180D01*
X016640Y018430D01*
X016390Y018180D01*
X015890Y018180D01*
X015640Y018430D01*
X015390Y018180D01*
X014890Y018180D01*
X014640Y018430D01*
X014390Y018180D01*
X013890Y018180D01*
X013640Y018430D01*
X013390Y018180D01*
X012890Y018180D01*
X012640Y018430D01*
X012390Y018180D01*
X011890Y018180D01*
X011640Y018430D01*
X011390Y018180D01*
X010890Y018180D01*
X010640Y018430D01*
X010390Y018180D01*
X009890Y018180D01*
X009640Y018430D01*
X009390Y018180D01*
X008890Y018180D01*
X008640Y018430D01*
X008390Y018180D01*
X007890Y018180D01*
X007640Y018430D01*
X007390Y018180D01*
X006890Y018180D01*
X006640Y018430D01*
X006390Y018180D01*
X005890Y018180D01*
X005640Y018430D01*
X005640Y018930D01*
X005890Y019180D01*
X006390Y019180D01*
X006640Y018930D01*
X006890Y019180D01*
X007390Y019180D01*
X007640Y018930D01*
X007640Y018430D01*
X007640Y018930D02*
X007890Y019180D01*
X008390Y019180D01*
X008640Y018930D01*
X008890Y019180D01*
X009390Y019180D01*
X009640Y018930D01*
X009890Y019180D01*
X010390Y019180D01*
X010640Y018930D01*
X010640Y018430D01*
X010640Y018930D02*
X010890Y019180D01*
X011390Y019180D01*
X011640Y018930D01*
X011890Y019180D01*
X012390Y019180D01*
X012640Y018930D01*
X012890Y019180D01*
X013390Y019180D01*
X013640Y018930D01*
X013640Y018430D01*
X013640Y018930D02*
X013890Y019180D01*
X014390Y019180D01*
X014640Y018930D01*
X014890Y019180D01*
X015390Y019180D01*
X015640Y018930D01*
X015890Y019180D01*
X016390Y019180D01*
X016640Y018930D01*
X016640Y018430D01*
X016640Y018930D02*
X016890Y019180D01*
X017390Y019180D01*
X017640Y018930D01*
X017890Y019180D01*
X018390Y019180D01*
X018640Y018930D01*
X018890Y019180D01*
X019390Y019180D01*
X019640Y018930D01*
X019640Y018430D01*
X019390Y018180D01*
X018890Y018180D01*
X018640Y018430D01*
X018390Y018180D01*
X018640Y018430D02*
X018640Y018930D01*
X019640Y018930D02*
X019890Y019180D01*
X020390Y019180D01*
X020640Y018930D01*
X020890Y019180D01*
X021390Y019180D01*
X021640Y018930D01*
X021640Y018430D01*
X021390Y018180D01*
X020890Y018180D01*
X020640Y018430D01*
X020390Y018180D01*
X019890Y018180D01*
X019640Y018430D01*
X020640Y018430D02*
X020640Y018930D01*
X017640Y018930D02*
X017640Y018430D01*
X015640Y018430D02*
X015640Y018930D01*
X014640Y018930D02*
X014640Y018430D01*
X012640Y018430D02*
X012640Y018930D01*
X011640Y018930D02*
X011640Y018430D01*
X009640Y018430D02*
X009640Y018930D01*
X008640Y018930D02*
X008640Y018430D01*
X006640Y018430D02*
X006640Y018930D01*
D15*
X031436Y013860D02*
X031436Y013710D01*
X031511Y013635D01*
X031511Y013474D02*
X031436Y013399D01*
X031436Y013249D01*
X031511Y013174D01*
X031812Y013174D01*
X031887Y013249D01*
X031887Y013399D01*
X031812Y013474D01*
X031812Y013635D02*
X031887Y013710D01*
X031887Y013860D01*
X031812Y013935D01*
X031737Y013935D01*
X031662Y013860D01*
X031662Y013785D01*
X031662Y013860D02*
X031587Y013935D01*
X031511Y013935D01*
X031436Y013860D01*
X031436Y013017D02*
X031436Y012867D01*
X031436Y012942D02*
X031887Y012942D01*
X031887Y012867D02*
X031887Y013017D01*
X032415Y012876D02*
X032565Y012725D01*
X032490Y012565D02*
X032415Y012490D01*
X032415Y012340D01*
X032490Y012265D01*
X032565Y012265D01*
X032640Y012340D01*
X032640Y012490D01*
X032715Y012565D01*
X032790Y012565D01*
X032865Y012490D01*
X032865Y012340D01*
X032790Y012265D01*
X032865Y012725D02*
X032865Y013026D01*
X032865Y012876D02*
X032415Y012876D01*
D16*
X022210Y014080D02*
X019850Y014080D01*
X019850Y011500D01*
X022210Y011500D01*
X010640Y009070D02*
X010640Y006490D01*
X008280Y006490D01*
X008280Y009070D02*
X010640Y009070D01*
X008604Y013336D02*
X008604Y014124D01*
X009007Y013730D01*
X008604Y013336D01*
X008674Y015206D02*
X008674Y015994D01*
X009077Y015600D01*
X008674Y015206D01*
D17*
X019660Y012790D03*
X010830Y007780D03*
D18*
X003610Y009010D02*
X003180Y009010D01*
X003180Y010680D02*
X003610Y010680D01*
X003610Y012310D02*
X003180Y012310D01*
X002980Y014780D02*
X003560Y014780D01*
X003560Y016430D02*
X002980Y016430D01*
M02*
