G75*
G70*
%OFA0B0*%
%FSLAX24Y24*%
%IPPOS*%
%LPD*%
%AMOC8*
5,1,8,0,0,1.08239X$1,22.5*
%
%ADD10R,0.0150X0.0551*%
%ADD11R,0.0630X0.0710*%
%ADD12R,0.0512X0.0591*%
%ADD13R,0.0591X0.0512*%
%ADD14R,0.0551X0.0551*%
%ADD15R,0.0945X0.0945*%
%ADD16R,0.2441X0.2126*%
%ADD17R,0.0630X0.0394*%
%ADD18R,0.1063X0.0630*%
%ADD19R,0.0630X0.0709*%
D10*
X027787Y012162D03*
X028043Y012162D03*
X028298Y012162D03*
X028554Y012162D03*
X028810Y012162D03*
X029066Y012162D03*
X029322Y012162D03*
X029578Y012162D03*
X029834Y012162D03*
X030090Y012162D03*
X030346Y012162D03*
X030602Y012162D03*
X030857Y012162D03*
X031113Y012162D03*
X031113Y014918D03*
X030857Y014918D03*
X030602Y014918D03*
X030346Y014918D03*
X030090Y014918D03*
X029834Y014918D03*
X029578Y014918D03*
X029322Y014918D03*
X029066Y014918D03*
X028810Y014918D03*
X028554Y014918D03*
X028298Y014918D03*
X028043Y014918D03*
X027787Y014918D03*
D11*
X023240Y018700D03*
X022120Y018700D03*
X011790Y013730D03*
X010670Y013730D03*
D12*
X009924Y012340D03*
X009176Y012340D03*
X008384Y012340D03*
X007636Y012340D03*
X007656Y011040D03*
X008404Y011040D03*
X009216Y011040D03*
X009964Y011040D03*
X009984Y009690D03*
X009236Y009690D03*
X008404Y009690D03*
X007656Y009690D03*
X012626Y006880D03*
X013374Y006880D03*
X017146Y011890D03*
X017894Y011890D03*
X011694Y017290D03*
X010946Y017290D03*
X010064Y017290D03*
X009316Y017290D03*
X008234Y017260D03*
X007486Y017260D03*
D13*
X018810Y015484D03*
X018810Y014736D03*
X026620Y017876D03*
X027440Y017876D03*
X027440Y018624D03*
X026620Y018624D03*
X031030Y018674D03*
X031820Y018674D03*
X031820Y017926D03*
X031030Y017926D03*
X026960Y015074D03*
X026960Y014326D03*
X026960Y013534D03*
X026960Y012786D03*
X022870Y009794D03*
X021980Y009794D03*
X021980Y009046D03*
X022870Y009046D03*
X021080Y009046D03*
X021080Y009794D03*
X032110Y008964D03*
X032970Y008964D03*
X032970Y008216D03*
X032110Y008216D03*
D14*
X022578Y014570D03*
X021082Y014570D03*
D15*
X009616Y015600D03*
X007884Y015600D03*
X007814Y013730D03*
X009546Y013730D03*
D16*
X008806Y007780D03*
X021684Y012790D03*
D17*
X011680Y006882D03*
X011680Y008678D03*
X018810Y011892D03*
X018810Y013688D03*
D18*
X017700Y014739D03*
X017700Y015841D03*
D19*
X017901Y012900D03*
X016799Y012900D03*
M02*
